<?xml version="1.0" encoding="utf-8" ?>
<svg baseProfile="full" height="200mm" version="1.1" viewBox="0,0,200,200" width="200mm" xmlns="http://www.w3.org/2000/svg" xmlns:ev="http://www.w3.org/2001/xml-events" xmlns:xlink="http://www.w3.org/1999/xlink"><defs /><rect fill="#1a1a1a" height="200" width="200" x="0" y="0" /><text alignment-baseline="middle" fill="#e1ed5e" style="dominant-baseline: central; font-size:9.0px; font-family:Arial;" text-anchor="middle" x="100.0" y="100.0">2023</text><line stroke="#e1ed5e" stroke-width="0.3" x1="100.0" x2="100.0" y1="15.0" y2="10.0" /><path d="M 100.0 14.0 a86.0,86.0 0 0,1 42.46469731375804,11.215312516191453" fill="none" id="id13" stroke="none" /><text fill="#e1ed5e" style="font-size:6.75px; font-family:Arial;" text-anchor="middle"><textPath startOffset="22.20632615414155" xlink:href="#id13">January</textPath></text><path d="M 102.52436894288641 79.15227682838746 l 0.6643616765669135 -5.486689399315214 a26.52676550993877,26.52676550993877 0 0,0 0.4528311778875764,0.058790483231633085 l -0.758707582962336 5.474440592919445" fill="#ff0000" stroke="none" /><path d="M 104.66035177308747 79.52364482259891 l 1.9075215210166665 -8.38114590371298 a29.595478172415227,29.595478172415227 0 0,0 0.495761342574921,0.11733069238091721 l -2.051506550554111 8.347069299191196" fill="#ff3004" stroke="none" /><path d="M 105.01212808612495 79.60689891045804 l 3.313454835922536 -13.48162262885063 a34.88283586506863,34.88283586506863 0 0,0 0.5818641590948931,0.14833012989922797 l -3.5450278837024545 13.422589502782534" fill="#ff7e0b" stroke="none" /><path d="M 106.0581310904928 79.89281104454417 l 4.086633708720878 -13.563707180575697 a35.165970759169824,35.165970759169824 0 0,0 0.5780860708996473,0.1796141562073229 l -4.319505152331244 13.491352889485853" fill="#ff830c" stroke="none" /><path d="M 107.4271985657038 80.35727306442388 l 6.5085825582646635 -17.213261339207435 a39.40266319991757,39.40266319991757 0 0,0 0.6323505162962053,0.24534217616822268 l -6.803916239560535 17.098676459148667" fill="#ffbf11" stroke="none" /><path d="M 107.76421540070413 80.48803036053334 l 5.936996754720774 -14.92005237479863 a37.05789193301223,37.05789193301223 0 0,0 0.5906606756680746,0.24094532021134168 l -6.192941299977236 14.815646168403708" fill="#ff9e0e" stroke="none" /><path d="M 108.43124777332544 80.76684994638697 l 8.897024292727423 -20.295667717659185 a43.16012566234711,43.16012566234711 0 0,0 0.6778562482220418,0.3041343395418621 l -9.245062659416245 20.13951304760079" fill="#fff116" stroke="none" /><path d="M 108.76106565485865 80.91482961587045 l 9.48728780240799 -20.66717809514599 a43.740731744211786,43.740731744211786 0 0,0 0.6815676419240684,0.3200051467076644 l -9.841633655631655 20.500807965798323" fill="#fff917" stroke="none" /><path d="M 109.41281617654863 81.2277094730956 l 7.602651123988174 -15.162218511158985 a37.96152040040075,37.96152040040075 0 0,0 0.5816057649530688,0.2979210624994305 l -7.862517376529999 15.029104923347054" fill="#ffaa0f" stroke="none" /><path d="M 110.05341064243156 81.56283822128135 l 10.610203802422216 -19.458276496216044 a43.16305369149587,43.16305369149587 0 0,0 0.649246138249234,0.3613047730118195 l -10.943574029743486 19.272756325644046" fill="#fff116" stroke="none" /><path d="M 110.36928655335952 81.73862282372117 l 11.045734040465558 -19.45267058286206 a43.36994933606347,43.36994933606347 0 0,0 0.6460124697682771,0.3742121197094706 l -11.378943242699162 19.25965430576254" fill="#fff417" stroke="none" /><line stroke="#e1ed5e" stroke-width="0.3" x1="143.23703022742887" x2="145.7803849466894" y1="26.81831364943548" y2="22.513508569990506" /><path d="M 143.74570117128098 25.957352633546492 a86.0,86.0 0 0,1 28.547481713284135,27.462654790039103" fill="none" id="id14" stroke="none" /><text fill="#e1ed5e" style="font-size:6.75px; font-family:Arial;" text-anchor="middle"><textPath startOffset="19.985693538727396" xlink:href="#id14">February</textPath></text><path d="M 111.90073688211348 82.69761687909136 l 12.553877294778369 -18.251978575679292 a43.152529360310254,43.152529360310254 0 0,0 0.6083866757995287,0.42621374582869703 l -12.866195110161549 18.033179987086662" fill="#fff116" stroke="none" /><path d="M 112.19680574252982 82.90503203632743 l 12.969642936954243 -18.178171825299362 a43.33064192588728,43.33064192588728 0 0,0 0.6034404369820298,0.4384251405855809 l -13.280628690290062 17.95222744989711" fill="#fff417" stroke="none" /><path d="M 112.77801427241765 83.33499621200491 l 13.987539185087964 -18.242458376916254 a43.987791109367016,43.987791109367016 0 0,0 0.5969089731722403,0.4658969215741788 l -14.299480713419635 17.99898306611885" fill="#fffc17" stroke="none" /><path d="M 113.06298171725822 83.55741782278167 l 15.055899530970896 -18.951099423408785 a45.20380713942777,45.20380713942777 0 0,0 0.6050779313733017,0.4892642734876256 l -15.37988086090869 18.68912905265703" fill="#f2ff19" stroke="none" /><path d="M 113.6212207817346 84.01681056812373 l 14.592981318845133 -17.12345673947962 a43.498174914445684,43.498174914445684 0 0,0 0.565696253175375,0.4905662162902397 l -14.885571370667273 16.86972552976971" fill="#fff617" stroke="none" /><path d="M 113.89432698308785 84.25364557470407 l 23.762085359632604 -26.929423671426857 a56.91421111362007,56.91421111362007 0 0,0 0.7290141637717138,0.6545161142406055 l -24.22211051100031 26.516408548416955" fill="#65ff29" stroke="none" /><path d="M 114.42810811169701 84.74124197986012 l 16.801939188376654 -17.769254455246124 a45.455092810807145,45.455092810807145 0 0,0 0.5638958733508554,0.542467383389408 l -17.105318305339928 17.477403985094412" fill="#efff19" stroke="none" /><path d="M 114.68862486808459 84.99185889309783 l 17.64424116082009 -18.028049830666728 a46.22557882067685,46.22557882067685 0 0,0 0.5638732576381451,0.5614518066715157 l -17.95195021862556 17.72166217334509" fill="#e5ff1a" stroke="none" /><path d="M 114.94478906791727 85.2469230424477 l 17.43313545253623 -17.209502775440853 a45.49655480847015,45.49655480847015 0 0,0 0.545386129699147,0.5620683474492271 l -17.726785845938487 16.906870232441513" fill="#eeff19" stroke="none" /><path d="M 115.4437574822437 85.77008943001954 l 17.011349161668527 -15.674292834730982 a44.131568389737424,44.131568389737424 0 0,0 0.509943129493244,0.5630919401644485 l -17.278635931777806 15.379148107296984" fill="#fffe18" stroke="none" /><path d="M 115.68641384162765 86.03803664274999 l 17.32518521517365 -15.420580100335082 a44.19388568935619,44.19388568935619 0 0,0 0.5008811606751081,0.5725937527151898 l -17.58805823942661 15.120070791416945" fill="#ffff18" stroke="none" /><path d="M 116.15771136456269 86.58626213691792 l 19.194911802501245 -15.93514758460351 a45.94741605154523,45.94741605154523 0 0,0 0.4999549453795572,0.6128856476971747 l -19.466365239957213 15.602377767298234" fill="#e8ff1a" stroke="none" /><path d="M 116.38621287248628 86.86637796730983 l 17.246772573820202 -13.82336443637039 a43.10286335644743,43.10286335644743 0 0,0 0.4590371192564487,0.582930525506378 l -17.482163773670617 13.524441516910974" fill="#fff116" stroke="none" /><path d="M 116.60985879189232 87.15038557335679 l 19.893880182002693 -15.390178386907895 a46.15201899404353,46.15201899404353 0 0,0 0.48069318863004884,0.6325358900149254 l -20.15584931085686 15.045457721011935" fill="#e6ff1a" stroke="none" /><path d="M 117.04232023915458 87.72973835380427 l 20.28346323424758 -14.603844868693525 a45.99382255126133,45.99382255126133 0 0,0 0.45706334921084846,0.6464836935987762 l -20.53183920326231 14.252534674762956" fill="#e8ff1a" stroke="none" /><path d="M 117.2510076193507 88.02491185347247 l 29.500118211851127 -20.478022137306073 a56.91108972405583,56.91108972405583 0 0,0 0.5517002619023487,0.8095520581050103 l -29.848242939422207 19.967192055930656" fill="#65ff29" stroke="none" /><path d="M 117.65298651832404 88.62581576622439 l 20.968911852415392 -13.510703491650153 a45.94462613697897,45.94462613697897 0 0,0 0.4226301843076723,0.6684994567164423 l -21.19836963296902 13.147756387219504" fill="#e8ff1a" stroke="none" /><line stroke="#e1ed5e" stroke-width="0.3" x1="172.23445277983987" x2="176.4835382374775" y1="55.19839476539836" y2="52.563006222186495" /><path d="M 173.08426987136738 54.67131705675599 a86.0,86.0 0 0,1 12.851231095245387,41.99856678651699" fill="none" id="id15" stroke="none" /><text fill="#e1ed5e" style="font-size:6.75px; font-family:Arial;" text-anchor="middle"><textPath startOffset="22.20632615414155" xlink:href="#id15">March</textPath></text><path d="M 117.84615892207809 88.93136811851018 l 19.31210556136254 -11.977848468599383 a43.72501430472462,43.72501430472462 0 0,0 0.39120187655079164,0.6430330254419201 l -19.515423236199556 11.643647669950381" fill="#fff917" stroke="none" /><path d="M 118.03404312379186 89.2402003453031 l 21.68065653480593 -12.935508643042285 a46.2463512538831,46.2463512538831 0 0,0 0.4019916196401623,0.6871339854630845 l -21.90010782891642 12.560395245225305" fill="#e4ff1a" stroke="none" /><path d="M 118.3937258080291 89.86733742301442 l 36.29628341259543 -19.99475236593603 a62.439236379819484,62.439236379819484 0 0,0 0.5104910084475613,0.9458623085057306 l -36.635082520261456 19.36700907409784" fill="#30ff37" stroke="none" /><path d="M 118.56541770881063 90.18545643968196 l 22.158303436339814 -11.713910115552917 a46.06404000499843,46.06404000499843 0 0,0 0.3645432818745603,0.7041815887854866 l -22.35665615137449 11.330755804507087" fill="#e7ff1a" stroke="none" /><path d="M 119.04729006885535 91.15688171328212 l 22.50641287147623 -10.44909120996731 a45.813748758612974,45.813748758612974 0 0,0 0.3259270436076246,0.7181370373226028 l -22.6829422320472 10.060132163802646" fill="#eaff1a" stroke="none" /><path d="M 119.196687751892 91.48605970444005 l 23.304063404996526 -10.335606175316821 a46.49321725862284,46.49321725862284 0 0,0 0.3181670118746054,0.7343733302669581 l -23.47852112671381 9.93293370046326" fill="#e1ff1b" stroke="none" /><path d="M 119.47837535516314 92.15188598940014 l 54.49675719080287 -21.957517289963743 a79.75397101347602,79.75397101347602 0 0,0 0.5020947328823536,1.2777763290950845 l -54.86664547356692 21.016191955972875" fill="#47fdff" stroke="none" /><path d="M 119.7369772167798 92.82701384747503 l 23.510949403207874 -8.544556375053688 a46.015478917795505,46.015478917795505 0 0,0 0.2641440104095908,0.7467706874428945 l -23.654546494427276 8.138588061184178" fill="#e7ff1a" stroke="none" /><path d="M 119.97218684219823 93.5106431181261 l 23.950388760612135 -7.7819530407581095 a46.18292903760443,46.18292903760443 0 0,0 0.23914953696959795,0.7581693856978392 l -24.08079378134994 7.368533488633851" fill="#e5ff1a" stroke="none" /><path d="M 120.08093135843002 93.85539295169968 l 24.718982308918307 -7.5638141583720495 a46.85032632310482,46.85032632310482 0 0,0 0.22933034592416948,0.7731879202344586 l -24.84551855195418 7.137196851391061" fill="#ddff1b" stroke="none" /><path d="M 120.28053869075195 94.5502522615342 l 40.020859385594484 -10.754329125762213 a62.44061752564437,62.44061752564437 0 0,0 0.269992243410094,1.0403902506266696 l -40.200047960874876 10.063842449586694" fill="#30ff37" stroke="none" /><path d="M 120.37134235888165 94.90015583598534 l 26.802184585491673 -6.709767193204588 a48.62929739138822,48.62929739138822 0 0,0 0.1962937792929437,0.8137644417790733 l -26.913711165045434 6.247417519766109" fill="#c6ff1e" stroke="none" /><path d="M 120.53481517161879 95.60439243477599 l 24.40235249731886 -5.223478485198474 a45.95515046816459,45.95515046816459 0 0,0 0.15891882777763677,0.7749446431166888 l -24.48865062101149 4.802658185918374" fill="#e8ff1a" stroke="none" /><path d="M 120.6074358757038 95.95851677861258 l 21.68995388867799 -4.253784179773183 a43.1031395856124,43.1031395856124 0 0,0 0.13652257746425223,0.7293090678552054 l -21.7599621900521 3.8797970344554145" fill="#fff116" stroke="none" /><path d="M 120.91429891909075 98.10471618934814 l 24.464176804035937 -2.2169788438516758 a45.564424314304944,45.564424314304944 0 0,0 0.0640625308260675,0.7817251405182869 l -24.498713818681498 1.79553978612562" fill="#edff1a" stroke="none" /><line stroke="#e1ed5e" stroke-width="0.3" x1="184.98032266829074" x2="189.97916517819016" y1="98.17113171792111" y2="98.06355123074" /><path d="M 185.9800911702706 98.14961562048488 a86.0,86.0 0 0,1 -9.607161424134198,41.387399972396054" fill="none" id="id16" stroke="none" /><text fill="#e1ed5e" style="font-size:6.75px; font-family:Arial;" text-anchor="middle"><textPath startOffset="21.466115282336823" xlink:href="#id16">April</textPath></text><path d="M 120.99824983174949 100.27111621757518 l 24.466257344141034 0.3158929531038902 a45.46829656489302,45.46829656489302 0 0,0 -0.016840455261963275,0.7825097827251274 l -24.457194826194062 -0.7369925516191325" fill="#eeff19" stroke="none" /><path d="M 120.9764740272857 100.99374915477107 l 16.434191792172776 0.7785609812961735 a37.452623409764044,37.452623409764044 0 0,0 -0.03605019942602268,0.6437005279058039 l -16.418355241859224 -1.0613332255374006" fill="#ffa30f" stroke="none" /><path d="M 120.89721153311464 102.0752229133903 l 27.487848353484296 2.7297140890091924 a48.62305461225975,48.62305461225975 0 0,0 -0.08987786066840893,0.832157365182991 l -27.436788191314836 -3.202467776076975" fill="#c7ff1e" stroke="none" /><path d="M 120.8583938346157 102.4346265915055 l 27.437199741079958 3.202515812853432 a48.623468956007216,48.623468956007216 0 0,0 -0.10418965324776466,0.8304940494989431 l -27.378008578585344 -3.6743276166397703" fill="#c7ff1e" stroke="none" /><path d="M 120.76222939487914 103.15116336523771 l 13.761807358545143 2.0886824031720765 a34.91940860651155,34.91940860651155 0 0,0 -0.09531044000316992,0.5934982008806587 l -13.723815164180683 -2.3252598337459403" fill="#ff7f0b" stroke="none" /><path d="M 120.64145759157962 103.86396538481128 l 24.75144913499726 4.633332808849746 a46.18138215428057,46.18138215428057 0 0,0 -0.15299246913094133,0.7801053040124004 l -24.668026732890652 -5.058701839930091" fill="#e5ff1a" stroke="none" /><path d="M 120.49622156327973 104.57218783832717 l 12.86516548685143 2.86989253094491 a34.18137952352661,34.18137952352661 0 0,0 -0.13304602942695498,0.5731588126332235 l -12.813858891493922 -3.0909200009266984" fill="#ff740a" stroke="none" /><path d="M 120.32669344350535 105.2749913415812 l 24.462431349780843 6.348258949384035 a46.272731139138386,46.272731139138386 0 0,0 -0.206711139099158,0.7692490470192073 l -24.349532134339906 -6.76839892957879" fill="#e4ff1a" stroke="none" /><path d="M 120.23288151984713 105.62410040840565 l 23.364206954504674 6.494509728928463 a45.250047901644876,45.250047901644876 0 0,0 -0.2150613315162317,0.7486567084040995 l -23.248952986102346 -6.895723912837144" fill="#f1ff19" stroke="none" /><path d="M 119.79798401119884 107.00284435728193 l 12.54829936019737 4.438521988821501 a34.310157560238785,34.310157560238785 0 0,0 -0.20173676475131386,0.5550929341027558 l -12.47003833444083 -4.6538627199303875" fill="#ff760a" stroke="none" /><path d="M 119.54520255179757 107.68017299344265 l 14.15552006254686 5.562328791650681 a36.2091502007046,36.2091502007046 0 0,0 -0.23294102533698116,0.5781405215319413 l -14.057676422952484 -5.805168681025435" fill="#ff920d" stroke="none" /><path d="M 119.41010516605496 108.01547362559984 l 14.118339517474881 5.830219726861184 a36.27478225030308,36.27478225030308 0 0,0 -0.2432984517818018,0.5750856708113709 l -14.01589008450077 -6.072379923338718" fill="#ff930d" stroke="none" /><path d="M 119.26925614724726 108.34839909993367 l 14.728958551876797 6.381316610138822 a37.051897760132235,37.051897760132235 0 0,0 -0.2585850449701314,0.583041011949455 l -14.616932422175394 -6.633905958580965" fill="#ff9e0e" stroke="none" /><path d="M 119.12269723197855 108.67885076344098 l 14.638036255373706 6.643483949417865 a37.075073387073786,37.075073387073786 0 0,0 -0.2687508215256514,0.5788653603707701 l -14.521510817008224 -6.894469377067466" fill="#ff9e0e" stroke="none" /><path d="M 118.81262510543309 109.33194174019688 l 19.84042925397308 9.841780658516567 a43.147308629092194,43.147308629092194 0 0,0 -0.3357709795861256,0.6625079973245129 l -19.668079604600685 -10.181842867543775" fill="#fff116" stroke="none" /><path d="M 118.64920377521936 109.65438752849418 l 24.535933783598182 12.701851294857393 a48.62877255597478,48.62877255597478 0 0,0 -0.39122424530638544,0.7400488354133812 l -24.313657030066903 -13.122315145356907" fill="#c6ff1e" stroke="none" /><line stroke="#e1ed5e" stroke-width="0.3" x1="174.80103733775053" x2="179.2010983576182" y1="140.37084112569926" y2="142.7455964860345" /><path d="M 175.68104954172406 140.8457921977663 a86.0,86.0 0 0,1 -30.038265399797805,32.042727171017184" fill="none" id="id17" stroke="none" /><text fill="#e1ed5e" style="font-size:6.75px; font-family:Arial;" text-anchor="middle"><textPath startOffset="22.206326154141568" xlink:href="#id17">May</textPath></text><path d="M 118.12598468904814 110.60418214915192 l 23.845817036657248 13.950435890241426 a48.62675608307043,48.62675608307043 0 0,0 -0.4288859609210575,0.7188375399780731 l -23.602150200037965 -14.358835524105602" fill="#c6ff1e" stroke="none" /><path d="M 117.75023020441432 111.22182372390056 l 11.755910964692948 7.4321718107546495 a34.90822132532999,34.90822132532999 0 0,0 -0.32546952207891194,0.5051359259966236 l -11.626236579236984 -7.633429336672727" fill="#ff7f0b" stroke="none" /><path d="M 117.14729908036423 112.12312394758627 l 11.600074918303907 8.201241803551593 a35.20641070892242,35.20641070892242 0 0,0 -0.3541097799832569,0.491827513080155 l -11.457185345945048 -8.399702922082879" fill="#ff830c" stroke="none" /><path d="M 116.71984013943494 112.70617746262583 l 11.203619431403236 8.514146997337479 a35.071666122246754,35.071666122246754 0 0,0 -0.36941016452595254,0.4775124346410987 l -11.055402449659216 -8.70573742609183" fill="#ff810b" stroke="none" /><path d="M 115.56566222782051 114.09645910891815 l 10.5632733488218 9.566232945223105 a35.25115983364866,35.25115983364866 0 0,0 -0.4111856296937698,0.4462607908844325 l -10.397041311132307 -9.746644990908871" fill="#ff840c" stroke="none" /><path d="M 115.07121518719521 114.62390073753431 l 9.957324551898015 9.661790641944203 a34.87438325262033,34.87438325262033 0 0,0 -0.42174650344805514,0.427226981347528 l -9.789537423394425 -9.831758117272395" fill="#ff7e0b" stroke="none" /><path d="M 113.20401910651253 116.32954008644616 l 15.768072574835795 19.50053018855264 a46.07793433199676,46.07793433199676 0 0,0 -0.6210482887492196,0.49339832114118765 l -15.430066793369225 -19.769062423698955" fill="#e7ff1a" stroke="none" /><path d="M 112.34349029814194 116.9893568818739 l 11.208743114109373 15.427511373465896 a40.069452781254995,40.069452781254995 0 0,0 -0.5614926162653738,0.4006100731517425 l -10.941523169995115 -15.618165708461857" fill="#ffc812" stroke="none" /><path d="M 112.04921762599082 117.19931262002967 l 13.897632692176606 19.837780075902177 a45.221513428902774,45.221513428902774 0 0,0 -0.6413769734158344,0.44114493070289607 l -13.554098834137887 -20.074065795970167" fill="#f2ff19" stroke="none" /><path d="M 111.45004920935366 117.60387380957326 l 10.664048940001809 16.395437993886336 a40.558433649096884,40.558433649096884 0 0,0 -0.5885187053977115,0.37562048258363134 l -10.380248432557167 -16.576572905293776" fill="#ffce13" stroke="none" /><path d="M 111.1453310114006 117.79835938074945 l 11.990493100083635 19.148027557852352 a43.59245192845226,43.59245192845226 0 0,0 -0.6393991390435352,0.39277117448060367 l -11.65911476110779 -19.351587199161337" fill="#fff717" stroke="none" /><line stroke="#e1ed5e" stroke-width="0.3" x1="143.8653032363475" x2="146.44561519142675" y1="172.8068346515853" y2="177.08958963109032" /><path d="M 144.38136562736335 173.6633856474863 a86.0,86.0 0 0,1 -40.68145358897372,12.25698825130547" fill="none" id="id18" stroke="none" /><text fill="#e1ed5e" style="font-size:6.75px; font-family:Arial;" text-anchor="middle"><textPath startOffset="21.466115282336833" xlink:href="#id18">June</textPath></text><path d="M 110.5260780823613 118.17145234162733 l 8.362368741940253 14.43618258085288 a37.68330238543615,37.68330238543615 0 0,0 -0.5640853605401511,0.3203023894382895 l -8.112634614478903 -14.577988136085798" fill="#ffa70f" stroke="none" /><path d="M 110.21172684928248 118.3499491758327 l 13.47718789572545 24.217815122726883 a48.715287530445494,48.715287530445494 0 0,0 -0.7362438559725272,0.40145885282639415 l -13.058321227884274 -24.446214627313047" fill="#c5ff1e" stroke="none" /><path d="M 109.89434966115114 118.52300852407294 l 11.810761569440809 22.11068384671303 a46.06743762372765,46.06743762372765 0 0,0 -0.702658065151103,0.3675974900160027 l -11.42841260176321 -22.31071075567375" fill="#e7ff1a" stroke="none" /><path d="M 109.2508944713604 118.85261126421891 l 7.329011171906295 14.935960949811593 a37.637227360718015,37.637227360718015 0 0,0 -0.5840712194501446,0.28038967928562303 l -7.070827284455917 -15.059904905596776" fill="#ffa60f" stroke="none" /><path d="M 108.92500713936063 119.00905698771935 l 7.046009455276111 15.00704628914706 a37.57883251524193,37.57883251524193 0 0,0 -0.5878975791882332,0.2698749440499419 l -6.786643880320458 -15.126108303531078" fill="#ffa50f" stroke="none" /><path d="M 108.59647513512805 119.15986991738527 l 7.185417894761666 16.014897967088135 a38.552982288449016,38.552982288449016 0 0,0 -0.6078140650472033,0.26644782410785856 l -6.908683155056709 -16.136210344490447" fill="#ffb310" stroke="none" /><path d="M 107.59598834532513 119.57807347666477 l 12.98954423024785 33.47954733562644 a56.911117346972325,56.911117346972325 0 0,0 -0.9163496926103737,0.3464850448189184 l -12.4113243168772 -33.69818063055199" fill="#65ff29" stroke="none" /><path d="M 106.2309692047433 120.05430185196036 l 5.525358315006591 17.783301417222475 a39.621906288159636,39.621906288159636 0 0,0 -0.6530539679388304,0.19675980345658373 l -5.218429372627515 -17.875776589784785" fill="#ffc212" stroke="none" /><path d="M 105.88484417918355 120.15858648285463 l 4.645611020584954 15.913582190575006 a37.57781046733152,37.57781046733152 0 0,0 -0.6224832872598636,0.1759199947971329 l -4.3709965652204845 -15.991190978710659" fill="#ffa50f" stroke="none" /><path d="M 104.83641907484287 120.43548508189849 l 3.817652026634262 16.13085421897579 a37.57645694442313,37.57645694442313 0 0,0 -0.6307116157198007,0.1435479103171013 l -3.5394202615215993 -16.194178862870576" fill="#ffa50f" stroke="none" /><path d="M 104.48393922423573 120.51570834832081 l 3.540446525774279 16.198874407801803 a37.58126333189372,37.58126333189372 0 0,0 -0.6331700884330963,0.13268694822861235 l -3.261084975911805 -16.257417336756955" fill="#ffa50f" stroke="none" /><path d="M 104.13013068566511 120.58985236759428 l 5.433439387158543 27.08720942370143 a48.62678370598694,48.62678370598694 0 0,0 -0.8220991911829676,0.15755726660278147 l -4.9663725814038715 -27.176723888652678" fill="#c6ff1e" stroke="none" /><path d="M 103.41894727170886 120.7198165907248 l 5.846761634726076 35.43307898418112 a56.91222226363223,56.91222226363223 0 0,0 -0.9679526054719204,0.15117429002395893 l -5.235973165645639 -35.52847158155219" fill="#65ff29" stroke="none" /><path d="M 102.70371172650421 120.8252237178851 l 2.1341708382148887 16.438359430972504 a37.576318829840645,37.576318829840645 0 0,0 -0.6421481128908502,0.07775519367611264 l -1.850895302272658 -16.47266015337397" fill="#ffa50f" stroke="none" /><path d="M 102.34483914955558 120.86867818915974 l 1.8513610387345778 16.476805130374462 a37.58048989023179,37.58048989023179 0 0,0 -0.6434628175295259,0.06669755199766311 l -1.5674656245994492 -16.506232050827883" fill="#ffa50f" stroke="none" /><path d="M 101.98527174616119 120.90594882070398 l 1.5688078743029765 16.520366641551195 a37.594688069311594,37.594688069311594 0 0,0 -0.6447590728998496,0.05563252581448903 l -1.2842044836615853 -16.54492341964435" fill="#ffa50f" stroke="none" /><path d="M 101.62511606390274 120.93702456842531 l 1.380152466458569 17.78105991335852 a38.83454267630984,38.83454267630984 0 0,0 -0.6669134408189138,0.04599425553870474 l -1.0738762648607247 -17.802182513413506" fill="#ffb710" stroke="none" /><path d="M 101.26447882468166 120.96189622390904 l 1.0061314271287627 16.67914254585972 a37.709461287359446,37.709461287359446 0 0,0 -0.6482650218303213,0.033507896881685435 l -0.7188783368849617 -16.693990249503607" fill="#ffa70f" stroke="none" /><path d="M 100.90346689309514 120.98055641714683 l 0.7202580687623118 16.726030762237954 a37.74153149341325,37.74153149341325 0 0,0 -0.6492974869143034,0.022363118289546225 l -0.432240230173356 -16.735950678953596" fill="#ffa70f" stroke="none" /><line stroke="#e1ed5e" stroke-width="0.3" x1="102.19456741930631" x2="102.32365962044197" y1="184.97166512339345" y2="189.96999836594603" /><path d="M 102.22038585953345 185.97133177190398 a86.0,86.0 0 0,1 -42.740103519485714,-10.115201625700543" fill="none" id="id19" stroke="none" /><text fill="#e1ed5e" style="font-size:6.75px; font-family:Arial;" text-anchor="middle"><textPath startOffset="22.20632615414155" xlink:href="#id19">July</textPath></text><path d="M 99.81925306533755 120.99922214144158 l -0.14270988915064248 16.580069087486752 a37.580683250647276,37.580683250647276 0 0,0 -0.6468178003885415,-0.011135555018659841 l 0.4280873794318519 -16.57515605518893" fill="#ffa50f" stroke="none" /><path d="M 99.09653310690486 120.98055641714683 l -0.7130504254926022 16.558652889943527 a37.573998504854835,37.573998504854835 0 0,0 -0.6459362751269677,-0.03338752727701563 l 0.9979747690330589 -16.54392555590431" fill="#ffa50f" stroke="none" /><path d="M 98.73552117531835 120.96189622390904 l -0.9861605882717007 16.34807598827518 a37.377792928971836,37.377792928971836 0 0,0 -0.6418963833372016,-0.04426893278433429 l 1.2674197323878325 -16.32867871097456" fill="#ffa20f" stroke="none" /><path d="M 98.37488393609728 120.93702456842531 l -1.2863228851532043 16.57221563898869 a37.622062379560795,37.622062379560795 0 0,0 -0.6452285497276664,-0.05567303425064854 l 1.5713957526224125 -16.54761835245938" fill="#ffa60f" stroke="none" /><path d="M 98.01472825383883 120.90594882070398 l -3.0256266853067606 31.86142993063281 a53.0047673646203,53.0047673646203 0 0,0 -0.9075612651819576,-0.09407243593023244 l 3.5736205470943117 -31.804628126246815" fill="#92ff23" stroke="none" /><path d="M 96.93821686468263 120.77559828337769 l -2.391481633304716 16.22729616036794 a37.402570685070245,37.402570685070245 0 0,0 -0.6361360408359289,-0.09935136678013048 l 2.6704535377491623 -16.1837264862407" fill="#ffa30f" stroke="none" /><path d="M 96.58105272829116 120.7198165907248 l -2.720799742391278 16.48883915494306 a37.71180923526175,37.71180923526175 0 0,0 -0.6395761736565865,-0.11119851592343115 l 3.0042248875199147 -16.439562060498623" fill="#ffa70f" stroke="none" /><path d="M 95.51606077576429 120.51570834832081 l -3.568922409750929 16.32916228669815 a37.71462677274451,37.71462677274451 0 0,0 -0.6330307624076632,-0.14407574055276148 l 3.849473321551455 -16.2653098125677" fill="#ffa70f" stroke="none" /><path d="M 94.46302465271185 120.25689768951611 l -4.382540452894457 16.033424027782395 a37.62159278998033,37.62159278998033 0 0,0 -0.6232085494235399,-0.17612496112903578 l 4.657880170422611 -15.95561027331484" fill="#ffa60f" stroke="none" /><path d="M 94.11515582081647 120.15858648285463 l -4.646818583597356 15.917718708497665 a37.58211964230515,37.58211964230515 0 0,0 -0.6194339105610767,-0.18663035595820254 l 4.920127468598679 -15.835372983433738" fill="#ffa50f" stroke="none" /><path d="M 93.42475214034765 119.94407469862007 l -4.350221335790162 13.195113116407603 a34.89371929416871,34.89371929416871 0 0,0 -0.568817916418393,-0.19297392070667088 l 4.576708985145781 -13.11827620880281" fill="#ff7f0b" stroke="none" /><path d="M 93.08242187328487 119.8279376855182 l -8.297053697046989 23.781945164176513 a46.18773542507503,46.18773542507503 0 0,0 -0.7484182335220224,-0.2683561510956788 l 8.705191491198738 -23.63560147204088" fill="#e5ff1a" stroke="none" /><path d="M 92.40401165467489 119.57807347666478 l -6.423542082988611 16.556183759628542 a38.75863490177422,38.75863490177422 0 0,0 -0.6199146945187813,-0.24667685053025185 l 6.7075778535492505 -16.443160064692222" fill="#ffb610" stroke="none" /><path d="M 92.06813273071674 119.44442032107085 l -6.26077812108844 15.347861630872737 a37.57571112567769,37.57571112567769 0 0,0 -0.59678914714725,-0.2494579119085843 l 6.524038727733152 -15.23781867594418" fill="#ffa50f" stroke="none" /><path d="M 91.7346041902142 119.30500536409082 l -6.525756521325879 15.241830826757663 a37.58007554648432,37.58007554648432 0 0,0 -0.592475526582908,-0.25972385960320166 l 6.78715272256653 -15.127242413860008" fill="#ffa50f" stroke="none" /><path d="M 91.40352486487194 119.15986991738527 l -7.01037616211408 15.624764013936 a38.12537954106497,38.12537954106497 0 0,0 -0.5964479691787571,-0.2738000087244453 l 7.278292127060257 -15.50177693487748" fill="#ffad10" stroke="none" /><path d="M 90.7491055286396 118.85261126421891 l -11.257546996060501 22.942014738407654 a46.55520308324363,46.55520308324363 0 0,0 -0.7163872358755086,-0.359211432023042 l 11.65078813961877 -22.74483546547531" fill="#e1ff1b" stroke="none" /><path d="M 90.42595943632237 118.69057910512821 l -11.462931309955646 22.378098672174268 a46.143152037847784,46.143152037847784 0 0,0 -0.70381292303932,-0.3682016570811633 l 11.84643513552146 -22.17746759614839" fill="#e6ff1a" stroke="none" /><path d="M 90.10565033884886 118.52300852407294 l -7.282925755542768 13.63421553412275 a36.457452597102225,36.457452597102225 0 0,0 -0.5509887519857444,-0.3004429992835116 l 7.516537319397153 -13.506831883079473" fill="#ff950d" stroke="none" /><line stroke="#e1ed5e" stroke-width="0.3" x1="58.666819895761336" x2="56.23545636021788" y1="174.27360380694188" y2="178.64263932499728" /><path d="M 58.180547188652646 175.14741091055294 a86.0,86.0 0 0,1 -31.652253787137756,-30.449443065178592" fill="none" id="id20" stroke="none" /><text fill="#e1ed5e" style="font-size:6.75px; font-family:Arial;" text-anchor="middle"><textPath startOffset="22.20632615414155" xlink:href="#id20">August</textPath></text><path d="M 89.4739219176387 118.17145234162733 l -8.312496311690085 14.35008646011722 a37.58380464021151,37.58380464021151 0 0,0 -0.5570136920488762,-0.329093507422614 l 8.558277874767343 -14.204874380400856" fill="#ffa50f" stroke="none" /><path d="M 89.1626897886671 117.98757091392108 l -8.554885149463702 14.199243196481541 a37.57723038608506,37.57723038608506 0 0,0 -0.5511699318023753,-0.3385735892235434 l 8.798034281198387 -14.049881140429619" fill="#ffa50f" stroke="none" /><path d="M 88.8546689885994 117.79835938074946 l -8.94086969909682 14.2779798929436 a37.84636046152193,37.84636046152193 0 0,0 -0.5491654647103585,-0.35050338244282314 l 9.185316965854103 -14.121962081676973" fill="#ffa90f" stroke="none" /><path d="M 88.54995079064634 117.60387380957326 l -13.616874059916894 20.935257853372978 a45.974072165965495,45.974072165965495 0 0,0 -0.6596738640742995,-0.4371958661920879 l 13.975222622731156 -20.69776396608957" fill="#e8ff1a" stroke="none" /><path d="M 87.95078237400918 117.19931262002967 l -12.199241470673416 17.41345988545784 a42.26146931992818,42.26146931992818 0 0,0 -0.5922093098003595,-0.422525618410162 l 12.497178108322661 -17.20089000520346" fill="#ffe515" stroke="none" /><path d="M 87.65650970185807 116.9893568818739 l -12.060728973681522 16.600169307078104 a41.518937701554115,41.518937701554115 0 0,0 -0.5745727289679493,-0.4250551687965501 l 12.344686673068036 -16.390104189541788" fill="#ffdb14" stroke="none" /><path d="M 87.36589467227662 116.77436683061367 l -12.340448927196368 16.38447771248288 a41.51189385784721,41.51189385784721 0 0,0 -0.567074751125907,-0.4348087378554554 l 12.620652406815761 -16.169629632800056" fill="#ffdb14" stroke="none" /><path d="M 87.07902340077011 116.55440617244103 l -13.034996796859177 16.700489299279127 a42.18531293914408,42.18531293914408 0 0,0 -0.5685827021332485,-0.4517164860520975 l 13.320536991709785 -16.4736388992219" fill="#ffe415" stroke="none" /><path d="M 86.51685102203217 116.09983520530335 l -19.5353386788286 23.32657852574824 a51.42628342427704,51.42628342427704 0 0,0 -0.6737688562548418,-0.5742004364035562 l 19.933973011660502 -22.98685369912173" fill="#a4ff21" stroke="none" /><path d="M 85.97065885151581 115.62618273729859 l -13.520211113307614 15.059102723881416 a41.237902149106745,41.237902149106745 0 0,0 -0.5241149839351598,-0.4787666111784385 l 13.777425646709629 -14.8241433461164" fill="#ffd814" stroke="none" /><path d="M 85.70375840098266 115.38237550388516 l -14.432966100657291 15.529487429088766 a42.20083701821578,42.20083701821578 0 0,0 -0.5278403639713701,-0.49910601026928253 l 14.698142299019477 -15.278746782073553" fill="#ffe515" stroke="none" /><path d="M 85.44109423537348 115.13401014063109 l -14.159746563471575 14.71908339437228 a41.42424634380008,41.42424634380008 0 0,0 -0.5096169531294087,-0.4987674487876176 l 14.411013468976778 -14.473165842662093" fill="#ffda14" stroke="none" /><path d="M 84.9287848128048 114.62390073753433 l -14.953174521487789 14.509363524916978 a41.835523947534,41.835523947534 0 0,0 -0.4970328164065937,-0.5211369208912993 l 15.20071388927334 -14.24981948744318" fill="#ffe015" stroke="none" /><path d="M 84.67929136418377 114.36230785411682 l -21.05808046916244 19.74077320469601 a49.86417987341689,49.86417987341689 0 0,0 -0.5816385701114545,-0.6312537928432357 l 21.394765447269624 -19.375368157051426" fill="#b7ff1f" stroke="none" /><path d="M 84.43433777217949 114.09645910891817 l -18.47539886737048 16.73155313555248 a45.92559394751207,45.92559394751207 0 0,0 -0.5256100038061126,-0.5905284112295662 l 18.76066772082493 -16.41105055458205" fill="#e9ff1a" stroke="none" /><path d="M 83.95833913139862 113.55231037782056 l -19.81241460151477 16.737917240186746 a46.936261216329086,46.936261216329086 0 0,0 -0.5160843078520122,-0.6216567947852334 l 20.09759490926032 -16.394399188287753" fill="#dcff1b" stroke="none" /><path d="M 83.72743513129214 113.27417163493432 l -20.452375444354132 16.6838076345632 a47.39411105727808,47.39411105727808 0 0,0 -0.510236170673011,-0.6365980753123328 l 20.736529527082006 -16.329281725672605" fill="#d6ff1c" stroke="none" /><path d="M 83.28015986056508 112.70617746262583 l -21.171458218445128 16.0891673020041 a47.591200566489015,47.591200566489015 0 0,0 -0.49005052033132074,-0.6565027548952949 l 21.445270005471535 -15.722351667599497" fill="#d3ff1c" stroke="none" /><path d="M 83.06392112726016 112.41649034213515 l -26.792363432774604 19.642511369115006 a54.221363475927504,54.221363475927504 0 0,0 -0.5453641738601458,-0.7574631385931521 l 27.126507399010357 -19.178414625070715" fill="#83ff25" stroke="none" /><path d="M 82.85270091963577 112.12312394758628 l -20.422797357810946 14.438898077464493 a46.01144597198686,46.01144597198686 0 0,0 -0.45165513013446956,-0.6506429009900802 l 20.66831339510755 -14.0852139142874" fill="#e7ff1a" stroke="none" /><path d="M 82.24976979558568 111.22182372390057 l -23.603790663017918 14.922486919091588 a48.92524931874434,48.92524931874434 0 0,0 -0.44390428610866894,-0.7157150514089224 l 23.85715958879454 -14.513975536317401" fill="#c3ff1e" stroke="none" /><path d="M 82.05923443525364 110.91462005526583 l -23.650103103790816 14.388008622829869 a48.68288584939371,48.68288584939371 0 0,0 -0.42938102311941156,-0.7196672926984408 l 23.89426500260846 -13.978779236245318" fill="#c6ff1e" stroke="none" /><line stroke="#e1ed5e" stroke-width="0.3" x1="26.63291911575756" x2="22.317208475507996" y1="142.92168965132927" y2="145.44649492493687" /><path d="M 25.769776987707644 143.4266507060508 a86.0,86.0 0 0,1 -11.730757126820373,-40.83630448921669" fill="none" id="id21" stroke="none" /><text fill="#e1ed5e" style="font-size:6.75px; font-family:Arial;" text-anchor="middle"><textPath startOffset="21.46611528233685" xlink:href="#id21">September</textPath></text><path d="M 81.69416730710424 110.29060199501025 l -21.808245917346316 12.259479407992863 a46.01788211153081,46.01788211153081 0 0,0 -0.38221924892047765,-0.6938389598763864 l 22.016041575718308 -11.882269929718655" fill="#e7ff1a" stroke="none" /><path d="M 81.51974371655577 109.97397251340807 l -32.75860134971556 17.680133025669324 a58.22516710768334,58.22516710768334 0 0,0 -0.46842837814428406,-0.8860899596055601 l 33.058082236084736 -17.11362805097764" fill="#56ff2a" stroke="none" /><path d="M 81.35079622478065 109.6543875284942 l -24.551510799223436 12.709915260868843 a48.64631310795079,48.64631310795079 0 0,0 -0.378564057052147,-0.7469427989452952 l 24.766653526061848 -12.285418250220863" fill="#c6ff1e" stroke="none" /><path d="M 80.87730276802145 108.67885076344099 l -25.157555074840687 11.4177756107787 a48.627308541400396,48.627308541400396 0 0,0 -0.3393697901078576,-0.7651892856851762 l 25.350365949679826 -10.983037988600827" fill="#c6ff1e" stroke="none" /><path d="M 80.58989483394504 108.01547362559985 l -30.76280160866191 12.703610971413735 a54.28260348180285,54.28260348180285 0 0,0 -0.3492113248425897,-0.8667138696469919 l 30.976915547761887 -12.172197733923937" fill="#83ff25" stroke="none" /><path d="M 80.32549172779594 107.34259656027581 l -23.33902200562713 8.710206137188578 a45.911395768432264,45.911395768432264 0 0,0 -0.26994969146613274,-0.7427856121356616 l 23.485495958098486 -8.3071727280468" fill="#e9ff1a" stroke="none" /><path d="M 80.20201598880116 107.00284435728193 l -26.046213407413987 9.212936957899137 a48.62758477056538,48.62758477056538 0 0,0 -0.2723357065763768,-0.7915350408294494 l 26.20093994493359 -8.763229213980392" fill="#c6ff1e" stroke="none" /><path d="M 79.86692584326677 105.97154293290107 l -26.483615024181457 7.855136423983873 a48.62399379142067,48.62399379142067 0 0,0 -0.23109679068514974,-0.8044782454257167 l 26.61490445175271 -7.39810070305356" fill="#c7ff1e" stroke="none" /><path d="M 79.76711848015287 105.62410040840567 l -43.120957531181894 11.986260811346668 a65.7558647178626,65.7558647178626 0 0,0 -0.29374686480917633,-1.0931413604708817 l 43.32089247233285 -11.242228517700246" fill="#35ff61" stroke="none" /><path d="M 79.67330655649465 105.27499134158121 l -24.617052950704835 6.388384885673797 a46.432474465244454,46.432474465244454 0 0,0 -0.1941069479681936,-0.7753607687072717 l 24.72337121296809 -5.963696277569134" fill="#e2ff1b" stroke="none" /><path d="M 79.50377843672027 104.57218783832718 l -26.961713794898728 6.014475376981053 a48.62440813516814,48.62440813516814 0 0,0 -0.17520059919060096,-0.8184788721357238 l 27.06124843281377 -5.549482685429164" fill="#c7ff1e" stroke="none" /><path d="M 79.4281124754447 104.21870165774334 l -27.063927351746994 5.5500320545490895 a48.62714280390141,48.62714280390141 0 0,0 -0.16109493257472665,-0.8214195905519193 l 27.155452217297384 -5.083348736929215" fill="#c6ff1e" stroke="none" /><path d="M 79.29508885075956 103.50808413554451 l -27.241218056420205 4.615546727431485 a48.62946312888721,48.62946312888721 0 0,0 -0.1327312149000053,-0.8265174018841851 l 27.316631025681502 -4.1459500958540865" fill="#c6ff1e" stroke="none" /><path d="M 79.23777060512086 103.15116336523772 l -38.234713508211115 5.803029443319379 a59.67258030924512,59.67258030924512 0 0,0 -0.14539067618146354,-1.0168620505845978 l 38.32893823540918 -5.144021920754381" fill="#47ff2c" stroke="none" /><path d="M 79.1416061653843 102.43462659150553 l -27.437858220704154 3.2025926716957955 a48.624131906003164,48.624131906003164 0 0,0 -0.08987985200477687,-0.8321758024846219 l 27.488920374209982 -2.7298205473263915" fill="#c7ff1e" stroke="none" /><path d="M 79.07016306316243 101.71520430193888 l -27.53357139676349 2.2563816550500895 a48.62587214974252,48.62587214974252 0 0,0 -0.06118394667353577,-0.83480634148839 l 27.568331902101363 -1.7821021770649388" fill="#c6ff1e" stroke="none" /><path d="M 79.0095281055655 100.63252640178507 l -41.41891602688321 1.248116671796646 a62.43771711941211,62.43771711941211 0 0,0 -0.023125554754572585,-1.0745536593224077 l 41.43426364432279 -0.5349731966841097" fill="#30ff37" stroke="none" /><line stroke="#e1ed5e" stroke-width="0.3" x1="15.007084014347285" x2="10.007500721073583" y1="101.09737516637583" y2="101.16192664675087" /><path d="M 14.007167355692545 101.11028546245083 a86.0,86.0 0 0,1 10.666146001902534,-42.60595125391555" fill="none" id="id22" stroke="none" /><text fill="#e1ed5e" style="font-size:6.75px; font-family:Arial;" text-anchor="middle"><textPath startOffset="22.20632615414155" xlink:href="#id22">October</textPath></text><path d="M 79.00175016825051 100.2711162175752 l -27.916983558810504 0.3604465633669085 a48.91931039169734,48.91931039169734 0 0,0 -0.003623995417714617,-0.8420889066386207 l 27.91905185151772 0.12015182147538757" fill="#c3ff1e" stroke="none" /><path d="M 79.01574976396665 99.18683210126434 l -27.60393855935295 -1.069689717891022 a48.624656741416615,48.624656741416615 0 0,0 0.039609163225253145,-0.8360868330282937 l 27.5814357878942 1.5446876575423247" fill="#c6ff1e" stroke="none" /><path d="M 79.03285615573316 98.82574320788736 l -27.58027744056699 -1.544622784747694 a48.623496578923714,48.623496578923714 0 0,0 0.05399386683425898,-0.8352612216748295 l 27.549602982728317 2.0191430706755353" fill="#c7ff1e" stroke="none" /><path d="M 79.08570108090925 98.10471618934814 l -27.51304832850007 -2.493271960987886 a48.62578928099302,48.62578928099302 0 0,0 0.08271680757558789,-0.832946963961115 l 27.466054395242253 2.9664944556534314" fill="#c6ff1e" stroke="none" /><path d="M 79.12142395522702 97.74499172005258 l -27.470668212543657 -2.96699277489678 a48.63042993096463,48.63042993096463 0 0,0 0.09705162627097294,-0.8314790654603291 l 27.415526233269095 3.439415578681971" fill="#c6ff1e" stroke="none" /><path d="M 79.21141760316559 97.0276538004421 l -27.345834408573314 -3.9099004167999336 a48.62393854558768,48.62393854558768 0 0,0 0.12559819542227038,-0.8275351807231145 l 27.274480319711742 4.38003470991514" fill="#c7ff1e" stroke="none" /><path d="M 79.26566170972629 96.67025291283419 l -27.281298687512063 -4.381129678078796 a48.630844274712096,48.630844274712096 0 0,0 0.13984410278332302,-0.825367810747964 l 27.201842723208514 4.850083277142589" fill="#c6ff1e" stroke="none" /><path d="M 79.3925641242962 95.95851677861259 l -24.867437504414838 -4.876945003695671 a46.34115310330313,46.34115310330313 0 0,0 0.16025367459394796,-0.7814538302542154 l 24.779804533905896 5.304274490113289" fill="#e3ff1b" stroke="none" /><path d="M 79.46518482838121 95.60439243477599 l -58.14989772844859 -12.447354808697861 a80.46719471744606,80.46719471744606 0 0,0 0.3015818993553807,-1.3519325205423416 l 57.927021442091174 13.446465498790161" fill="#48f5ff" stroke="none" /><path d="M 79.62865764111835 94.90015583598534 l -26.79819198227978 -6.708767668782949 a48.62518157683007,48.62518157683007 0 0,0 0.21025451669754872,-0.8101964210508751 l 26.678741133711924 7.169060515382688" fill="#c6ff1e" stroke="none" /><path d="M 79.71946130924805 94.55025226153421 l -26.79152960257081 -7.199368817960915 a48.741971267782255,48.741971267782255 0 0,0 0.2247079832093169,-0.808394173411773 l 26.663634848795134 7.6594742947916306" fill="#c5ff1e" stroke="none" /><path d="M 80.02781315780177 93.51064311812611 l -26.317690762664995 -8.55113608815667 a48.67205766612663,48.67205766612663 0 0,0 0.26575570712830626,-0.7945757382887617 l 26.16659776176492 9.002884929367752" fill="#c6ff1e" stroke="none" /><path d="M 80.14247586403 93.16781622104843 l -47.02245068168145 -16.17855391206558 a70.72782394994553,70.72782394994553 0 0,0 0.40600101324724286,-1.1478195371343916 l 46.73699658762439 16.985571075626584" fill="#3bff9d" stroke="none" /><path d="M 80.38941819471856 92.48833698450439 l -28.253316878599335 -10.822187611226099 a51.255076587824426,51.255076587824426 0 0,0 0.3226786536294434,-0.8211819772436851 l 28.0628446750882 11.306918593365548" fill="#a6ff21" stroke="none" /><path d="M 80.52162464483688 92.15188598940014 l -25.64541373148892 -10.33290134027415 a48.64879917043559,48.64879917043559 0 0,0 0.31964186878803563,-0.7740381390358279 l 25.46375017581468 10.772814049763289" fill="#c6ff1e" stroke="none" /><path d="M 80.65960295795068 91.81776055985345 l -27.992452085850783 -11.842618586644653 a51.39448944738821,51.39448944738821 0 0,0 0.3517078855467617,-0.811790291106365 l 27.78445349046134 12.322708022337617" fill="#a5ff21" stroke="none" /><path d="M 80.95270993114464 91.15688171328213 l -25.068873291671988 -11.6387691388962 a48.63891016632942,48.63891016632942 0 0,0 0.35909830865507175,-0.7563526195139855 l 24.864816789175165 12.068564174050717" fill="#c6ff1e" stroke="none" /><path d="M 81.10775173730289 90.83032412892265 l -37.27822703125772 -18.09362518276935 a62.43724752983165,62.43724752983165 0 0,0 0.4776151730674627,-0.9628430444310896 l 36.961251845236845 18.732627815699402" fill="#30ff37" stroke="none" /><path d="M 81.43458229118936 90.18545643968196 l -26.736711930452277 -14.13426985682994 a51.242839635815955,51.242839635815955 0 0,0 0.4189514542150606,-0.7762534169617887 l 26.489452377018743 14.592404257124201" fill="#a6ff21" stroke="none" /><path d="M 81.6062741919709 89.86733742301443 l -25.893246987882286 -14.263969001659914 a50.562155727480196,50.562155727480196 0 0,0 0.42650950128120374,-0.758712811570209 l 25.643879845308653 14.707565323164909" fill="#afff20" stroke="none" /><line stroke="#e1ed5e" stroke-width="0.3" x1="26.266209847984243" x2="21.928928074336255" y1="57.711370442889674" y2="55.22380399835377" /><path d="M 25.398753493254645 57.213857153982495 a86.0,86.0 0 0,1 29.58750427330803,-30.492523968695096" fill="none" id="id23" stroke="none" /><text fill="#e1ed5e" style="font-size:6.75px; font-family:Arial;" text-anchor="middle"><textPath startOffset="21.46611528233685" xlink:href="#id23">November</textPath></text><path d="M 81.78341655067845 89.55222093294921 l -26.4353339524607 -15.161488951392927 a51.47454065939848,51.47454065939848 0 0,0 0.44743711468843295,-0.7648150678742383 l 26.17043716330194 15.614283431621057" fill="#a4ff21" stroke="none" /><path d="M 82.15384107792192 88.93136811851018 l -42.881274904512715 -26.596033835596373 a71.4594168933865,71.4594168933865 0 0,0 0.6573327301027302,-1.0397425202259416 l 42.417114578164025 27.33022400353653" fill="#3cffa6" stroke="none" /><path d="M 82.7489923806493 88.02491185347247 l -25.165300638143147 -17.468932831354923 a51.63422873967154,51.63422873967154 0 0,0 0.5131148535299691,-0.7257645714170435 l 24.860873164809302 17.899523903103756" fill="#a2ff22" stroke="none" /><path d="M 82.95767976084542 87.72973835380427 l -23.905434983037793 -17.211620125179937 a50.456912415624046,50.456912415624046 0 0,0 0.513548982873519,-0.700480235501531 l 23.60562338765064 17.620562804352968" fill="#b0ff20" stroke="none" /><path d="M 83.17141714833178 87.43820079747576 l -24.370552599352557 -18.191548920429412 a51.41144991811778,51.41144991811778 0 0,0 0.5354724307169346,-0.704618951450688 l 24.053804228411515 18.608352647761127" fill="#a4ff21" stroke="none" /><path d="M 83.6137871275137 86.86637796730984 l -22.940209463079032 -18.386679264048112 a50.39937388055939,50.39937388055939 0 0,0 0.5483968061958807,-0.6722696412278869 l 22.620314164806757 18.778833074884083" fill="#b1ff20" stroke="none" /><path d="M 84.07557802195018 86.31012108654704 l -39.137498986941466 -33.64565588912081 a72.61176210092012,72.61176210092012 0 0,0 0.8229614371413793,-0.9407871859215745 l 38.55254568622224 34.31435863124533" fill="#3effb3" stroke="none" /><path d="M 84.5562425177563 85.77008943001954 l -23.123473762925215 -21.306017275396314 a52.442668636809074,52.442668636809074 0 0,0 0.6174067338140137,-0.6586064561931833 l 22.753299707140744 21.70089314846755" fill="#98ff23" stroke="none" /><path d="M 84.80347519578584 85.50635884689758 l -22.2188695562905 -21.19118195280827 a51.70414234132717,51.70414234132717 0 0,0 0.6197990638996556,-0.6387574172244347 l 21.850806228687727 21.570503565582833" fill="#a1ff22" stroke="none" /><path d="M 85.31137513191541 84.99185889309783 l -31.304746334832235 -31.98570693501595 a65.7556989803636,65.7556989803636 0 0,0 0.8157362577315205,-0.7847376336307244 l 30.749526833488286 32.51982765540899" fill="#35ff61" stroke="none" /><path d="M 86.10567301691215 84.25364557470407 l -19.44009290644894 -22.03133648274032 a50.381916197332856,50.381916197332856 0 0,0 0.655219702359532,-0.5682000692440204 l 19.057979405442634 22.36270154540402" fill="#b1ff20" stroke="none" /><path d="M 86.37877921826538 84.01681056812374 l -19.06953589637317 -22.376261973406056 a50.39973297847385,50.39973297847385 0 0,0 0.6651383873455903,-0.5570342710459374 l 18.68153997206847 22.701197401845807" fill="#b1ff20" stroke="none" /><path d="M 86.65592168130627 83.78471172551755 l -19.345445481954105 -23.507953700235596 a51.444542172081995,51.444542172081995 0 0,0 0.6886136174751181,-0.5568109887977307 l 18.93792846591449 23.837470786297462" fill="#a4ff21" stroke="none" /><path d="M 87.22198572758235 83.33499621200491 l -17.9960902489308 -23.47038481674743 a50.57563571073106,50.57563571073106 0 0,0 0.6954242541708628,-0.5237791305847284 l 17.589419841001547 23.776680536838015" fill="#afff20" stroke="none" /><path d="M 87.51073957382395 83.11751280151077 l -28.260972830428827 -38.20206287208071 a68.51926128429022,68.51926128429022 0 0,0 0.9542275658366509,-0.6932869079753644 l 27.599199948238393 38.68286901487274" fill="#38ff83" stroke="none" /><path d="M 88.09926311788651 82.69761687909137 l -17.462081053203338 -25.38797550637273 a51.813529090657966,51.813529090657966 0 0,0 0.739194765799587,-0.4991076055622223 l 17.02248159299721 25.684795024233615" fill="#a0ff22" stroke="none" /><path d="M 88.39885842347998 82.49532879139004 l -16.30134570252216 -24.59669118753511 a50.50815292572724,50.50815292572724 0 0,0 0.7288398001535802,-0.4740576800178842 l 15.87553887658429 24.873647791712532" fill="#afff20" stroke="none" /><path d="M 89.00827224532344 82.1063720568725 l -15.391112913373597 -25.055464823116544 a50.405147070107404,50.405147070107404 0 0,0 0.7432069328944557,-0.4477738612697848 l 14.957543914261493 25.316685293844948" fill="#b1ff20" stroke="none" /><line stroke="#e1ed5e" stroke-width="0.3" x1="56.762969772571076" x2="54.21961505331055" y1="26.818313649435495" y2="22.513508569990535" /><path d="M 56.25429882871897 25.957352633546506 a86.0,86.0 0 0,1 42.265352541879196,-11.944610805530505" fill="none" id="id24" stroke="none" /><text fill="#e1ed5e" style="font-size:6.75px; font-family:Arial;" text-anchor="middle"><textPath startOffset="22.20632615414155" xlink:href="#id24">December</textPath></text><path d="M 89.63071344664047 81.73862282372117 l -7.776368185985051 -13.694981981173969 a36.748791497403225,36.748791497403225 0 0,0 0.5527646661782719,-0.30761293826260455 l 7.539479430734734 13.826810316996758" fill="#ff990e" stroke="none" /><path d="M 89.94658935756843 81.56283822128135 l -28.217873927407403 -51.74935404063679 a79.94271840190466,79.94271840190466 0 0,0 1.213815797925719,-0.6483783621487824 l 27.322913082953377 52.227411129287326" fill="#48fbff" stroke="none" /><path d="M 90.58718382345135 81.22770947309562 l -12.635146124707598 -25.198689685860934 a49.18902054838067,49.18902054838067 0 0,0 0.7601547864554333,-0.37300465239768826 l 12.19952007124174 25.41244949839345" fill="#c0ff1e" stroke="none" /><path d="M 91.23893434514133 80.91482961587045 l -12.28357707742198 -26.758635385773548 a50.443349563623684,50.443349563623684 0 0,0 0.7922437471673488,-0.35545667600305847 l 11.821151211787857 26.966112392293137" fill="#b0ff20" stroke="none" /><path d="M 91.56875222667455 80.76684994638697 l -11.85238140985691 -27.037353933499706 a50.52113569648115,50.52113569648115 0 0,0 0.7994759031819302,-0.34229385879768914 l 11.385221748884673 27.23736732026018" fill="#afff20" stroke="none" /><path d="M 91.90106846888425 80.62456947434976 l -19.93741987290055 -47.6971674749897 a72.69642633998548,72.69642633998548 0 0,0 1.1586984056796796,-0.472662172861071 l 19.113437597632487 48.03329053403434" fill="#3effb4" stroke="none" /><path d="M 92.23578459929587 80.48803036053334 l -10.927740449079202 -27.462110318457686 a50.556437783765176,50.556437783765176 0 0,0 0.8113509833702531,-0.3147915764538426 l 10.453406300709272 27.646144598802078" fill="#afff20" stroke="none" /><path d="M 92.91201910852362 80.23233633223022 l -10.523563888915717 -29.349158064539132 a52.178814538423254,52.178814538423254 0 0,0 0.848074686124197,-0.29587660560575885 l 10.016807198728234 29.5259555233171" fill="#9bff22" stroke="none" /><path d="M 93.59665428221793 80.00007090966166 l -9.86214601662014 -30.802994200863512 a53.34325858338284,53.34325858338284 0 0,0 0.8768987204884633,-0.27245670098001057 l 9.330461923420948 30.96819103672605" fill="#8eff24" stroke="none" /><path d="M 93.94186890950719 79.89281104454417 l -8.499403472767323 -28.209873487846224 a50.462464621840084,50.462464621840084 0 0,0 0.8338556600744896,-0.2434253330034972 l 8.012557594969412 28.35199714976842" fill="#b0ff20" stroke="none" /><path d="M 94.28887869178378 79.79150937346287 l -14.493241616055784 -51.283543377872874 a74.29217460313981,74.29217460313981 0 0,0 1.2336113380130767,-0.3371925786172409 l 13.608332388818985 51.52542249731641" fill="#40ffc6" stroke="none" /><path d="M 94.63758080256005 79.69619591428918 l -7.060860905629307 -26.734638085137796 a48.65134047875337,48.65134047875337 0 0,0 0.811530101107952,-0.20687709224386577 l 6.599621915836355 26.852218173550526" fill="#c6ff1e" stroke="none" /><path d="M 94.98787191387505 79.60689891045804 l -7.052490543039679 -28.69482784675616 a50.54878623589532,50.54878623589532 0 0,0 0.846755507170584,-0.20039967097407432 l 6.557511348906561 28.811973429871102" fill="#afff20" stroke="none" /><path d="M 95.33964822691252 79.52364482259891 l -7.035961039732954 -30.914155042094876 a52.704727245622536,52.704727245622536 0 0,0 0.886336090395036,-0.19371873951909477 l 6.502782225184396 31.030687279709838" fill="#95ff23" stroke="none" /><path d="M 96.04723909329186 79.375362276772 l -5.979312687522171 -31.198739545506047 a52.76654733274434,52.76654733274434 0 0,0 0.8935257940037619,-0.16328612758104694 l 5.441391772415515 31.29704115443783" fill="#94ff23" stroke="none" /><path d="M 96.40284397218896 79.31037775812273 l -6.049253044754445 -34.79325316273718 a56.315208169367935,56.315208169367935 0 0,0 0.9564757144867796,-0.15782668829048332 l 5.4494481241287795 34.89222611396729" fill="#6bff28" stroke="none" /><path d="M 96.75951476605007 79.25152402106235 l -9.72145570184976 -62.24542793681294 a84.0,84.0 0 0,0 1.430524078285405,-0.2108220633561242 l 8.648562643135705 62.403544484330034" fill="#4dd2ff" stroke="none" /><path d="M 97.11714578562143 79.19881850522333 l -4.13517417984613 -29.837273143565973 a51.122458965719076,51.122458965719076 0 0,0 0.8726975515081764,-0.11330118877319903 l 3.620961899830096 29.90403265550331" fill="#a8ff21" stroke="none" /><path d="M 97.47563105711357 79.15227682838746 l -3.549498167988808 -29.31384313410396 a50.52795855685607,50.52795855685607 0 0,0 0.8643488151097029,-0.09711966048688617 l 3.044382649369387 29.370598748061443" fill="#afff20" stroke="none" /><path d="M 97.83486435360386 79.11191278185805 l -3.240419787395005 -31.26186170144262 a52.42935439105719,52.42935439105719 0 0,0 0.8984765356296507,-0.08532117322547654 l 2.7018181246751176 31.313008419183276" fill="#98ff23" stroke="none" /><path d="M 98.55514903715128 79.0497635885617 l -2.247236227237343 -32.58476579490684 a53.66216515434852,53.66216515434852 0 0,0 0.9220640823392808,-0.055621423494486295 l 1.6860100960584392 32.618620487781634" fill="#8aff24" stroke="none" /><path d="M 98.91598698831166 79.02799685794201 l -1.531479727106084 -29.628977975866903 a50.66853157891275,50.66853157891275 0 0,0 0.8714002232902559,-0.037524326653944895 l 1.021238671426504 29.650950029045042" fill="#adff20" stroke="none" /><path d="M 99.27714615592234 79.0124445844662 l -1.923717360786435 -55.85378710248932 a76.88690564143262,76.88690564143262 0 0,0 1.3230895143380164,-0.034171498661060555 l 0.9620012112535397 55.87862539329274" fill="#43ffe3" stroke="none" /><path d="M 99.63851952072746 79.00311137660856 l -0.5435775099339121 -31.57414324898458 a52.578821992226125,52.578821992226125 0 0,0 0.9050579892064401,-0.0077901198501044286 l 7.734580654724754e-15 31.578821992226125" fill="#97ff23" stroke="none" /></svg>