<?xml version="1.0" encoding="utf-8" ?>
<svg baseProfile="full" height="200mm" version="1.1" viewBox="0,0,200,200" width="200mm" xmlns="http://www.w3.org/2000/svg" xmlns:ev="http://www.w3.org/2001/xml-events" xmlns:xlink="http://www.w3.org/1999/xlink"><defs /><rect fill="#1a1a1a" height="200" width="200" x="0" y="0" /><text alignment-baseline="middle" fill="#e1ed5e" style="dominant-baseline: central; font-size:9.0px; font-family:Arial;" text-anchor="middle" x="100.0" y="100.0">2024</text><line stroke="#e1ed5e" stroke-width="0.3" x1="100.0" x2="100.0" y1="15.0" y2="10.0" /><path d="M 100.0 14.0 a86.0,86.0 0 0,1 42.35913384403234,11.155469271406648" fill="none" id="id25" stroke="none" /><text fill="#e1ed5e" style="font-size:6.75px; font-family:Arial;" text-anchor="middle"><textPath startOffset="22.145653131862478" xlink:href="#id25">January</textPath></text><path d="M 100.0 79.0 l 0.0 -26.838616752302677 a47.83861675230268,47.83861675230268 0 0,0 0.821213470179096,0.007049129966789957 l -0.46072054533024115 26.83466202053032" fill="#bcff1f" stroke="none" /><path d="M 100.72087961077811 79.0123766808444 l 0.5187057635532702 -15.101552348221238 a36.11045793466266,36.11045793466266 0 0,0 0.6193360343320296,0.026596954153157406 l -0.7778675584861361 15.09042282564225" fill="#ffaf10" stroke="none" /><path d="M 101.08105385017728 79.02784411241856 l 0.7556651988102174 -14.659702979337496 a35.67916623432985,35.67916623432985 0 0,0 0.6113975943156352,0.03678016103987058 l -1.0072071452583151 14.644570840472934" fill="#ffa90f" stroke="none" /><path d="M 101.44090949804482 79.04949213459386 l 1.0134310665357 -14.735065289883154 a35.7698744620169,35.7698744620169 0 0,0 0.6122286635545924,0.04739037056380544 l -1.266228724865526 14.715497152324296" fill="#ffaa0f" stroke="none" /><path d="M 101.80034050326958 79.07731436759882 l 2.1415347982441895 -24.887880527676806 a45.979847246370525,45.979847246370525 0 0,0 0.7858184405815616,0.07441782333542607 l -2.5684528022107638 24.847450948836197" fill="#d2ff1c" stroke="none" /><path d="M 102.15924093988457 79.11130261209362 l 1.5172298773315238 -14.677822743191776 a35.75603154581967,35.75603154581967 0 0,0 0.6100048763855502,0.06835231874741379 l -1.7689706553178706 14.64961466393739" fill="#ffaa0f" stroke="none" /><path d="M 103.23170211078529 79.25015418208739 l 2.3499472939642 -15.088347365694942 a36.27024814835316,36.27024814835316 0 0,0 0.6143877731531873,0.1010972742703898 l -2.608612570170458 15.045784092928884" fill="#ffb110" stroke="none" /><path d="M 103.58742460773223 79.30868818359171 l 2.680774657531061 -15.46199583649637 a36.69266924434119,36.69266924434119 0 0,0 0.6196959673460631,0.11292924840924655 l -2.945805358428178 15.413698414155759" fill="#ffb610" stroke="none" /><path d="M 103.94208987418118 79.37332000966035 l 2.7036676968121203 -14.146731850943905 a35.40277199282472,35.40277199282472 0 0,0 0.5959525867337974,0.11920720797237468 l -2.9461167690768746 14.098235246308672" fill="#ffa50f" stroke="none" /><path d="M 104.29559338865022 79.4440306129975 l 6.207807441669753 -29.706605859980453 a51.348299869236094,51.348299869236094 0 0,0 0.8612762407931311,0.1877111480130388 l -6.716846099082018 29.595663253833695" fill="#94ff23" stroke="none" /><path d="M 104.64783097203109 79.52079915486377 l 1.6385451766380559 -7.219732380142063 a28.403334784862537,28.403334784862537 0 0,0 0.4745627096461774,0.1119955073092318 l -1.7622400400241183 7.190540729186604" fill="#ff4406" stroke="none" /><path d="M 104.9986988182912 79.60360301121754 l 3.434515703195254 -14.013996100394161 a35.428720830945394,35.428720830945394 0 0,0 0.589457501244168,0.1498377917606399 l -3.6745784976648164 13.952973076798255" fill="#ffa60f" stroke="none" /><path d="M 105.3480935250658 79.69241777938227 l 4.111105645333517 -15.610537758729427 a37.14280269172024,37.14280269172024 0 0,0 0.6151884570282503,0.1676723495846052 l -4.3784755032964595 15.537664915000681" fill="#ffbc11" stroke="none" /><path d="M 106.04205211174951 79.88797359093562 l 4.494401207469251 -14.960399894892522 a36.62092209918484,36.62092209918484 0 0,0 0.6005122646539345,0.18604023462895322 l -4.750554104994816 14.881043072456922" fill="#ffb610" stroke="none" /><path d="M 106.38641147887787 79.99465700312896 l 4.34872443911722 -13.622317367295837 a35.299613096259115,35.299613096259115 0 0,0 0.5756816597762249,0.1892379960591421 l -4.581928836541187 13.545658449834674" fill="#ffa40f" stroke="none" /><path d="M 106.72888874123014 80.10723608172694 l 9.696923273521445 -28.66723062781762 a51.2628556623635,51.2628556623635 0 0,0 0.8311764981678152,0.2891263321743067 l -10.187605543734279 28.496545863074722" fill="#95ff23" stroke="none" /><path d="M 107.06938296918511 80.22567764915836 l 6.052447895392708 -16.929773958612447 a38.979137126574116,38.979137126574116 0 0,0 0.6281410887044834,0.2306621084329511 l -6.342178135751316 16.823381001170773" fill="#ffd413" stroke="none" /><path d="M 107.40779381753099 80.34994680014964 l 5.20473915345686 -13.806188964754295 a35.75466581749753,35.75466581749753 0 0,0 0.5724623996722507,0.22144075408622807 l -5.440973815622637 13.714808322530029" fill="#ffaa0f" stroke="none" /><path d="M 108.07796709384702 80.6158196554323 l 6.252544234909426 -15.003830004976074 a37.25451396467207,37.25451396467207 0 0,0 0.5882042915361267,0.2510694352675682 l -6.509183601615982 14.894285920049104" fill="#ffbe11" stroke="none" /><path d="M 108.4095320186766 80.7573450057729 l 5.896335042640395 -13.491968483372967 a35.72412919297432,35.72412919297432 0 0,0 0.5598253386696052,0.25040275329607875 l -6.127073784165631 13.388761979167034" fill="#ffaa0f" stroke="none" /><path d="M 108.73861861582097 80.90454125486305 l 6.1042088303388065 -13.33879792858825 a35.66918183213012,35.66918183213012 0 0,0 0.5545900207219024,0.2595761325896183 l -6.332287564932215 13.232045564428097" fill="#ffa90f" stroke="none" /><path d="M 109.06512990194946 81.05736502329252 l 13.660979665533318 -28.546193383590847 a52.64660364265778,52.64660364265778 0 0,0 0.8118601428970023,0.39712147872149506 l -14.149000057692389 28.30747815477213" fill="#85ff25" stroke="none" /><path d="M 109.3889696526874 81.21577127319529 l 11.301465125236517 -22.610500801830376 a46.277615799092075,46.277615799092075 0 0,0 0.7075467941469558,0.3612784345619418 l -11.68793914109705 22.4131644155956" fill="#cfff1d" stroke="none" /><path d="M 110.34350942703115 81.72400993836675 l 10.360135023944137 -18.305365898344576 a42.03375426277084,42.03375426277084 0 0,0 0.6249168897591517,0.36079593452359 l -10.672844381563687 18.124823066544817" fill="#fffb17" stroke="none" /><line stroke="#e1ed5e" stroke-width="0.3" x1="143.13028292997686" x2="145.6673583964461" y1="26.7553504044142" y2="22.446841604673864" /><path d="M 143.63769802327073 25.89364864446614 a86.0,86.0 0 0,1 29.32050498858742,28.57503671076993" fill="none" id="id26" stroke="none" /><text fill="#e1ed5e" style="font-size:6.75px; font-family:Arial;" text-anchor="middle"><textPath startOffset="20.669276256404974" xlink:href="#id26">February</textPath></text><path d="M 110.65571695917076 81.90426304109057 l 8.145209571420086 -13.832346565169999 a37.05235965399865,37.05235965399865 0 0,0 0.5453176505382811,0.32744758089951687 l -8.381459978515801 13.690484983734562" fill="#ffbb11" stroke="none" /><path d="M 110.96478420261332 82.08984904055464 l 7.450952047567037 -12.170570208915601 a35.27023004808568,35.27023004808568 0 0,0 0.5136619778354068,0.320563064444917 l -7.658778154192157 12.040871347629139" fill="#ffa30f" stroke="none" /><path d="M 111.27062007382361 82.28071324371311 l 3.575475140788352 -5.621240791954995 a27.662009495905444,27.662009495905444 0 0,0 0.39848358634069025,0.2582922463239278 l -3.67144435938605 5.559034703927172" fill="#ff3905" stroke="none" /><path d="M 111.5731344415666 82.4767994020092 l 11.391091769815715 -17.24756479071738 a41.669674959184945,41.669674959184945 0 0,0 0.5935025930516031,0.3993350317842802 l -11.685490650964319 17.04948008487598" fill="#fff717" stroke="none" /><path d="M 111.8722381534696 82.67804972795209 l 8.10286811263641 -11.82232673348385 a35.332615987461146,35.332615987461146 0 0,0 0.49735689178885595,0.34719373715139384 l -8.304620095599025 11.68148818052733" fill="#ffa40f" stroke="none" /><path d="M 112.16784306229584 82.88440491214696 l 9.2786266213192 -13.051550337131738 a37.01361540004433,37.01361540004433 0 0,0 0.5146989795965471,0.37260236877443115 l -9.501306611289715 12.890347196984232" fill="#ffbb11" stroke="none" /><path d="M 112.7482090630111 83.31218511350987 l 8.859366333621354 -11.597194920190265 a35.593947438927906,35.593947438927906 0 0,0 0.48236587963311184,0.3750906255666472 l -9.057142157889691 11.443403243002829" fill="#ffa80f" stroke="none" /><path d="M 113.03279911837588 83.53348406188908 l 8.854627197511455 -11.187532206206727 a35.267631186424126,35.267631186424126 0 0,0 0.4714933469992094,0.3798016650797439 l -9.045371314865923 11.033882247333574" fill="#ffa30f" stroke="none" /><path d="M 113.31354834802062 83.75963576809568 l 9.082325131531197 -11.078959895058668 a35.325919940833174,35.325919940833174 0 0,0 0.46567244328403884,0.3884805144019109 l -9.271171908977129 10.921417196744887" fill="#ffa40f" stroke="none" /><path d="M 113.59037401385872 83.9905735841838 l 19.07395552527456 -22.469071647994465 a50.473292318688465,50.473292318688465 0 0,0 0.6557214223078961,0.566396547082015 l -19.456856427345315 22.13833096844773" fill="#9eff22" stroke="none" /><path d="M 113.86319453409587 84.22622945171908 l 8.76220550243466 -9.96978140589173 a34.27300970195384,34.27300970195384 0 0,0 0.43858839728270255,0.392188449320455 l -8.932058926540739 9.817897426687889" fill="#ff960d" stroke="none" /><path d="M 114.13192950727249 84.46653392183569 l 10.890837438849845 -11.970938139205783 a37.183748022387924,37.183748022387924 0 0,0 0.4684625103660513,0.43360190585562863 l -11.09472972052986 11.782218487217781" fill="#ffbd11" stroke="none" /><path d="M 114.39649973595853 84.71141617570332 l 12.021220644248285 -12.766119741655313 a38.53520912438693,38.53520912438693 0 0,0 0.47770358085771397,0.45762922436951553 l -12.238596710971311 12.557878386980217" fill="#ffcf13" stroke="none" /><path d="M 114.91283532996326 85.21462403516908 l 23.599010577335207 -23.39731084422713 a54.23172362322736,54.23172362322736 0 0,0 0.6497817838069202,0.6667333528367182 l -23.99717916229294 22.988754799322667" fill="#74ff27" stroke="none" /><path d="M 115.6541949942343 86.00192230759917 l 9.895913861248463 -8.848987195961392 a34.27530359515511,34.27530359515511 0 0,0 0.38843538262415583,0.44196816132658506 l -10.04636030783121 8.677806756823509" fill="#ff960d" stroke="none" /><path d="M 115.8921839302757 86.27271002978787 l 2.129731011449371 -1.8396109232679556 a23.81423569200164,23.81423569200164 0 0,0 0.2645709834698548,0.31166395327321567 l -2.1609965584263375 1.8027801875451879" fill="#ff0000" stroke="none" /><path d="M 116.1254893667686 86.54754324733833 l 10.200352158256418 -8.509496558513513 a34.28377641455169,34.28377641455169 0 0,0 0.37312695943130997,0.455154220911236 l -10.344925936926355 8.333140055903783" fill="#ff960d" stroke="none" /><path d="M 116.35404254752997 86.82634096563983 l 11.195190993106879 -9.018053398057528 a35.37559002136463,35.37559002136463 0 0,0 0.3768908106495593,0.47618922720431917 l -11.348348234397998 8.824544226938531" fill="#ffa50f" stroke="none" /><path d="M 116.57777611688842 87.10902102172516 l 10.58109621319716 -8.227924414570397 a34.40366879793808,34.40366879793808 0 0,0 0.35853213753267066,0.4693300770664984 l -10.720780328084137 8.045073424263018" fill="#ff980e" stroke="none" /><path d="M 116.7966241395341 87.39550010848427 l 19.547392418479856 -14.66872769024043 a45.43915142578543,45.43915142578543 0 0,0 0.462825843895249,0.6279121455209112 l -19.79632028195893 14.331009235450646" fill="#d9ff1c" stroke="none" /><path d="M 117.01052211995028 87.68569379921539 l 11.932839499040211 -8.638455562963511 a35.73144843602113,35.73144843602113 0 0,0 0.355417146949527,0.4999387272932421 l -12.0793717445197 8.432339608960765" fill="#ffaa0f" stroke="none" /><path d="M 117.42321728460499 88.27688183743584 l 11.850517933419166 -7.973557337416177 a35.28329065388479,35.28329065388479 0 0,0 0.33380607463732015,0.505424942242856 l -11.98564844697721 7.768952516834262" fill="#ffa40f" stroke="none" /><path d="M 117.62189284568427 88.57770195909679 l 12.59326910260435 -8.16280488474728 a36.007391854584974,36.007391854584974 0 0,0 0.3317520616455347,0.5215693434595868 l -12.731538855875774 7.945421866609021" fill="#ffad10" stroke="none" /><path d="M 117.81537515405839 88.88188828441811 l 12.186178837418304 -7.605076880438987 a35.36454485930304,35.36454485930304 0 0,0 0.31698763166546895,0.5177754737801841 l -12.314934433539175 7.3947642905342486" fill="#ffa50f" stroke="none" /><line stroke="#e1ed5e" stroke-width="0.3" x1="172.87174338648825" x2="177.1583165268699" y1="56.24261187166439" y2="53.66864786411523" /><path d="M 173.72905801456457 55.72781907015455 a86.0,86.0 0 0,1 12.242430191666344,42.057860355516425" fill="none" id="id27" stroke="none" /><text fill="#e1ed5e" style="font-size:6.75px; font-family:Arial;" text-anchor="middle"><textPath startOffset="22.145653131862474" xlink:href="#id27">March</textPath></text><path d="M 118.00360718960297 89.18935116829356 l 13.730093573389759 -8.244526693189835 a37.01523305883366,37.01523305883366 0 0,0 0.3224313929587815,0.5475589954794478 l -13.869598676478308 8.00761652941683" fill="#ffbb11" stroke="none" /><path d="M 118.18653347947321 89.5 l 14.709676551589807 -8.492635716752703 a37.9852714335054,37.9852714335054 0 0,0 0.32118651558081945,0.5675057975337947 l -14.853296432192002 8.23887314911979" fill="#ffc812" stroke="none" /><path d="M 118.36410011445183 89.81374322990088 l 26.564461755550145 -14.734859139031053 a51.377404467945794,51.377404467945794 0 0,0 0.42118376685001957,0.7749306920877215 l -26.813490872015507 14.276673613468729" fill="#93ff23" stroke="none" /><path d="M 118.8641267826498 90.77261029715802 l 12.874144154964487 -6.297389037783787 a35.33180715806648,35.33180715806648 0 0,0 0.2618267641693143,0.5471172365357098 l -12.980350177093712 6.075459299182974" fill="#ffa40f" stroke="none" /><path d="M 119.0197475246899 91.09779779509293 l 13.596443979948319 -6.3638223073187135 a36.01204593847888,36.01204593847888 0 0,0 0.2572555401488277,0.5621497824583004 l -13.703683984952198 6.129483542645729" fill="#ffad10" stroke="none" /><path d="M 119.16976305983485 91.42560881287824 l 13.069416564531934 -5.845783793047634 a35.31722170996594,35.31722170996594 0 0,0 0.24279096172446477,0.5555532343303613 l -13.16784140827337 5.620568488941423" fill="#ffa40f" stroke="none" /><path d="M 119.71291397450082 92.76114493625339 l 19.409804715554174 -7.127549145360688 a41.67710027821795,41.67710027821795 0 0,0 0.24085360965838365,0.6737104125648647 l -19.529298495256498 6.7933037764149065" fill="#fff717" stroke="none" /><path d="M 119.83427380445688 93.10060997987247 l 14.27373113107169 -4.965144632296572 a36.11264575187775,36.11264575187775 0 0,0 0.19864462142546108,0.5872575264082872 l -14.356861174069516 4.719385431414123" fill="#ffaf10" stroke="none" /><path d="M 119.94978838288452 93.4421083053983 l 13.663996756227425 -4.491627135233404 a35.38330704935964,35.38330704935964 0 0,0 0.1847266154808154,0.5786534919598065 l -13.739088087485497 4.25640460958221" fill="#ffa50f" stroke="none" /><path d="M 120.05942366710727 93.78553927170692 l 20.90842088121026 -6.477482235442596 a42.888806268417284,42.888806268417284 0 0,0 0.2118373722291303,0.7051377157793787 l -21.01653457344302 6.117606916072494" fill="#f8ff18" stroke="none" /><path d="M 120.16314734710363 94.1308016681162 l 16.733663341246814 -4.870925519614319 a38.428178454325554,38.428178454325554 0 0,0 0.1789316779090957,0.6349654010710439 l -16.81481351123049 4.582952194640263" fill="#ffcd13" stroke="none" /><path d="M 120.26092885502905 94.47779374421319 l 29.425898058962762 -8.020159367126713 a51.499285776073165,51.499285776073165 0 0,0 0.2251512459660403,0.8549359539245588 l -29.559238785733534 7.513842908829356" fill="#92ff23" stroke="none" /><path d="M 120.43855184770803 95.1765574152323 l 19.291138427664155 -4.552656141882114 a40.82106706969929,40.82106706969929 0 0,0 0.1550989415137153,0.6833945539846911 l -19.366448230735536 4.220827253958397" fill="#ffec16" stroke="none" /><path d="M 120.51834098615036 95.52812308129327 l 16.54948298219807 -3.6068827891385284 a37.93797480316485,37.93797480316485 0 0,0 0.13322062422251751,0.6375089133136058 l -16.608961317244958 3.322257424539518" fill="#ffc712" stroke="none" /><path d="M 120.592083275326 95.88100663000786 l 14.160020339223822 -2.832400642343137 a35.44052178440856,35.44052178440856 0 0,0 0.11420911964790074,0.5975903741780957 l -14.20655575115388 2.588907703131727" fill="#ffa60f" stroke="none" /><path d="M 120.65975698304385 96.23510406497455 l 21.381253179870246 -3.8963765763900837 a42.73337842965867,42.73337842965867 0 0,0 0.1253210909411403,0.7228187497645535 l -21.444989088303622 3.5287647937049376" fill="#faff18" stroke="none" /><path d="M 120.7213421655516 96.59031103205396 l 24.694838839152833 -4.063526333494306 a46.02693172473871,46.02693172473871 0 0,0 0.1215954996924975,0.7807303347517429 l -24.760955830983594 3.639007816811122" fill="#d2ff1c" stroke="none" /><path d="M 120.86939407059847 97.66154086499901 l 20.712727931987434 -2.320904367395323 a41.842353405197,41.842353405197 0 0,0 0.07385694922225075,0.7144989861020491 l -20.74951727369135 1.9650008590103427" fill="#fff917" stroke="none" /><path d="M 120.9064616781168 98.02013634271609 l 16.143778943035848 -1.5288326505291785 a37.21600838168665,37.21600838168665 0 0,0 0.054771999844211834,0.6365336624472759 l -16.1676445655778 1.2514779407062406" fill="#ffbd11" stroke="none" /><path d="M 120.93736805541906 98.37931529534042 l 13.951160944799668 -1.079908090435884 a34.99289438220315,34.99289438220315 0 0,0 0.04121836163737704,0.5993059320205819 l -13.96764326760211 0.8402587342609679" fill="#ffa00e" stroke="none" /><path d="M 120.96210409425399 98.7389718711861 l 21.037661555072322 -1.265573478031015 a42.075694055809016,42.075694055809016 0 0,0 0.03718371448511184,0.7213541273020131 l -21.056286859014005 0.9042475573522712" fill="#fffc17" stroke="none" /><path d="M 120.98066250479742 99.09900007780936 l 17.50586782398982 -0.7517772874754501 a38.52200266410681,38.52200266410681 0 0,0 0.022701040022693898,0.6609160112534269 l -17.516193551009362 0.4511550116579033" fill="#ffcf13" stroke="none" /><path d="M 120.99303781780057 99.45929381324524 l 30.489240547559746 -0.785294683723239 a51.49935207356454,51.49935207356454 0 0,0 0.01517653633007784,0.8839571562148187 l -30.498228515488492 0.2617906115393538" fill="#92ff23" stroke="none" /><line stroke="#e1ed5e" stroke-width="0.3" x1="184.99686870605535" x2="189.99668451229388" y1="99.2704041080226" y2="99.22748670261217" /><path d="M 185.99683186730306 99.26182062694052 a86.0,86.0 0 0,1 -10.086455211305974,41.156179273409016" fill="none" id="id28" stroke="none" /><text fill="#e1ed5e" style="font-size:6.75px; font-family:Arial;" text-anchor="middle"><textPath startOffset="21.40746469413373" xlink:href="#id28">April</textPath></text><path d="M 120.99922638620191 100.18025310272382 l 18.52501118195677 0.15901494093779447 a39.525693645395975,39.525693645395975 0 0,0 -0.01164797422545773,0.6784361034735558 l -18.519551776132644 -0.47699796038042125" fill="#ffdc14" stroke="none" /><path d="M 120.99303781780057 100.54070618675476 l 14.601118193958325 0.376073010944436 a35.60596054436344,35.60596054436344 0 0,0 -0.020982614595926485,0.6108859299195998 l -14.592510892365551 -0.6266652054281464" fill="#ffa80f" stroke="none" /><path d="M 120.98066250479742 100.90099992219065 l 16.31092266048427 0.7004612006219313 a37.32595614136814,37.32595614136814 0 0,0 -0.03298621038083202,0.639923669051218 l -16.296494860646867 -0.9803566630498799" fill="#ffbf11" stroke="none" /><path d="M 120.96210409425399 101.26102812881392 l 17.010818607061417 1.0233286058118378 a38.041571263173466,38.041571263173466 0 0,0 -0.04480941829084595,0.6515191076334046 l -16.990745227605505 -1.3151911375995857" fill="#ffc812" stroke="none" /><path d="M 120.9064616781168 101.97986365728391 l 21.201064647430947 2.0077628647755144 a42.29592106262882,42.29592106262882 0 0,0 -0.07465755245599803,0.7222440961398479 l -21.163474702493282 -2.3714114831982935" fill="#ffff18" stroke="none" /><path d="M 120.86939407059847 102.33845913500097 l 17.345811502045326 1.9436343587046836 a38.45436596341515,38.45436596341515 0 0,0 -0.07913892719743819,0.6553838442003592 l -17.309890488588223 -2.2411118798284515" fill="#ffce13" stroke="none" /><path d="M 120.82617615685814 102.69636545807757 l 14.718917315977945 1.90565852954401 a35.841767461654264,35.841767461654264 0 0,0 -0.08423751240884203,0.6095006769204999 l -14.684035287013893 -2.1580475146645948" fill="#ffab0f" stroke="none" /><path d="M 120.77682067341334 103.0534771498775 l 15.938801399211547 2.3424549229134866 a37.11001195249059,37.11001195249059 0 0,0 -0.0980384804692969,0.6294773726734415 l -15.896241426603982 -2.6157204775183787" fill="#ffbc11" stroke="none" /><path d="M 120.7213421655516 103.40968896794604 l 14.178763501413256 2.3331101385052455 a35.36943761416586,35.36943761416586 0 0,0 -0.10372539384121128,0.598260507725349 l -14.13662329007981 -2.5761636791511826" fill="#ffa50f" stroke="none" /><path d="M 120.65975698304385 103.76489593502545 l 21.24671048195607 3.8718584149770416 a42.59661996446876,42.59661996446876 0 0,0 -0.137270057583019,0.7182549460794806 l -21.177114132090892 -4.236015926089837" fill="#fcff18" stroke="none" /><path d="M 120.51834098615036 104.47187691870673 l 29.801641265329465 6.4951290069679555 a51.50122166282106,51.50122166282106 0 0,0 -0.19567800500972665,0.8621933950878102 l -29.685752398762077 -7.005756735994782" fill="#92ff23" stroke="none" /><path d="M 120.35273937422433 105.17358676015961 l 18.42173309353536 4.6827325147497945 a40.00758359113937,40.00758359113937 0 0,0 -0.1749103343452695,0.6641630291812344 l -18.33863327838536 -4.998276048303832" fill="#ffe215" stroke="none" /><path d="M 120.26092885502905 105.52220625578681 l 15.474379181360307 4.217610857387438 a37.03884822525825,37.03884822525825 0 0,0 -0.17246259196602517,0.6120088972344633 l -15.399698097319702 -4.48262767852491" fill="#ffbb11" stroke="none" /><path d="M 120.16314734710363 105.8691983318838 l 13.587501602935653 3.9551236902444113 a35.15143820305595,35.15143820305595 0 0,0 -0.17362078702790298,0.5779271329152234 l -13.51760449590412 -4.187788426750358" fill="#ffa20f" stroke="none" /><path d="M 120.05942366710727 106.21446072829308 l 20.119809092668888 6.2331682874902645 a42.06321686793392,42.06321686793392 0 0,0 -0.21960060650661445,0.687895772143021 l -20.009843770385018 -6.577633093324669" fill="#fffc17" stroke="none" /><path d="M 119.71291397450082 107.23885506374661 l 17.15960525299733 6.301244734199578 a39.27998188289506,39.27998188289506 0 0,0 -0.23786706837280597,0.6309706591666319 l -17.048907500810085 -6.594883673560369" fill="#ffd814" stroke="none" /><path d="M 119.4528033332814 107.91128576633889 l 14.87020136331664 6.0475814396852545 a37.05291655292613,37.05291655292613 0 0,0 -0.24468009097319554,0.5871431456761412 l -14.76419542780696 -6.301957094802674" fill="#ffbb11" stroke="none" /><path d="M 118.70294669586154 109.54985784667822 l 17.086367600067497 8.724421041783687 a40.18487634255051,40.18487634255051 0 0,0 -0.3189759350258392,0.6116784139655835 l -16.934083596066706 -9.016445698853772" fill="#ffe415" stroke="none" /><path d="M 118.5362547648365 109.86951160357373 l 18.52483958249168 9.86343366193781 a41.987067569350856,41.987067569350856 0 0,0 -0.34420328276565415,0.6332952718651009 l -18.352790950110688 -10.179983767277514" fill="#fffb17" stroke="none" /><line stroke="#e1ed5e" stroke-width="0.3" x1="174.33088141563837" x2="178.70328620479359" y1="141.23008692659167" y2="143.65538615756765" /><path d="M 175.20536237346943 141.71514677278685 a86.0,86.0 0 0,1 -30.301960400862466,31.631185727798858" fill="none" id="id29" stroke="none" /><text fill="#e1ed5e" style="font-size:6.75px; font-family:Arial;" text-anchor="middle"><textPath startOffset="22.145653131862474" xlink:href="#id29">May</textPath></text><path d="M 118.36410011445183 110.18625677009912 l 17.06810312046913 9.467389084140715 a40.517981458170176,40.517981458170176 0 0,0 -0.34260198207873643,0.6053448748452461 l -16.903067773369013 -9.758990729085085" fill="#ffe815" stroke="none" /><path d="M 118.18653347947321 110.5 l 27.75037037261931 16.021683804743567 a53.04336760948715,53.04336760948715 0 0,0 -0.46204887804887906,0.7846600084601411 l -27.471247784440667 -16.49569498149726" fill="#81ff25" stroke="none" /><path d="M 118.00360718960297 110.81064883170644 l 12.461144013804082 7.48255894254087 a35.53508852609311,35.53508852609311 0 0,0 -0.31851628792970954,0.5202724189048453 l -12.330859761418967 -7.695368477570272" fill="#ffa70f" stroke="none" /><path d="M 117.81537515405839 111.11811171558189 l 14.144219505972718 8.82703907367865 a37.67259920472476,37.67259920472476 0 0,0 -0.3470943550753719,0.5456899770184958 l -13.990607459271455 -9.068542725375817" fill="#ffc312" stroke="none" /><path d="M 117.21940702142032 112.02048342749411 l 11.584459451292593 8.086852391462562 a35.12787607462445,35.12787607462445 0 0,0 -0.34941347298569914,0.4914938080024295 l -11.443930879776934 -8.284523426174495" fill="#ffa20e" stroke="none" /><path d="M 116.79662413953412 112.60449989151573 l 15.174376542735915 11.387135051534162 a39.97178294580169,39.97178294580169 0 0,0 -0.416559317110078,0.5452895178308164 l -14.976665248271534 -11.645945482605857" fill="#ffe115" stroke="none" /><path d="M 116.57777611688842 112.89097897827486 l 13.61903739487739 10.590245852267913 a38.251999500769365,38.251999500769365 0 0,0 -0.40753601825734914,0.5149084459168098 l -13.43523494597848 -10.822474242099405" fill="#ffcb12" stroke="none" /><path d="M 116.35404254752997 113.17365903436017 l 14.644411770426991 11.79650149873883 a39.80468674856266,39.80468674856266 0 0,0 -0.4332137031235261,0.5284502782478813 l -14.439751248064837 -12.046154058685206" fill="#ffdf14" stroke="none" /><path d="M 116.1254893667686 113.45245675266167 l 20.371177359112888 16.99436067900136 a47.52910028411105,47.52910028411105 0 0,0 -0.5280379756142217,0.6220274075409491 l -20.076444819991554 -17.341554868991864" fill="#c0ff1e" stroke="none" /><path d="M 115.6541949942343 113.99807769240083 l 14.470438401689963 12.9395552479423 a40.41199828847238,40.41199828847238 0 0,0 -0.46685922373130556,0.513160068579203 l -14.246181477116776 -13.186052892079175" fill="#ffe715" stroke="none" /><path d="M 115.41159269507618 114.26474011684316 l 11.586138237977096 10.72395658207118 a36.78739510000503,36.78739510000503 0 0,0 -0.432942385285978,0.45976981001867995 l -11.400340018954857 -10.921267852034358" fill="#ffb811" stroke="none" /><path d="M 115.16444852881244 114.52719865689866 l 13.941423729363331 13.35556856496664 a40.30633334673314,40.30633334673314 0 0,0 -0.48293359367873423,0.4955324112419024 l -13.710103334533791 -13.592923668276281" fill="#ffe615" stroke="none" /><path d="M 114.91283532996324 114.78537596483092 l 14.828972992351314 14.702230395028328 a41.881906488546,41.881906488546 0 0,0 -0.5105764981632871,0.5062126226917567 l -14.574404574058063 -14.954623027948747" fill="#fffa17" stroke="none" /><path d="M 114.65682725009322 115.03919595460226 l 13.897075820098793 14.259624056980098 a40.91144380992951,40.91144380992951 0 0,0 -0.5071606888904721,0.48584846751815614 l -13.65024264534301 -14.496084654803834" fill="#ffed16" stroke="none" /><path d="M 114.39649973595853 115.28858382429668 l 18.18273434364029 19.3094337697464 a47.522934617414016,47.522934617414016 0 0,0 -0.5987216037886004,0.554167778072186 l -17.848582968537723 -19.618719293950964" fill="#c0ff1e" stroke="none" /><path d="M 113.59037401385872 116.0094264158162 l 10.293849976944685 12.126129389323241 a36.90617368553647,36.90617368553647 0 0,0 -0.4865036240016849,0.40585862624319036 l -10.084172018781105 -12.3010501994783" fill="#ffb911" stroke="none" /><path d="M 113.31354834802062 116.24036423190432 l 11.355817073881775 13.85225040010741 a38.911991027318564,38.911991027318564 0 0,0 -0.5202148335649054,0.4190482458439935 l -11.116351469961616 -14.045146939744807" fill="#ffd413" stroke="none" /><path d="M 112.7482090630111 116.68781488649013 l 13.053426985006086 17.087354944008478 a42.50278249518922,42.50278249518922 0 0,0 -0.5835976331173149,0.43794254382357356 l -12.758176362978004 -17.30891651509607" fill="#fdff18" stroke="none" /><path d="M 112.45986205192187 116.90419585922612 l 5.656732281939768 7.6744437473421 a30.533924005395562,30.533924005395562 0 0,0 -0.42459455416065045,0.30737371341398606 l -5.52415671740515 -7.770418232129163" fill="#ff6209" stroke="none" /><path d="M 112.16784306229584 117.11559508785304 l 7.689616992690973 10.81640929733853 a34.27120641018868,34.27120641018868 0 0,0 -0.4824160402975777,0.3367638624454842 l -7.502805861219636 -10.946817975589136" fill="#ff960d" stroke="none" /><path d="M 111.8722381534696 117.32195027204791 l 9.991397427480184 14.57774744322327 a38.67310790642835,38.67310790642835 0 0,0 -0.5508223869351356,0.3706178843520395 l -9.739678752448045 -14.747115001632432" fill="#ffd113" stroke="none" /><path d="M 111.27062007382361 117.71928675628689 l 8.444263572327383 13.275784890597865 a36.733786948486426,36.733786948486426 0 0,0 -0.5349766540115879,0.33386499880548653 l -8.215122789526081 -13.418785686244899" fill="#ffb711" stroke="none" /><path d="M 110.96478420261333 117.91015095944535 l 7.789628853868062 12.723773319458205 a35.918871444113,35.918871444113 0 0,0 -0.5286355516571339,0.3174304598370187 l -7.570060545653491 -12.855617779831148" fill="#ffac0f" stroke="none" /><line stroke="#e1ed5e" stroke-width="0.3" x1="143.1302829299769" x2="145.66735839644613" y1="173.24464959558577" y2="177.55315839532614" /><path d="M 143.63769802327073 174.10635135553383 a86.0,86.0 0 0,1 -40.68552437913181,11.842963189579606" fill="none" id="id30" stroke="none" /><text fill="#e1ed5e" style="font-size:6.75px; font-family:Arial;" text-anchor="middle"><textPath startOffset="21.407464694133747" xlink:href="#id30">June</textPath></text><path d="M 110.34350942703117 118.27599006163325 l 13.725953049239848 24.252443842587937 a48.86723559034549,48.86723559034549 0 0,0 -0.7336038108857982,0.4069176675488302 l -13.307605050197957 -24.48449442556991" fill="#b0ff20" stroke="none" /><path d="M 109.71004243097381 118.62028667847754 l 9.031967784126872 17.319989135655053 a40.53352159014638,40.53352159014638 0 0,0 -0.619724304318133,0.31643564549532915 l -8.733316258095158 -17.472482732823217" fill="#ffe815" stroke="none" /><path d="M 109.3889696526874 118.78422872680471 l 7.003965836749946 14.012623444211442 a36.6655403108742,36.6655403108742 0 0,0 -0.5654171159497642,0.27657384482403163 l -6.762388471538112 -14.130791039132697" fill="#ffb610" stroke="none" /><path d="M 109.06512990194946 118.94263497670748 l 7.591550304758105 15.863420368573 a38.58635100922672,38.58635100922672 0 0,0 -0.5999466235727676,0.28080531291296057 l -7.31811496731383 -15.991401913056492" fill="#ffcf13" stroke="none" /><path d="M 108.4095320186766 119.2426549942271 l 10.62053841000707 24.301870308933616 a47.52125066113332,47.52125066113332 0 0,0 -0.7503038049174175,0.3202600784971513 l -10.20179952991922 -24.480605037090168" fill="#c0ff1e" stroke="none" /><path d="M 108.07796709384702 119.3841803445677 l 6.636747054264892 15.925776907303815 a38.253312191098416,38.253312191098416 0 0,0 -0.6083106167098399,0.2473946320762818 l -6.362381976364611 -16.03735879595939" fill="#ffcb12" stroke="none" /><path d="M 107.407793817531 119.65005319985036 l 6.334853459392572 16.803951426905293 a38.958372752278265,38.958372752278265 0 0,0 -0.6278064749177729,0.2305392336155887 l -6.045457832820673 -16.910221509529602" fill="#ffd413" stroke="none" /><path d="M 107.06938296918513 119.77432235084164 l 4.476108439850427 12.520471949637193 a34.29653205189052,34.29653205189052 0 0,0 -0.5560843429781728,0.19343500065178523 l -4.260518324827233 -12.595465382857569" fill="#ff960d" stroke="none" /><path d="M 106.72888874123015 119.89276391827305 l 5.792696892016544 17.125079066463034 a39.078265135664665,39.078265135664665 0 0,0 -0.6373055838637347,0.2094950039133678 l -5.497868570505075 -17.221994991778423" fill="#ffd614" stroke="none" /><path d="M 105.69591212413111 120.21278271476187 l 5.702388087774525 20.23576362513064 a42.0238759365573,42.0238759365573 0 0,0 -0.6960326502641685,0.18970679394921486 l -5.354174036575661 -20.330670913223997" fill="#fffb17" stroke="none" /><path d="M 104.9986988182912 120.39639698878246 l 4.529739830286985 18.4828842850782 a40.02985954823837,40.02985954823837 0 0,0 -0.6688186002755014,0.1578393685663863 l -4.211789076271605 -18.55791979729081" fill="#ffe215" stroke="none" /><path d="M 103.94208987418118 120.62667999033965 l 3.2633837575564058 17.075402794252604 a38.3844486290205,38.3844486290205 0 0,0 -0.6482681285955864,0.11813604797768384 l -2.9697808954097624 -17.12890701616165" fill="#ffcd13" stroke="none" /><path d="M 103.2317021107853 120.74984581791261 l 1.5936907567676117 10.232637895057932 a31.355999638836522,31.355999638836522 0 0,0 -0.5325665647498794,0.07826894508135433 l -1.4177990864100467 -10.25848791343817" fill="#ff6e0a" stroke="none" /><path d="M 102.875027216393 120.80226474461374 l 1.9666077329972167 14.229393891421418 a35.36465093528923,35.36465093528923 0 0,0 -0.6020784300217634,0.07795110679641701 l -1.722051481084678 -14.26105659441823" fill="#ffa50f" stroke="none" /><path d="M 102.51750503828377 120.84855314841334 l 2.2484532379785693 18.620418279550005 a39.75567964294486,39.75567964294486 0 0,0 -0.6782396535012905,0.07599816784735819 l -1.9284776828764796 -18.656272207904333" fill="#ffdf14" stroke="none" /><path d="M 102.15924093988457 120.88869738790638 l 1.7751152609554508 17.172629894992255 a38.26413194168936,38.26413194168936 0 0,0 -0.6539530314555092,0.06193003199124037 l -1.4800626661149263 -17.200571682488683" fill="#ffcb12" stroke="none" /><path d="M 101.80034050326958 120.92268563240118 l 1.3685651878842675 15.904801975819888 a36.96357405356122,36.96357405356122 0 0,0 -0.6326597418462628,0.048971865238750925 l -1.0953364512627688 -15.925951608053692" fill="#ffba11" stroke="none" /><line stroke="#e1ed5e" stroke-width="0.3" x1="101.45913802915013" x2="101.54496967792366" y1="184.9874750549273" y2="189.98673829345242" /><path d="M 101.47630435890484 185.9873277026323 a86.0,86.0 0 0,1 -42.54439059252881,-10.42667462771756" fill="none" id="id31" stroke="none" /><text fill="#e1ed5e" style="font-size:6.75px; font-family:Arial;" text-anchor="middle"><textPath startOffset="22.145653131862474" xlink:href="#id31">July</textPath></text><path d="M 99.63950707515114 120.99690560180557 l -0.22789825425275012 13.273930780659947 a34.27588701307913,34.27588701307913 0 0,0 -0.5882177775204388,-0.0151504033968209 l 0.4557293458439329 -13.26806265991308" fill="#ff960d" stroke="none" /><path d="M 98.91894614982273 120.97215588758144 l -0.820410192887128 15.9157385676655 a36.93686942403897,36.93686942403897 0 0,0 -0.6329495750850845,-0.038076674684669576 l 1.093504120104659 -15.899309915156138" fill="#ffba11" stroke="none" /><path d="M 98.55909050195518 120.95050786540614 l -1.2198385315324751 17.736184530724525 a38.778083354257376,38.778083354257376 0 0,0 -0.6637164514624005,-0.05137585097939906 l 1.5241239777701117 -17.712630912750072" fill="#ffd213" stroke="none" /><path d="M 97.84075906011543 120.88869738790638 l -1.6412924405152114 15.878015501509237 a36.96261936968554,36.96261936968554 0 0,0 -0.6305895001406296,-0.07065886877458735 l 1.9136178422566403 -15.847500872227679" fill="#ffba11" stroke="none" /><path d="M 97.48249496171623 120.84855314841334 l -0.7757694506078255 6.42448391401773 a27.47115227776081,27.47115227776081 0 0,0 -0.46769267607212955,-0.060552180451113116 l 0.8859399485707492 -6.41022013736622" fill="#ff3605" stroke="none" /><path d="M 97.12497278360702 120.80226474461374 l -2.178370396965809 15.761603038445164 a36.91142444685267,36.91142444685267 0 0,0 -0.6269227817357663,-0.09213605964349571 l 2.44861828430926 -15.721885905502786" fill="#ffb911" stroke="none" /><path d="M 96.41257539226777 120.69131181640829 l -3.105443263926341 17.911371506893783 a39.178586499599795,39.178586499599795 0 0,0 -0.6616801819035008,-0.12058017086938419 l 3.412458179380899 -17.855423162093032" fill="#ffd714" stroke="none" /><path d="M 95.35216902796893 120.47920084513623 l -1.8501196498278192 8.151968547126351 a29.359278312869858,29.359278312869858 0 0,0 -0.49053460711370783,-0.11576483162234784 l 1.989786410681415 -8.119007571857777" fill="#ff5107" stroke="none" /><path d="M 92.93061703081489 119.77432235084164 l -1.790719228984198 5.00896038991447 a26.319432257749494,26.319432257749494 0 0,0 -0.42413244753937884,-0.15574730958300234 l 1.8764408281776959 -4.977482231322748" fill="#ff2503" stroke="none" /><path d="M 92.25597844496254 119.51999308798841 l -6.359374865323244 16.029778911744835 a38.24515759966039,38.24515759966039 0 0,0 -0.6081809410226235,-0.2473418941032021 l 6.633610267536309 -15.918249761062341" fill="#ffcb12" stroke="none" /><path d="M 91.92203290615298 119.3841803445677 l -5.72553856217715 13.739208240097412 a35.88447630559229,35.88447630559229 0 0,0 -0.5665730328005786,-0.24183633718751277 l 5.96054667014816 -13.638897253250494" fill="#ffac0f" stroke="none" /><path d="M 91.59046798132341 119.24265499422711 l -9.25223551350829 21.17092550648181 a44.10437077261413,44.10437077261413 0 0,0 -0.691150347464427,-0.3091427593433249 l 9.614299263828354 -21.00897899622863" fill="#e9ff1a" stroke="none" /><path d="M 89.97174638481275 118.45085714620012 l -30.084760845561753 55.35257143860034 a84.0,84.0 0 0,0 -1.2610232473755896,-0.6994683382674065 l 31.030528281093442 -54.82797018489979" fill="#4dd2ff" stroke="none" /><line stroke="#e1ed5e" stroke-width="0.3" x1="58.13341422392154" x2="55.67067388415222" y1="173.97424548756322" y2="178.32567169271397" /><path d="M 57.64086615596768 174.84453072859336 a86.0,86.0 0 0,1 -31.369924170532247,-30.572349798747897" fill="none" id="id32" stroke="none" /><text fill="#e1ed5e" style="font-size:6.75px; font-family:Arial;" text-anchor="middle"><textPath startOffset="22.145653131862474" xlink:href="#id32">August</textPath></text><path d="M 87.2517909369889 116.68781488649013 l -8.060048794998318 10.550862603695013 a34.277239481902996,34.277239481902996 0 0,0 -0.46452197532887196,-0.3612150976517791 l 8.239980714962417 -10.41094645442244" fill="#ff960d" stroke="none" /><path d="M 86.68645165197938 116.24036423190432 l -8.416744525956503 10.267059778150204 a34.27607264605495,34.27607264605495 0 0,0 -0.4518331729790237,-0.3769353029027626 l 8.59175203309742 -10.121062291335571" fill="#ff960d" stroke="none" /><path d="M 86.40962598614128 116.0094264158162 l -5.1688237661886625 6.088861399747755 a28.98692508236148,28.98692508236148 0 0,0 -0.3765822848116565,-0.3252828084506664 l 5.272585530763182 -5.999234458832366" fill="#ff4c07" stroke="none" /><path d="M 86.13680546590413 115.77377054828092 l -11.567939999704835 13.162192222207418 a38.52314298095831,38.52314298095831 0 0,0 -0.4929769426508228,-0.4408230219650423 l 11.79218196917903 -12.961673670358994" fill="#ffcf13" stroke="none" /><path d="M 85.86807049272751 115.53346607816431 l -11.333166730408225 12.457135515315302 a37.84104787078766,37.84104787078766 0 0,0 -0.47674355661397166,-0.4412667186338614 l 11.545340058336164 -12.260751050549063" fill="#ffc612" stroke="none" /><path d="M 85.34317274990678 115.03919595460226 l -12.330964770723567 12.652656153467971 a38.66755217665188,38.66755217665188 0 0,0 -0.471390751715197,-0.467361795140979 l 12.546347442568726 -12.439114348098332" fill="#ffd013" stroke="none" /><path d="M 84.83555147118756 114.52719865689866 l -12.677067261991803 12.144343670125107 a38.55542985925358,38.55542985925358 0 0,0 -0.4537499794050287,-0.481866753908205 l 12.883673075133085 -11.924935456272411" fill="#ffcf13" stroke="none" /><path d="M 84.3458050057657 113.99807769240083 l -11.861462461850554 10.606592874793906 a36.912074162268055,36.912074162268055 0 0,0 -0.4183173931885572,-0.4759684039838537 l 12.041790918997703 -10.401412192998752" fill="#ffb911" stroke="none" /><path d="M 84.1078160697243 113.72728997021213 l -11.419557818165282 9.863942060406176 a36.08985267434609,36.08985267434609 0 0,0 -0.40095042053106333,-0.4723185872100996 l 11.587202802203457 -9.666456690746523" fill="#ffae10" stroke="none" /><path d="M 83.8745106332314 113.45245675266167 l -12.225595984609146 10.199026988749674 a36.92122321607657,36.92122321607657 0 0,0 -0.40183157160165917,-0.490169180454414 l 12.398874375449436 -9.987655526596765" fill="#ffba11" stroke="none" /><path d="M 83.64595745247003 113.17365903436017 l -12.50875354358741 10.076166406510517 a37.062317537201835,37.062317537201835 0 0,0 -0.39486117101400064,-0.4988941904794349 l 12.679881145242973 -9.8599522721164" fill="#ffbb11" stroke="none" /><path d="M 83.20337586046588 112.60449989151573 l -19.0899574121923 14.325459933622813 a44.86724274626519,44.86724274626519 0 0,0 -0.45700060048895996,-0.6200090840698944 l 19.333060032265095 -13.99564454028404" fill="#e0ff1b" stroke="none" /><path d="M 82.98947788004972 112.3143062007846 l -12.889444204107956 9.330963598181295 a36.91240564972489,36.91240564972489 0 0,0 -0.36716401034118606,-0.5164621617536161 l 13.047723312979102 -9.108324209718175" fill="#ffb911" stroke="none" /><path d="M 82.576782715395 111.72311816256416 l -12.230539963894165 8.229253119364119 a35.74132676223468,35.74132676223468 0 0,0 -0.3381394356287915,-0.5119862030923242 l 12.370003838443683 -8.018087037932734" fill="#ffaa0f" stroke="none" /><path d="M 82.37810715431573 111.42229804090323 l -13.352622460681363 8.655008557205804 a36.912312833236975,36.912312833236975 0 0,0 -0.34008949973342745,-0.5346771809454122 l 13.49922965204068 -8.42451770158172" fill="#ffb911" stroke="none" /><path d="M 82.18462484594161 111.11811171558189 l -14.630591282674665 9.130571034241745 a38.24591339106196,38.24591339106196 0 0,0 -0.3428145775648519,-0.559961848936492 l 14.785173824694922 -8.878072069180696" fill="#ffcb12" stroke="none" /><path d="M 81.99639281039703 110.81064883170644 l -11.370085429305131 6.827409611208624 a34.262441881830085,34.262441881830085 0 0,0 -0.2984524464446456,-0.506837502000017 l 11.485611585879546 -6.631220940915049" fill="#ff960d" stroke="none" /><line stroke="#e1ed5e" stroke-width="0.3" x1="26.387840678322732" x2="22.057713659400548" y1="142.50000000000003" y2="145.00000000000006" /><path d="M 25.521815274538298 143.00000000000003 a86.0,86.0 0 0,1 -11.493303480769221,-40.785679425670985" fill="none" id="id33" stroke="none" /><text fill="#e1ed5e" style="font-size:6.75px; font-family:Arial;" text-anchor="middle"><textPath startOffset="21.40746469413373" xlink:href="#id33">September</textPath></text><path d="M 81.81346652052679 110.50000000000001 l -20.68987169240924 11.945302991111308 a44.890605982222596,44.890605982222596 0 0,0 -0.3795749450673548,-0.6706725577652483 l 20.891880002497974 -11.588373663246939" fill="#dfff1b" stroke="none" /><path d="M 81.4637452351635 109.86951160357371 l -14.045437762465795 7.478404496084912 a36.912286314240426,36.912286314240426 0 0,0 -0.2929990611557281,-0.5618643331404378 l 14.171744892596472 -7.236193919839971" fill="#ffb911" stroke="none" /><path d="M 81.29705330413844 109.54985784667822 l -15.203496602727045 7.763013694554633 a38.070755418872814,38.070755418872814 0 0,0 -0.2922022696432693,-0.5846002778270317 l 15.33451878558205 -7.500881560563848" fill="#ffc912" stroke="none" /><path d="M 81.1358732173502 109.22738970284198 l -14.294578287437545 6.992194550838449 a36.91306862463855,36.91306862463855 0 0,0 -0.27354472049252104,-0.5716032584354903 l 14.412502265889978 -6.745778790337853" fill="#ffb911" stroke="none" /><path d="M 80.5471966667186 107.91128576633889 l -14.739244377461926 5.9943223736039 a36.91154378233713,36.91154378233713 0 0,0 -0.2336699780699909,-0.5890009892637199 l 14.83997303049804 -5.740420367126615" fill="#ffb911" stroke="none" /><path d="M 80.41425534168474 107.57618678355246 l -16.07815956354281 6.219377517384559 a38.23913778744435,38.23913778744435 0 0,0 -0.2315640478073743,-0.6142511482729363 l 16.18255429516462 -5.942458088917477" fill="#ffcb12" stroke="none" /><path d="M 80.28708602549918 107.23885506374661 l -14.939116364421318 5.485850457338561 a36.91451390995033,36.91451390995033 0 0,0 -0.21333043481057448,-0.5967231940294462 l 15.031086969275837 -5.228592306928193" fill="#ffb911" stroke="none" /><path d="M 80.16572619554312 106.89939002012753 l -18.788323333966297 6.535554151529764 a40.89257554388673,40.89257554388673 0 0,0 -0.22493755356058084,-0.6649879083179127 l 18.897746309099244 -6.2120645687376905" fill="#ffed16" stroke="none" /><path d="M 79.94057633289273 106.21446072829308 l -19.0265386255721 5.894470302148039 a40.918683495986684,40.918683495986684 0 0,0 -0.2021064968004992,-0.6727467962731941 l 19.12492144237623 -5.566985902284121" fill="#ffed16" stroke="none" /><path d="M 79.83685265289637 105.86919833188381 l -19.09697666560185 5.558851585036639 a40.889578897276984,40.889578897276984 0 0,0 -0.19039260395292276,-0.6756361843951618 l 19.189587761629348 -5.230207476738482" fill="#ffed16" stroke="none" /><path d="M 79.64726062577567 105.17358676015961 l -17.22980716212484 4.379749603975334 a38.77775186680055,38.77775186680055 0 0,0 -0.15845784780131292,-0.646562092902505 l 17.302452536442445 -4.08333168646473" fill="#ffd213" stroke="none" /><path d="M 79.48165901384964 104.47187691870673 l -15.548537637051677 3.38873140989844 a36.91353270707811,36.91353270707811 0 0,0 -0.129623257303788,-0.6202942103459925 l 15.604418605179832 -3.1213207482670384" fill="#ffb911" stroke="none" /><path d="M 79.407916724674 104.11899336999214 l -20.48331773211538 4.0972372151933225 a41.88907987711181,41.88907987711181 0 0,0 -0.1349899689606213,-0.7063245589333282 l 20.55063399335816 -3.7450100912266797" fill="#fffa17" stroke="none" /><path d="M 79.2786578344484 103.40968896794605 l -23.55213445499626 3.875494761931362 a44.86886040505452,44.86886040505452 0 0,0 -0.1185360678442283,-0.7610865875975451 l 23.615192014978756 -3.470619992402367" fill="#e0ff1b" stroke="none" /><path d="M 79.17382384314188 102.69636545807758 l -15.809793868757152 2.0468943394107257 a36.94174891940351,36.94174891940351 0 0,0 -0.07602596753409668,-0.6296040725601285 l 15.84260192255091 -1.7751965899271982" fill="#ffba11" stroke="none" /><path d="M 79.13060592940153 102.33845913500099 l -18.432086577912557 2.065353746708591 a39.54743922256405,39.54743922256405 0 0,0 -0.06980614073605569,-0.6753110885953377 l 18.464825111130278 -1.7486381358303218" fill="#ffdc14" stroke="none" /><path d="M 79.0935383218832 101.97986365728391 l -15.842782561710097 1.5003279802728706 a36.91366530206084,36.91366530206084 0 0,0 -0.05432703178260982,-0.6313624590818848 l 15.866203216190447 -1.228144473815324" fill="#ffb911" stroke="none" /><path d="M 79.06263194458094 101.62068470465958 l -19.854676005924475 1.5368774926056108 a40.91406919058761,40.91406919058761 0 0,0 -0.04819295259016897,-0.700714953761858 l 19.87813291967971 -1.1958191146894093" fill="#ffed16" stroke="none" /><path d="M 79.03789590574601 101.26102812881392 l -13.236100043809651 0.796250910499694 a34.26002865314436,34.26002865314436 0 0,0 -0.030276746522601747,-0.5873607940406372 l 13.247818379788825 -0.568918323082326" fill="#ff960d" stroke="none" /><path d="M 79.01933749520258 100.90099992219065 l -23.848444348259285 1.0241548138547265 a44.87042502585076,44.87042502585076 0 0,0 -0.02644216925139818,-0.7698349068171128 l 23.862511204507534 -0.6146136424734939" fill="#e0ff1b" stroke="none" /><path d="M 79.00696218219943 100.54070618675478 l -15.907819435647147 0.4097289997419411 a36.91309514363509,36.91309514363509 0 0,0 -0.010878057819111171,-0.6335923326500507 l 15.912508925064925 -0.13658975112283805" fill="#ffb911" stroke="none" /><line stroke="#e1ed5e" stroke-width="0.3" x1="15.003131293944662" x2="10.003315487706104" y1="100.72959589197737" y2="100.7725132973878" /><path d="M 14.003168132696942 100.73817937305945 a86.0,86.0 0 0,1 10.791469493833604,-42.45332614584628" fill="none" id="id34" stroke="none" /><text fill="#e1ed5e" style="font-size:6.75px; font-family:Arial;" text-anchor="middle"><textPath startOffset="22.145653131862435" xlink:href="#id34">October</textPath></text><path d="M 79.00077361379809 100.18025310272382 l -18.1157320671466 0.15550177197776338 a39.116399452698424,39.116399452698424 0 0,0 0.0,-0.6715097494031552 l 18.1157320671466 0.15550177197775672" fill="#ffd614" stroke="none" /><path d="M 79.03789590574601 98.7389718711861 l -15.88467008077492 -0.9555823069439242 a36.9133868525971,36.9133868525971 0 0,0 0.043480522414993665,-0.6321972532510396 l 15.865925597194865 1.228122984349289" fill="#ffb911" stroke="none" /><path d="M 79.2786578344484 96.59031103205396 l -13.088537245983275 -2.15371382305399 a34.264550142055526,34.264550142055526 0 0,0 0.100485170192618,-0.5795717587761818 l 13.049637258298421 2.378078614750765" fill="#ff960d" stroke="none" /><path d="M 79.34024301695615 96.23510406497455 l -15.655231271500956 -2.852904640859595 a36.91305536514027,36.91305536514027 0 0,0 0.1189544437977608,-0.6224199153133056 l 15.603950535421035 3.1212271212062146" fill="#ffb911" stroke="none" /><path d="M 79.407916724674 95.88100663000787 l -19.5055330079281 -3.901652885897558 a40.891925828471344,40.891925828471344 0 0,0 0.14359353425674656,-0.6871470428630859 l 19.435681762846986 4.235916380046053" fill="#ffed16" stroke="none" /><path d="M 79.48165901384962 95.52812308129327 l -15.547941689731857 -3.3886015259538174 a36.91292277015754,36.91292277015754 0 0,0 0.14025001453425906,-0.6179674419023041 l 15.487480813639936 3.6550033017951296" fill="#ffb911" stroke="none" /><path d="M 79.56144815229197 95.17655741523228 l -18.03019114319495 -4.255076016128839 a39.525481493423605,39.525481493423605 0 0,0 0.16151330155166474,-0.6590293868800912 l 17.95449031512699 4.563961227617048" fill="#ffdc14" stroke="none" /><path d="M 79.73907114497095 94.47779374421319 l -15.354676527947484 -4.184985366905724 a36.91477909991579,36.91477909991579 0 0,0 0.17188489357730805,-0.6099588494543543 l 15.280573142295594 4.447952140263091" fill="#ffb911" stroke="none" /><path d="M 79.83685265289637 94.1308016681162 l -19.946472417331954 -5.806127417681524 a41.77433217905542,41.77433217905542 0 0,0 0.2063327363334486,-0.6868145731684681 l 19.843863360994874 6.147679594440715" fill="#fff817" stroke="none" /><path d="M 80.05021161711548 93.44210830539832 l -20.319601590567824 -6.679456641390842 a42.38928118997052,42.38928118997052 0 0,0 0.23317047364332968,-0.6893270736485166 l 20.20194569535213 7.02728538951352" fill="#feff18" stroke="none" /><path d="M 80.16572619554312 93.10060997987247 l -15.030535937330715 -5.228400629413779 a36.9139304920263,36.9139304920263 0 0,0 0.21332706321533385,-0.5967137630774925 l 14.938568704071438 5.485649348872192" fill="#ffb911" stroke="none" /><path d="M 80.28708602549916 92.7611449362534 l -16.203639218634887 -5.950200764872374 a38.261599377519175,38.261599377519175 0 0,0 0.23170006804786267,-0.6146119581210084 l 16.099108466772588 6.227481003187528" fill="#ffcb12" stroke="none" /><path d="M 80.41425534168474 92.42381321644754 l -14.84235977094866 -5.7413436096059325 a36.91410286550386,36.91410286550386 0 0,0 0.23368617844650513,-0.5890418247954052 l 14.741614917536024 5.995286451614921" fill="#ffb911" stroke="none" /><path d="M 80.5471966667186 92.08871423366112 l -17.41876531219468 -7.084060210786979 a39.80418288762827,39.80418288762827 0 0,0 0.2628481640884478,-0.6307399072979547 l 17.294591303569756 7.382032627526198" fill="#ffdf14" stroke="none" /><path d="M 80.68587082218212 91.75594674310238 l -26.008270609579416 -11.101384175861773 a49.27845241029266,49.27845241029266 0 0,0 0.33876851784214657,-0.7751686654221202 l 25.81386820972029 11.54621491105976" fill="#abff21" stroke="none" /><path d="M 80.83023694016515 91.42560881287825 l -12.198748300857073 -5.4563449531590775 a34.36342622067888,34.36342622067888 0 0,0 0.2454784654242505,-0.536414748761514 l 12.103285370577776 5.664948684135262" fill="#ff970d" stroke="none" /><path d="M 81.1358732173502 90.77261029715801 l -10.779195872795817 -5.272644853777931 a32.99966030428234,32.99966030428234 0 0,0 0.25328038627748545,-0.5067304383594303 l 10.687095573306587 5.4569071483011315" fill="#ff850c" stroke="none" /><path d="M 81.29705330413844 90.45014215332179 l -15.45821949514331 -7.8930770183948376 a38.35676279662603,38.35676279662603 0 0,0 0.30446489802094173,-0.5838515871567415 l 15.320446528147427 8.157274848656066" fill="#ffcc13" stroke="none" /><path d="M 81.46374523516351 90.13048839642627 l -11.71871851950649 -6.2395575521916316 a34.27631131702387,34.27631131702387 0 0,0 0.2809917329170307,-0.5169931398088812 l 11.60988143697411 6.4398055254751325" fill="#ff960d" stroke="none" /><path d="M 81.63589988554816 89.8137432299009 l -13.916742249350014 -7.719382331378523 a36.91428849847968,36.91428849847968 0 0,0 0.3121307614907342,-0.5515051477622126 l 13.78217812283791 7.957144249239841" fill="#ffb911" stroke="none" /><line stroke="#e1ed5e" stroke-width="0.3" x1="26.387840678322718" x2="22.05771365940052" y1="57.49999999999999" y2="54.99999999999999" /><path d="M 25.521815274538284 56.99999999999999 a86.0,86.0 0 0,1 29.574782752854787,-30.34633250058573" fill="none" id="id35" stroke="none" /><text fill="#e1ed5e" style="font-size:6.75px; font-family:Arial;" text-anchor="middle"><textPath startOffset="21.40746469413373" xlink:href="#id35">November</textPath></text><path d="M 81.81346652052679 89.5 l -21.622881991087233 -12.48397673820973 a45.96795347641945,45.96795347641945 0 0,0 0.4004165324937296,-0.6799948115897668 l 21.405391748463725 12.853322718093068" fill="#d2ff1c" stroke="none" /><path d="M 81.99639281039701 89.18935116829357 l -11.370517396654705 -6.827668995190596 a34.26294574276447,34.26294574276447 0 0,0 0.3071135248054754,-0.5016468622923178 l 11.251635907393837 7.021852973607457" fill="#ff960d" stroke="none" /><path d="M 82.18462484594161 88.88188828441811 l -23.624464610458464 -14.743413174774123 a48.847505456914945,48.847505456914945 0 0,0 0.4500537197200401,-0.7075591993358322 l 23.367893199112533 15.146786048788627" fill="#b0ff20" stroke="none" /><path d="M 82.37810715431573 88.57770195909679 l -13.352377676678001 -8.654849891172214 a36.912021124274965,36.912021124274965 0 0,0 0.34921507178263006,-0.5287561278740736 l 13.201838165974642 8.882785897385348" fill="#ffb911" stroke="none" /><path d="M 82.78059297857968 87.97951657250589 l -14.34387816880223 -10.013140963541732 a38.493136736366026,38.493136736366026 0 0,0 0.38288738449752957,-0.5385790565966052 l 14.169875685774727 10.257897246847858" fill="#ffce13" stroke="none" /><path d="M 82.98947788004972 87.6856937992154 l -15.037978479095337 -10.886336723033534 a39.5648356842985,39.5648356842985 0 0,0 0.4029923070652147,-0.5467364614475028 l 14.848884152446304 11.1428794937499" fill="#ffdc14" stroke="none" /><path d="M 83.2033758604659 87.39550010848427 l -18.568083587899462 -13.933836086649823 a44.214769355236896,44.214769355236896 0 0,0 0.4607768973870947,-0.6031717498168191 l 18.326154713158058 14.250528749707525" fill="#e8ff1a" stroke="none" /><path d="M 83.42222388311158 87.10902102172516 l -12.5701525921973 -9.77462668558086 a36.92331821680374,36.92331821680374 0 0,0 0.3933802751049024,-0.49702312687533773 l 12.400505886450835 9.98896975637088" fill="#ffba11" stroke="none" /><path d="M 83.64595745247003 86.82634096563983 l -26.849631985622743 -21.628162941893954 a55.47724133402339,55.47724133402339 0 0,0 0.6037857127027239,-0.7365203953137038 l 26.47439945368139 22.08588561890615" fill="#66ff29" stroke="none" /><path d="M 83.8745106332314 86.54754324733833 l -8.159550679866754 -6.806987381621073 a31.626069099665337,31.626069099665337 0 0,0 0.3513587550405514,-0.4138997299587465 l 8.041497361319088 6.946053894029376" fill="#ff710a" stroke="none" /><path d="M 84.10781606972428 86.27271002978789 l -14.098481537914274 -12.177932564821106 a39.62979396633897,39.62979396633897 0 0,0 0.449116785789962,-0.5110124589977338 l 13.887353688165721 12.41815730163014" fill="#ffdd14" stroke="none" /><path d="M 84.58840730492382 85.73525988315684 l -13.62545379600336 -12.611516617366803 a39.56618815312237,39.56618815312237 0 0,0 0.4656453611112969,-0.49449923705853693 l 13.406952601155792 12.843557314369852" fill="#ffdc14" stroke="none" /><path d="M 85.08716467003674 85.21462403516908 l -11.300540230200527 -11.203954996640029 a36.91322773861782,36.91322773861782 0 0,0 0.45000402643659226,-0.446157861287744 l 11.106544283633957 11.396292868156445" fill="#ffb911" stroke="none" /><path d="M 85.34317274990677 84.96080404539775 l -24.997262338273416 -25.64939329768667 a56.81556227323364,56.81556227323364 0 0,0 0.7043168614645778,-0.6747196209910976 l 24.553272990943537 26.07472504898334" fill="#58ff2a" stroke="none" /><path d="M 85.86807049272753 84.46653392183569 l -10.707764936733659 -11.769709389798082 a36.911702896316406,36.911702896316406 0 0,0 0.4723554994164056,-0.42238320026669757 l 10.504144410493861 11.95178811994818" fill="#ffb911" stroke="none" /><path d="M 86.40962598614128 83.9905735841838 l -16.733163253761393 -19.71162423799041 a46.85627356323339,46.85627356323339 0 0,0 0.6176675775158963,-0.5152802612724069 l 16.39232134208359 19.9959666831747" fill="#c8ff1d" stroke="none" /><path d="M 86.68645165197937 83.75963576809568 l -10.089106479741648 -12.307069439518022 a36.91395701102285,36.91395701102285 0 0,0 0.49350309495163086,-0.397531160041902 l 9.876352614434772 12.478448893353324" fill="#ffb911" stroke="none" /><path d="M 86.96720088162412 83.53348406188908 l -24.689182253709113 -31.193975245610112 a60.78215444116371,60.78215444116371 0 0,0 0.8237141284571377,-0.640525088478636 l 24.150058180616732 31.61320138570955" fill="#30ff2f" stroke="none" /><path d="M 87.25179093698888 83.31218511350988 l -5.581458503510888 -7.306308348320704 a30.194281957127203,30.194281957127203 0 0,0 0.414591950205887,-0.3111175286165815 l 5.455213564394248 7.401044904201287" fill="#ff5d08" stroke="none" /><path d="M 87.83215693770416 82.88440491214696 l -9.219875996977384 -12.968910226452712 a36.91222001674906,36.91222001674906 0 0,0 0.519592068220239,-0.36271561717133055 l 8.99588883758338 13.12527065942917" fill="#ffb911" stroke="none" /><path d="M 88.12776184653039 82.6780497279521 l -14.103258245015537 -20.57707526045663 a45.9463007157393,45.9463007157393 0 0,0 0.6544147186804562,-0.44031942832917126 l 13.74794723823809 20.816144362842913" fill="#d3ff1c" stroke="none" /><path d="M 88.4268655584334 82.4767994020092 l -8.768812108583589 -13.277099161046387 a36.91142444685267,36.91142444685267 0 0,0 0.5317255347158186,-0.3446580674771359 l 8.539600941610745 13.425671070227429" fill="#ffb911" stroke="none" /><path d="M 88.72937992617638 82.28071324371311 l -9.96428865755661 -15.665516794034163 a39.56597600115,39.56597600115 0 0,0 0.5762235590760756,-0.35960611817363825 l 9.693900969690835 15.834258709049337" fill="#ffdc14" stroke="none" /><path d="M 89.03521579738668 82.08984904055464 l -6.923707605516692 -11.309356036784463 a34.26043969759083,34.26043969759083 0 0,0 0.5042276026887929,-0.30277418777886295 l 6.728547246270465 11.42654422509925" fill="#ff960d" stroke="none" /><line stroke="#e1ed5e" stroke-width="0.3" x1="56.869717070023135" x2="54.33264160355391" y1="26.7553504044142" y2="22.446841604673864" /><path d="M 56.362301976729285 25.89364864446614 a86.0,86.0 0 0,1 42.16139366436587,-11.88097634709845" fill="none" id="id36" stroke="none" /><text fill="#e1ed5e" style="font-size:6.75px; font-family:Arial;" text-anchor="middle"><textPath startOffset="22.145653131862474" xlink:href="#id36">December</textPath></text><path d="M 89.34428304082924 81.90426304109057 l -21.540432736348574 -36.580363974718374 a63.45130470305985,63.45130470305985 0 0,0 0.9433321548752442,-0.544633073552449 l 20.90930811361293 36.944743945546996" fill="#33ff50" stroke="none" /><path d="M 89.97174638481275 81.54914285379989 l -7.599168973673802 -13.981614999320424 a36.91329403610919,36.91329403610919 0 0,0 0.5593439527832929,-0.29781914968366785 l 7.358036205103947 14.110004616726668" fill="#ffb911" stroke="none" /><path d="M 90.28995756902619 81.37971332152246 l -7.666773271587205 -14.702048650216428 a37.5810025906534,37.5810025906534 0 0,0 0.5745827101223879,-0.293386025852393 l 7.413263339751236 14.831492627741655" fill="#ffc212" stroke="none" /><path d="M 90.93487009805054 81.0573650232925 l -8.014622427401257 -16.747478388119607 a39.56642682409129,39.56642682409129 0 0,0 0.6151849957067779,-0.28793764050218984 l 7.725948717822956 16.88259226019234" fill="#ffdc14" stroke="none" /><path d="M 91.26138138417902 80.90454125486306 l -5.518184036432664 -12.058227993266607 a34.26089052053212,34.26089052053212 0 0,0 0.5368952322161001,-0.2401464083386074 l 5.310375401360944 12.15117815251506" fill="#ff960d" stroke="none" /><path d="M 91.5904679813234 80.7573450057729 l -15.929735031800766 -36.450351183113035 a60.77919757304878,60.77919757304878 0 0,0 0.9596309559290206,-0.40960939190219225 l 15.301669000701315 36.71843522467463" fill="#30ff2f" stroke="none" /><path d="M 92.25597844496254 80.48000691201159 l -5.8684383173608134 -14.792298107390165 a36.91385093503666,36.91385093503666 0 0,0 0.591021932501833,-0.228619980088884 l 5.613644122365451 14.89085797561709" fill="#ffb911" stroke="none" /><path d="M 92.592206182469 80.34994680014964 l -8.30753941236846 -22.036735286363925 a44.55064570599567,44.55064570599567 0 0,0 0.7179248479867818,-0.26363194847606247 l 7.928025412727552 22.17609808384871" fill="#e3ff1b" stroke="none" /><path d="M 92.93061703081487 80.22567764915836 l -5.357418742755363 -14.985653719633858 a36.91451390995033,36.91451390995033 0 0,0 0.5985323292429755,-0.2082006137363457 l 5.099380641467383 15.07541276593879" fill="#ffb911" stroke="none" /><path d="M 93.27111125876988 80.10723608172694 l -5.948588425338522 -17.585944684619335 a39.56478264630541,39.56478264630541 0 0,0 0.6452399260127643,-0.21210317977381302 l 5.6458257616779965 17.685468785795177" fill="#ffdc14" stroke="none" /><path d="M 93.95794788825049 79.88797359093562 l -9.156833208078758 -30.48011965109526 a52.82585879981336,52.82585879981336 0 0,0 0.8707210528998791,-0.25345420847456557 l 8.632252142797254 30.632817553872346" fill="#83ff25" stroke="none" /><path d="M 94.6519064749342 79.69241777938228 l -4.052565244999459 -15.388250323507883 a36.91293602965581,36.91293602965581 0 0,0 0.6141516409653318,-0.15611494551207847 l 3.7878083108087495 15.455550500855225" fill="#ffb911" stroke="none" /><path d="M 95.00130118170881 79.60360301121753 l -4.065598258336756 -16.58902828282153 a38.07995751067442,38.07995751067442 0 0,0 0.6362396513069631,-0.15015082531768895 l 3.7802264532898873 16.65637525178545" fill="#ffc912" stroke="none" /><path d="M 95.70440661134978 79.44403061299748 l -3.262360600261465 -15.611576460082544 a36.948802972484856,36.948802972484856 0 0,0 0.62197770029509,-0.12441295956044233 l 2.9938864144353987 15.665278816305852" fill="#ffba11" stroke="none" /><path d="M 96.05791012581881 79.37332000966035 l -1.2484223666333483 -6.532273355304276 a27.650500251404296,27.650500251404296 0 0,0 0.4669843828148277,-0.08510011061712444 l 1.1361032502674822 6.552741639852762" fill="#ff3905" stroke="none" /><path d="M 96.41257539226777 79.30868818359171 l -9.601517042926282 -55.37899879973596 a77.20518336939006,77.20518336939006 0 0,0 1.3077914574002287,-0.21519658664219415 l 8.649448082472981 55.53566138487382" fill="#44ffea" stroke="none" /><path d="M 98.1996594967304 79.07731436759882 l -0.6828872413955904 -7.936184876221755 a28.965510992650238,28.965510992650238 0 0,0 0.49576679680656055,-0.03837548552118332 l 0.5465514498138127 7.946738128737992" fill="#ff4c07" stroke="none" /><path d="M 98.5590905019552 79.04949213459386 l -0.9121333587524296 -13.262218850505361 a34.293548664779046,34.293548664779046 0 0,0 0.5876536748781076,-0.03535178580786046 l 0.6843353317418382 13.275922614137915" fill="#ff960d" stroke="none" /><path d="M 98.9189461498227 79.02784411241856 l -1.418522390866192 -27.518955421500586 a48.555491526443966,48.555491526443966 0 0,0 0.8327827251995372,-0.03576327346359675 l 0.9459139050658347 27.53925126339001" fill="#b4ff20" stroke="none" /><path d="M 99.63950707515114 79.00309439819443 l -0.2731491807478175 -15.909570391088995 a36.911915048288776,36.911915048288776 0 0,0 0.6336421055966658,-0.005439055394217124 l 3.89729516643829e-15 15.911915048288776" fill="#ffb911" stroke="none" /></svg>