<?xml version="1.0" encoding="utf-8" ?>
<svg baseProfile="full" height="200mm" version="1.1" viewBox="0,0,200,200" width="200mm" xmlns="http://www.w3.org/2000/svg" xmlns:ev="http://www.w3.org/2001/xml-events" xmlns:xlink="http://www.w3.org/1999/xlink"><defs /><rect fill="#1a1a1a" height="200" width="200" x="0" y="0" /><text alignment-baseline="middle" fill="#e1ed5e" style="dominant-baseline: central; font-size:9.0px; font-family:Arial;" text-anchor="middle" x="100.0" y="100.0">2025</text><line stroke="#e1ed5e" stroke-width="0.3" x1="100.0" x2="100.0" y1="15.0" y2="10.0" /><path d="M 100.0 14.0 a86.0,86.0 0 0,1 42.46469731375804,11.215312516191453" fill="none" id="id37" stroke="none" /><text fill="#e1ed5e" style="font-size:6.75px; font-family:Arial;" text-anchor="middle"><textPath startOffset="22.20632615414155" xlink:href="#id37">January</textPath></text><path d="M 100.0 79.0 l 0.0 -52.497896739070654 a73.49789673907065,73.49789673907065 0 0,0 1.2651454732743839,0.010889506509153315 l -0.9036649940018555 52.49011860917006" fill="#40ffc4" stroke="none" /><path d="M 100.72285384407766 79.0124445844662 l 0.8675240662776031 -25.187954058046486 a46.20288927158613,46.20288927158613 0 0,0 0.7945998585968539,0.03421714139638358 l -1.3009647572637886 25.16928919012591" fill="#ccff1d" stroke="none" /><path d="M 101.08401301168833 79.027996857942 l 1.083963514053693 -20.97104552942981 a41.99904110899394,41.99904110899394 0 0,0 0.7216594259271566,0.04353246733833362 l -1.4447849888204616 20.94927979271117" fill="#feff18" stroke="none" /><path d="M 101.44485096284872 79.0497635885617 l 3.851854151595571 -55.85161180859919 a76.98427745379608,76.98427745379608 0 0,0 1.32123280281903,0.10255309416097369 l -4.812677143776942 55.777033452249746" fill="#44ffe8" stroke="none" /><path d="M 102.16513564639614 79.11191278185805 l 2.5983329359956087 -25.06734627882854 a46.201650412403126,46.201650412403126 0 0,0 0.7903414848066113,0.08880407461815593 l -3.029441124311945 25.018906250739782" fill="#ccff1d" stroke="none" /><path d="M 102.52436894288641 79.15227682838746 l 3.057226219396097 -25.248371904816874 a46.4327921392935,46.4327921392935 0 0,0 0.7926415283901609,0.10290761934922912 l -3.491382476294104 25.192005962303508" fill="#c9ff1d" stroke="none" /><path d="M 102.88285421437855 79.19881850522331 l 4.3240694558651525 -31.200243529088876 a52.49845667542456,52.49845667542456 0 0,0 0.8940512660359109,0.13175991618244165 l -4.860489702329719 31.121189128745467" fill="#84ff25" stroke="none" /><path d="M 103.2404852339499 79.25152402106235 l 3.2424627853226853 -20.761138026190753 a42.01281554329991,42.01281554329991 0 0,0 0.713559251055704,0.11774339043578202 l -3.5993512425172645 20.702248372815347" fill="#feff18" stroke="none" /><path d="M 103.95276090670814 79.375362276772 l 11.857515971662226 -61.8699124447148 a83.99592646302537,83.99592646302537 0 0,0 1.4176656098297802,0.28437038462623004 l -12.920747990959132 61.656638104011364" fill="#4dd2ff" stroke="none" /><path d="M 104.66035177308747 79.52364482259891 l 6.990241080571655 -30.713273613381922 a52.49870864678382,52.49870864678382 0 0,0 0.8794191508092523,0.20813010010334662 l -7.517883918343431 30.588397601137707" fill="#84ff25" stroke="none" /><path d="M 105.36241919743992 79.69619591428918 l 8.04278967293583 -30.452528944366765 a52.49671387352304,52.49671387352304 0 0,0 0.8717007112626851,0.23826873307322777 l -8.565788273422227 30.30957367046724" fill="#84ff25" stroke="none" /><path d="M 105.71112130821622 79.79150937346287 l 5.710535033068515 -20.206416123967927 a41.997844245037484,41.997844245037484 0 0,0 0.6939839422645655,0.202592943039729 l -6.057509193056508 20.105124852009492" fill="#ffff18" stroke="none" /><path d="M 106.40334571778207 80.00007090966166 l 19.208263628173082 -59.994247920296544 a83.99418366112386,83.99418366112386 0 0,0 1.373173622980433,0.4527137539280153 l -20.238120073395933 59.654720442109294" fill="#4dd2ff" stroke="none" /><path d="M 107.08798089147638 80.2323363322302 l 8.505028522402208 -23.71966655804805 a46.198374784732806,46.198374784732806 0 0,0 0.7462526308363767,0.27485114182205733 l -8.912063479011161 23.569752148419667" fill="#ccff1d" stroke="none" /><path d="M 107.4271985657038 80.35727306442388 l 8.917841182762949 -23.58503245311424 a46.214710927857865,46.214710927857865 0 0,0 0.7416731241600933,0.2877576495907949 l -9.32249747192271 23.4280320996329" fill="#cbff1d" stroke="none" /><path d="M 108.09893153111575 80.62456947434976 l 9.728901896044427 -23.274880402860592 a46.226406598449984,46.226406598449984 0 0,0 0.7315136062692321,0.3131959500672107 l -10.128099260103973 23.103964924830592" fill="#cbff1d" stroke="none" /><path d="M 108.76106565485865 80.91482961587045 l 10.52053737977182 -22.918016635818553 a46.21739862235659,46.21739862235659 0 0,0 0.7201590402993819,0.3381243256990314 l -10.9134746313708 22.733527327479518" fill="#cbff1d" stroke="none" /><path d="M 109.08828744355905 81.06846463323043 l 9.089871654931356 -18.93483538933261 a42.00366058391363,42.00366058391363 0 0,0 0.6491140357248265,0.31851743825886647 l -9.414456957666614 18.77556279093891" fill="#feff18" stroke="none" /><path d="M 109.73455568895987 81.39251694778311 l 22.6615627090771 -43.31729742161024 a69.88695818241993,69.88695818241993 0 0,0 1.0611334666444463,0.5668207485023057 l -23.403841222249856 42.92079794660618" fill="#3bff9c" stroke="none" /><path d="M 110.36928655335952 81.73862282372117 l 6.227168636738448 -10.966682676826213 a33.61133451164385,33.61133451164385 0 0,0 0.5006540600687178,0.29001114657534355 l -6.415019429272494 10.85786737286082" fill="#ff930d" stroke="none" /><line stroke="#e1ed5e" stroke-width="0.3" x1="143.23703022742887" x2="145.7803849466894" y1="26.81831364943548" y2="22.513508569990506" /><path d="M 143.74570117128098 25.957352633546492 a86.0,86.0 0 0,1 28.547481713284135,27.462654790039103" fill="none" id="id38" stroke="none" /><text fill="#e1ed5e" style="font-size:6.75px; font-family:Arial;" text-anchor="middle"><textPath startOffset="19.985693538727396" xlink:href="#id38">February</textPath></text><path d="M 110.99172775467656 82.1063720568725 l 13.192047195551114 -21.475566862083028 a46.20377117134352,46.20377117134352 0 0,0 0.6740928845273436,0.42211690244962247 l -13.559759232450721 21.24530561831046" fill="#ccff1d" stroke="none" /><path d="M 111.2981086023043 82.29822771554956 l 13.570197498316364 -21.261660196930862 a46.223172966006196,46.223172966006196 0 0,0 0.6670069324560245,0.4338398628742877 l -13.93417145655667 21.024921409897043" fill="#cbff1d" stroke="none" /><path d="M 111.90073688211348 82.69761687909136 l 14.30103705581842 -20.792159730712235 a46.235561557836256,46.235561557836256 0 0,0 0.6518528581494542,0.4566645843055401 l -14.656821053551523 20.54291030364276" fill="#cbff1d" stroke="none" /><path d="M 112.19680574252982 82.90503203632743 l 14.635222965564175 -20.512638556267717 a46.198374784732806,46.198374784732806 0 0,0 0.643377670601816,0.467441239261241 l -14.98614595251978 20.257678082189802" fill="#ccff1d" stroke="none" /><path d="M 112.48926042617603 83.11751280151076 l 18.734571226597176 -25.32465078871388 a52.50114436992328,52.50114436992328 0 0,0 0.7219003509000841,0.5437203777341332 l -19.167717731255642 24.998413821473896" fill="#84ff25" stroke="none" /><path d="M 112.77801427241765 83.33499621200491 l 12.778721242181824 -16.66592581340114 a42.00116186793434,42.00116186793434 0 0,0 0.569950656087639,0.4448555274839074 l -13.063704453428892 16.44349189669401" fill="#feff18" stroke="none" /><path d="M 113.06298171725822 83.55741782278167 l 39.188945151774654 -49.32774653165496 a84.0,84.0 0 0,0 1.1243864057420354,0.9091756109434814 l -40.032234956081176 48.64586482344735" fill="#4dd2ff" stroke="none" /><path d="M 114.16331599549186 84.49514656593476 l 19.311809034716127 -21.141007425467112 a49.63368930398245,49.63368930398245 0 0,0 0.6258385536128852,0.5816487292336309 l -19.67285547212386 20.80545411015884" fill="#a4ff21" stroke="none" /><path d="M 114.42810811169701 84.74124197986012 l 17.313392154678116 -18.31015260981081 a46.19950865584945,46.19950865584945 0 0,0 0.573130768653424,0.5513513453536811 l -17.626006166943956 18.00941817769483" fill="#ccff1d" stroke="none" /><path d="M 114.68862486808459 84.99185889309783 l 14.69174339829198 -15.011327473346894 a42.00445849321794,42.00445849321794 0 0,0 0.5123827856819089,0.5101824511654777 l -14.947961984141212 14.756209171531298" fill="#feff18" stroke="none" /><path d="M 114.94478906791727 85.2469230424477 l 39.433396332555745 -38.92754378452604 a76.41070664967748,76.41070664967748 0 0,0 0.9159669285439191,0.9439844356306336 l -40.097627524802775 38.242995153345284" fill="#43ffe2" stroke="none" /><path d="M 115.4437574822437 85.77008943001954 l 18.533583742048428 -17.076882973189356 a46.20146143388368,46.20146143388368 0 0,0 0.5338608776078498,0.5895025150134551 l -18.824788260272314 16.75532767090635" fill="#ccff1d" stroke="none" /><path d="M 115.68641384162765 86.03803664274999 l 24.96147857074639 -22.217394789284754 a54.41688261434284,54.41688261434284 0 0,0 0.6167457533782252,0.7050470113949024 l -25.340216187702463 21.784432221686906" fill="#6fff27" stroke="none" /><path d="M 116.15771136456269 86.58626213691792 l 24.233974028909735 -20.118454134381796 a52.49662988306996,52.49662988306996 0 0,0 0.5712170994851495,0.7002446224986822 l -24.576689620471292 19.698325342275012" fill="#84ff25" stroke="none" /><path d="M 116.60985879189232 87.15038557335679 l 49.8276166350967 -38.547327197755294 a83.99752228163399,83.99752228163399 0 0,0 0.8748704325978319,1.1512269381393507 l -50.48376300791865 37.683915483734914" fill="#4dd2ff" stroke="none" /><path d="M 117.04232023915458 87.72973835380427 l 20.452617832230253 -14.725634105533226 a46.20225934318799,46.20225934318799 0 0,0 0.4591346886414988,0.6494134563289002 l -20.703065140675633 14.371394148872534" fill="#ccff1d" stroke="none" /><path d="M 117.45458315368197 88.32363383020206 l 22.695796542086583 -15.182512730745751 a48.30582123831924,48.30582123831924 0 0,0 0.4563827364514832,0.6951022182354144 l -22.95377591389599 14.789592448532662" fill="#b3ff20" stroke="none" /><line stroke="#e1ed5e" stroke-width="0.3" x1="172.23445277983987" x2="176.4835382374775" y1="55.19839476539836" y2="52.563006222186495" /><path d="M 173.08426987136738 54.67131705675599 a86.0,86.0 0 0,1 12.851231095245387,41.99856678651699" fill="none" id="id39" stroke="none" /><text fill="#e1ed5e" style="font-size:6.75px; font-family:Arial;" text-anchor="middle"><textPath startOffset="22.20632615414155" xlink:href="#id39">March</textPath></text><path d="M 117.84615892207809 88.93136811851018 l 17.84461243075602 -11.06767270908602 a41.998180206849824,41.998180206849824 0 0,0 0.3757521219807281,0.6176376911681766 l -18.032480351022972 10.75886724471076" fill="#feff18" stroke="none" /><path d="M 118.03404312379186 89.2402003453031 l 48.32664414536718 -28.833523654048413 a77.27465344772477,77.27465344772477 0 0,0 0.6717019235971583,1.148156322805151 l -48.815805743434666 27.997387918889366" fill="#44ffeb" stroke="none" /><path d="M 118.3937258080291 89.86733742301442 l 22.07110263196919 -12.158441307967143 a46.19843777757262,46.19843777757262 0 0,0 0.37770940929375835,0.699838171303714 l -22.27712014048141 11.776722153330969" fill="#ccff1d" stroke="none" /><path d="M 118.56541770881063 90.18545643968196 l 31.565939416997896 -16.68722418690646 a56.705349491941085,56.705349491941085 0 0,0 0.4487568654723522,0.8668554276511231 l -31.848505715630367 16.14139603699499" fill="#57ff2a" stroke="none" /><path d="M 119.04729006885535 91.15688171328212 l 22.857730811090512 -10.612198197104291 a46.2010834768448,46.2010834768448 0 0,0 0.32868261072493365,0.7242085642013304 l -23.03701573877879 10.217167624060897" fill="#ccff1d" stroke="none" /><path d="M 119.196687751892 91.48605970444005 l 50.248011163663115 -22.285540742615503 a75.96824494282484,75.96824494282484 0 0,0 0.5198734550109865,1.1999396110375946 l -50.62417532851678 21.417301986991305" fill="#43ffde" stroke="none" /><path d="M 119.7369772167798 92.82701384747503 l 24.291069694690744 -8.828074564624934 a46.845521225754005,46.845521225754005 0 0,0 0.2689087267439676,0.7602411821437797 l -24.43943150224452 8.40863575605454" fill="#c4ff1e" stroke="none" /><path d="M 119.85752413597 93.16781622104841 l 32.988335226361926 -11.349973304069088 a55.886274593454544,55.886274593454544 0 0,0 0.30514626123330807,0.912348481338359 l -33.178818781367 10.780451719808415" fill="#60ff29" stroke="none" /><path d="M 120.28053869075195 94.5502522615342 l 24.339801722070963 -6.540545170530871 a46.20326722862501,46.20326722862501 0 0,0 0.19978219733027547,0.7698423026008357 l -24.448780251271543 6.120606442381185" fill="#ccff1d" stroke="none" /><path d="M 120.37134235888165 94.90015583598534 l 30.560201291060412 -7.650564280923673 a52.50328612647696,52.50328612647696 0 0,0 0.2119312639069724,0.8785919110121817 l -30.687365355228206 7.1233871382520855" fill="#84ff25" stroke="none" /><path d="M 120.45610955862082 95.25157060432595 l 24.549102768095263 -5.69852644205852 a46.201818393309296,46.201818393309296 0 0,0 0.17315916372694967,0.7762385778879778 l -24.643556318824253 5.275109694620578" fill="#ccff1d" stroke="none" /><path d="M 120.6074358757038 95.95851677861258 l 20.607545769537204 -4.041504773514853 a42.000111987270785,42.000111987270785 0 0,0 0.13302890688276942,0.7106457399097484 l -20.674060400329832 3.6861809561425414" fill="#feff18" stroke="none" /><path d="M 120.67395015179393 96.31383870115 l 55.41214754514347 -9.879975150726066 a77.28605515173109,77.28605515173109 0 0,0 0.22224576195516277,1.3117070676706148 l -55.574005168618854 8.924682294739613" fill="#44ffeb" stroke="none" /><path d="M 120.78858239683441 97.02765380044208 l 24.949346136008813 -3.56725113589819 a46.20307825010558,46.20307825010558 0 0,0 0.10579185038614022,0.7882721655792321 l -25.00705398545279 3.137260628254294" fill="#ccff1d" stroke="none" /><path d="M 120.83666639777658 97.38593545837742 l 25.05313945314317 -3.1430422818390715 a46.24952497066167,46.24952497066167 0 0,0 0.09230006025105382,0.7907705495341502 l -25.103529866397814 2.7113279939800683" fill="#cbff1d" stroke="none" /><path d="M 120.87857604477298 97.74499172005257 l 25.056600161792254 -2.706259311506988 a46.202322336027805,46.202322336027805 0 0,0 0.0785942739999562,0.791433613454773 l -25.09947156147444 2.2745501673477797" fill="#ccff1d" stroke="none" /><path d="M 120.91429891909075 98.10471618934814 l 20.94500459112557 -1.8980664027592022 a42.03083149548668,42.03083149548668 0 0,0 0.059094380733337226,0.7211011255242492 l -20.974573455678403 1.5372513600271842" fill="#feff18" stroke="none" /><path d="M 120.96714384426684 98.82574320788733 l 2.76007366015656 -0.15457685921567835 a23.76439878000534,23.76439878000534 0 0,0 0.019358243601247133,0.4086219265353268 l -2.7623255119913037 0.10704382605735178" fill="#ff0701" stroke="none" /><path d="M 120.98425023603335 99.18683210126433 l 16.79310865497858 -0.650755529723897 a37.80571275065068,37.80571275065068 0 0,0 0.019601911988152376,0.6504920292707354 l -16.80182226142238 0.3615933530281627" fill="#ffca12" stroke="none" /><line stroke="#e1ed5e" stroke-width="0.3" x1="184.98032266829074" x2="189.97916517819016" y1="98.17113171792111" y2="98.06355123074" /><path d="M 185.9800911702706 98.14961562048488 a86.0,86.0 0 0,1 -9.607161424134198,41.387399972396054" fill="none" id="id40" stroke="none" /><text fill="#e1ed5e" style="font-size:6.75px; font-family:Arial;" text-anchor="middle"><textPath startOffset="21.466115282336823" xlink:href="#id40">April</textPath></text><path d="M 120.99513854157772 99.54816195383933 l 20.998882249082868 -0.4519186147875987 a42.00374457436671,42.00374457436671 0 0,0 0.009334817950374451,0.7229919375868157 l -21.003550074150958 0.09039041914032035" fill="#feff18" stroke="none" /><path d="M 120.99980553446 99.90962569577887 l 27.297022429748093 -0.1174748692481405 a48.297275209717824,48.297275209717824 0 0,0 -0.0035779143787322354,0.8313812960429114 l -27.295000218079856 -0.3524159049984556" fill="#b3ff20" stroke="none" /><path d="M 120.99824983174949 100.27111621757518 l 31.498288067677873 0.4066861185778605 a52.500913396177296,52.500913396177296 0 0,0 -0.019445181589300923,0.9035411800809364 l -31.486620823403566 -0.9488171144489117" fill="#84ff25" stroke="none" /><path d="M 120.95626037817324 101.35467743843564 l 54.48402374283607 3.5220156835083998 a75.59774205665289,75.59774205665289 0 0,0 -0.09512154773059524,1.2978579443624412 l -54.41532563644114 -4.459346764367611" fill="#42ffda" stroke="none" /><path d="M 120.92983693683757 101.71520430193887 l 12.557081805741792 1.0290553527963107 a33.599176893559765,33.599176893559765 0 0,0 -0.052199367186207095,0.5760156671966828 l -12.53750784227851 -1.2450524085415642" fill="#ff930d" stroke="none" /><path d="M 120.89721153311464 102.0752229133903 l 31.343717368605063 3.1126258338862693 a52.49788973986624,52.49788973986624 0 0,0 -0.09704034551205473,0.8984730793235522 l -31.285494721591956 -3.651695235094613" fill="#84ff25" stroke="none" /><path d="M 120.8583938346157 102.4346265915055 l 20.86253027921703 2.4351094042331103 a42.00416452663214,42.00416452663214 0 0,0 -0.0900059051926441,0.7174356219854361 l -20.817522864777537 -2.7938627805059415" fill="#feff18" stroke="none" /><path d="M 120.81339534386255 102.79330883721812 l 31.21983287792103 4.1899283434350805 a52.49973752983411,52.49973752983411 0 0,0 -0.12791423295682436,0.8946318473757703 l -31.143084593947602 -4.72670566279126" fill="#84ff25" stroke="none" /><path d="M 120.76222939487914 103.15116336523771 l 20.75986968969109 3.1508052237106097 a41.9976132712915,41.9976132712915 0 0,0 -0.11462997684397616,0.7138009752302972 l -20.702557958485826 -3.5076854286341117" fill="#ffff18" stroke="none" /><path d="M 120.70491114924044 103.5080841355445 l 20.707216034026477 3.5084746578555532 a42.00233773427753,42.00233773427753 0 0,0 -0.12691417901480234,0.7118021154761891 l -20.643755412672487 -3.864395524064961" fill="#feff18" stroke="none" /><path d="M 120.64145759157962 103.86396538481128 l 55.31965066760367 10.355529125359357 a77.28055377705401,77.28055377705401 0 0,0 -0.25601968123559243,1.3054388389046376 l -55.133201053392405 -11.30623169133194" fill="#44ffeb" stroke="none" /><path d="M 120.5718875245553 104.21870165774334 l 12.341894227856134 2.530967057670374 a33.59873594368106,33.59873594368106 0 0,0 -0.12106098346772541,0.5655566114845951 l -12.296499205663965 -2.7430374885711384" fill="#ff930d" stroke="none" /><path d="M 120.49622156327973 104.57218783832717 l 20.495777528951095 4.572088785516339 a41.99954505171245,41.99954505171245 0 0,0 -0.163477097319106,0.7042550566575687 l -20.414039865701437 -4.924212499522473" fill="#feff18" stroke="none" /><path d="M 120.41448212921028 104.9243191809786 l 30.62516264310347 7.387308424945953 a52.50353809783621,52.50353809783621 0 0,0 -0.21948650497467817,0.8767394830499696 l -30.49346482383373 -7.913375747393318" fill="#84ff25" stroke="none" /><path d="M 120.32669344350535 105.2749913415812 l 30.487916267209584 7.911935838426718 a52.497805749413146,52.497805749413146 0 0,0 -0.23452000691372166,0.8727361893099506 l -30.347208183954084 -8.435562960912216" fill="#84ff25" stroke="none" /><path d="M 120.23288151984713 105.62410040840565 l 20.235052935645996 5.624703993242018 a42.002253743824454,42.002253743824454 0 0,0 -0.1996254376672418,0.6949223369167377 l -20.135234861092655 -5.972183805663337" fill="#feff18" stroke="none" /><path d="M 119.9155931802556 106.66101706037122 l 29.876028286568452 9.992408075008269 a52.50278218375845,52.50278218375845 0 0,0 -0.2940385040857323,0.8546135292459709 l -29.69959895153949 -10.50519430734354" fill="#84ff25" stroke="none" /><path d="M 119.79798401119884 107.00284435728193 l 19.796149606524462 7.002195500791503 a41.99805422117019,41.99805422117019 0 0,0 -0.24694003720483554,0.6794729258618346 l -19.6726853083144 -7.341916223659468" fill="#feff18" stroke="none" /><path d="M 119.67450827220406 107.3425965602758 l 29.515411614797447 11.015256737273342 a52.50389505726182,52.50389505726182 0 0,0 -0.3232882845012457,0.8440036962284464 l -29.321429050702694 -11.521684000334933" fill="#84ff25" stroke="none" /><path d="M 119.54520255179757 107.68017299344265 l 19.5449354643883 7.680068043007772 a41.99971303261863,41.99971303261863 0 0,0 -0.27019292536411904,0.6705966823932119 l -19.40983992476679 -8.015364093243798" fill="#feff18" stroke="none" /><path d="M 119.26925614724726 108.34839909993367 l 51.36815619816185 22.255237342477763 a76.9819887139495,76.9819887139495 0 0,0 -0.537256988625992,1.2113726776488456 l -50.977458124804585 -23.136158356619294" fill="#44ffe8" stroke="none" /><path d="M 118.97047184881838 109.00673069616215 l 18.972925084326384 9.007895434273623 a42.00271569131642,42.00271569131642 0 0,0 -0.3157138992958255,0.6504641439174629 l -18.815057928415843 -9.333148534156361" fill="#feff18" stroke="none" /><path d="M 118.81262510543309 109.33194174019688 l 28.21890944241916 13.997898613973621 a52.49996850358009,52.49996850358009 0 0,0 -0.40855308043019223,0.8061139871295525 l -27.973777692202702 -14.481566812805868" fill="#84ff25" stroke="none" /><path d="M 118.64920377521936 109.65438752849418 l 18.66724172135804 9.663725477949823 a42.02031169123776,42.02031169123776 0 0,0 -0.3380583935163248,0.6394790799009596 l -18.49813081961682 -9.983619572936917" fill="#feff18" stroke="none" /><line stroke="#e1ed5e" stroke-width="0.3" x1="174.80103733775053" x2="179.2010983576182" y1="140.37084112569926" y2="142.7455964860345" /><path d="M 175.68104954172406 140.8457921977663 a86.0,86.0 0 0,1 -30.038265399797805,32.042727171017184" fill="none" id="id41" stroke="none" /><text fill="#e1ed5e" style="font-size:6.75px; font-family:Arial;" text-anchor="middle"><textPath startOffset="22.206326154141568" xlink:href="#id41">May</textPath></text><path d="M 118.12598468904814 110.60418214915192 l 9.857457600148555 5.7668743360836725 a32.420433877349275,32.420433877349275 0 0,0 -0.2859468748688648,0.4792634099137297 l -9.756729849581463 -5.935699839883506" fill="#ff830c" stroke="none" /><path d="M 117.55443506779139 111.5257021239791 l 17.554598890564154 11.52580968497282 a42.00019597772386,42.00019597772386 0 0,0 -0.4019956649363629,0.6009289755917986 l -17.35360012021707 -11.826275574770426" fill="#feff18" stroke="none" /><path d="M 117.14729908036423 112.12312394758627 l 30.8655395458509 21.821906754514238 a58.800491344150544,58.800491344150544 0 0,0 -0.5914215233394309,0.8214327687302578 l -30.485338230135866 -22.34997312869563" fill="#42ff2d" stroke="none" /><path d="M 116.93607887273984 112.41649034213515 l 20.323101597931934 14.899646878659725 a46.199760627208704,46.199760627208704 0 0,0 -0.4757227484294081,0.6373083630216673 l -20.06361758280743 -15.247268121190709" fill="#ccff1d" stroke="none" /><path d="M 116.71984013943494 112.70617746262583 l 6.129950293069822 4.658431875620353 a28.699173860571182,28.699173860571182 0 0,0 -0.3022886480681788,0.39074882654795323 l -6.0488548277835745 -4.76325869628156" fill="#ff4f07" stroke="none" /><path d="M 116.27256486870786 113.27417163493432 l 16.271057115744608 13.272941701498585 a41.99805422117019,41.99805422117019 0 0,0 -0.46178660554076445,0.5562517145116183 l -16.0401745103103 -13.551054673123975" fill="#feff18" stroke="none" /><path d="M 116.0416608686014 113.55231037782055 l 19.250147024763347 16.26290254077769 a46.200201577087405,46.200201577087405 0 0,0 -0.5184487409990747,0.6030730131253976 l -18.967355774193493 -16.591852653064617" fill="#ccff1d" stroke="none" /><path d="M 115.80600337817218 113.82643327865902 l 21.744123329819438 19.020853230859444 a49.889440233626786,49.889440233626786 0 0,0 -0.5709754979119207,0.6414970247737377 l -21.413488982259178 -19.39232442537405" fill="#a1ff22" stroke="none" /><path d="M 115.56566222782051 114.09645910891815 l 18.679473259125167 16.916365466466704 a46.200915495938624,46.200915495938624 0 0,0 -0.5389085811722036,0.5848788291249928 l -18.38551826995724 -17.23539555039303" fill="#ccff1d" stroke="none" /><path d="M 115.32070863581623 114.36230785411682 l 22.97886468190535 21.541401024237544 a52.49698684249557,52.49698684249557 0 0,0 -0.6236978233117784,0.653944674231362 l -22.604660307214605 -21.933752815051413" fill="#84ff25" stroke="none" /><path d="M 115.07121518719521 114.62390073753431 l 1.647322642514546 1.5984300209111886 a23.295354094751232,23.295354094751232 0 0,0 -0.2817177888101425,0.28537863271243824 l -1.6195642286488678 -1.6265491476042913" fill="#ff0000" stroke="none" /><path d="M 114.55890576462653 115.13401014063108 l 14.57094946369534 15.146529588643507 a42.017372025379785,42.017372025379785 0 0,0 -0.5255456173398763,0.4969361840983432 l -14.308068011964657 -15.395100409487771" fill="#feff18" stroke="none" /><path d="M 114.29624159901734 115.38237550388516 l 17.15504106785399 18.458367652966874 a46.19934067494328,46.19934067494328 0 0,0 -0.5871726114512476,0.5363682588324699 l -16.834768906935878 -18.75092867838593" fill="#ccff1d" stroke="none" /><path d="M 114.0293411484842 115.62618273729858 l 19.137844353784892 21.31614378074564 a49.64672882182392,49.64672882182392 0 0,0 -0.6408155000156328,0.5654451724231906 l -18.768086500862672 -21.642412094941122" fill="#a4ff21" stroke="none" /><path d="M 113.75828350139079 115.86535959552629 l 13.75788914208926 15.864904840241733 a41.99939806841956,41.99939806841956 0 0,0 -0.5502611605526427,0.46894449868389837 l -13.48276250495957 -16.099373729148578" fill="#feff18" stroke="none" /><path d="M 113.48314897796784 116.09983520530334 l 20.222559667492664 24.147169078088517 a52.49662988306996,52.49662988306996 0 0,0 -0.6977798833856307,0.5742253394137753 l -19.803909655562343 -24.491689536359473" fill="#84ff25" stroke="none" /><path d="M 113.20401910651253 116.32954008644616 l 13.205726632228213 16.331651800265867 a42.00271569131642,42.00271569131642 0 0,0 -0.5661216172357362,0.4497612513648477 l -12.922647522275126 -16.556546965635842" fill="#feff18" stroke="none" /><path d="M 112.92097659922987 116.55440617244103 l 19.400721425640764 24.856280796730086 a52.531296942580866,52.531296942580866 0 0,0 -0.7176057118001913,0.5502294595310417 l -18.969986985347077 -25.1865495980885" fill="#84ff25" stroke="none" /><path d="M 112.04921762599082 117.19931262002967 l 15.863100511943275 22.64333115200329 a48.64703245397773,48.64703245397773 0 0,0 -0.6899611285687824,0.4745615556310726 l -15.470982498751608 -22.91303349699946" fill="#afff20" stroke="none" /><path d="M 111.7513745106137 117.40417183066458 l 9.544403866530047 14.13557578003471 a38.056088291297556,38.056088291297556 0 0,0 -0.546060108054941,0.3618988638712204 l -9.299669059735141 -14.297772664997249" fill="#ffce13" stroke="none" /><path d="M 111.45004920935366 117.60387380957326 l 17.17467883222905 26.40520344973921 a52.49927558234214,52.49927558234214 0 0,0 -0.7617849832996612,0.4862072189508608 l -16.717612046882458 -26.69692509751388" fill="#84ff25" stroke="none" /><path d="M 111.1453310114006 117.79835938074945 l 11.146426844390371 17.800109353841616 a42.00206476530501,42.00206476530501 0 0,0 -0.6160718854049635,0.3784416700293866 l -10.838375759053099 -17.989339490699383" fill="#feff18" stroke="none" /><line stroke="#e1ed5e" stroke-width="0.3" x1="143.8653032363475" x2="146.44561519142675" y1="172.8068346515853" y2="177.08958963109032" /><path d="M 144.38136562736335 173.6633856474863 a86.0,86.0 0 0,1 -40.68145358897372,12.25698825130547" fill="none" id="id42" stroke="none" /><text fill="#e1ed5e" style="font-size:6.75px; font-family:Arial;" text-anchor="middle"><textPath startOffset="21.466115282336833" xlink:href="#id42">June</textPath></text><path d="M 110.5260780823613 118.17145234162733 l 18.945008179960265 32.705278315459836 a58.79614483820339,58.79614483820339 0 0,0 -0.8801257442937624,0.499758367480943 l -18.379233668745304 -33.0265398487354" fill="#42ff2d" stroke="none" /><path d="M 109.89434966115114 118.52300852407294 l 12.864081492334574 24.08258241291623 a48.30302855575416,48.30302855575416 0 0,0 -0.7367571181871678,0.3854365029436982 l -12.447633471620911 -24.300448334804646" fill="#b3ff20" stroke="none" /><line stroke="#e1ed5e" stroke-width="0.3" x1="102.19456741930631" x2="102.32365962044197" y1="184.97166512339345" y2="189.96999836594603" /><path d="M 102.22038585953345 185.97133177190398 a86.0,86.0 0 0,1 -42.740103519485714,-10.115201625700543" fill="none" id="id43" stroke="none" /><text fill="#e1ed5e" style="font-size:6.75px; font-family:Arial;" text-anchor="middle"><textPath startOffset="22.20632615414155" xlink:href="#id43">July</textPath></text><line stroke="#e1ed5e" stroke-width="0.3" x1="58.666819895761336" x2="56.23545636021788" y1="174.27360380694188" y2="178.64263932499728" /><path d="M 58.180547188652646 175.14741091055294 a86.0,86.0 0 0,1 -31.652253787137756,-30.449443065178592" fill="none" id="id44" stroke="none" /><text fill="#e1ed5e" style="font-size:6.75px; font-family:Arial;" text-anchor="middle"><textPath startOffset="22.20632615414155" xlink:href="#id44">August</textPath></text><line stroke="#e1ed5e" stroke-width="0.3" x1="26.63291911575756" x2="22.317208475507996" y1="142.92168965132927" y2="145.44649492493687" /><path d="M 25.769776987707644 143.4266507060508 a86.0,86.0 0 0,1 -11.730757126820373,-40.83630448921669" fill="none" id="id45" stroke="none" /><text fill="#e1ed5e" style="font-size:6.75px; font-family:Arial;" text-anchor="middle"><textPath startOffset="21.46611528233685" xlink:href="#id45">September</textPath></text><line stroke="#e1ed5e" stroke-width="0.3" x1="15.007084014347285" x2="10.007500721073583" y1="101.09737516637583" y2="101.16192664675087" /><path d="M 14.007167355692545 101.11028546245083 a86.0,86.0 0 0,1 10.666146001902534,-42.60595125391555" fill="none" id="id46" stroke="none" /><text fill="#e1ed5e" style="font-size:6.75px; font-family:Arial;" text-anchor="middle"><textPath startOffset="22.20632615414155" xlink:href="#id46">October</textPath></text><line stroke="#e1ed5e" stroke-width="0.3" x1="26.266209847984243" x2="21.928928074336255" y1="57.711370442889674" y2="55.22380399835377" /><path d="M 25.398753493254645 57.213857153982495 a86.0,86.0 0 0,1 29.58750427330803,-30.492523968695096" fill="none" id="id47" stroke="none" /><text fill="#e1ed5e" style="font-size:6.75px; font-family:Arial;" text-anchor="middle"><textPath startOffset="21.46611528233685" xlink:href="#id47">November</textPath></text><line stroke="#e1ed5e" stroke-width="0.3" x1="56.762969772571076" x2="54.21961505331055" y1="26.818313649435495" y2="22.513508569990535" /><path d="M 56.25429882871897 25.957352633546506 a86.0,86.0 0 0,1 42.265352541879196,-11.944610805530505" fill="none" id="id48" stroke="none" /><text fill="#e1ed5e" style="font-size:6.75px; font-family:Arial;" text-anchor="middle"><textPath startOffset="22.20632615414155" xlink:href="#id48">December</textPath></text></svg>