<?xml version="1.0" encoding="utf-8" ?>
<svg baseProfile="full" height="200mm" version="1.1" viewBox="0,0,200,200" width="200mm" xmlns="http://www.w3.org/2000/svg" xmlns:ev="http://www.w3.org/2001/xml-events" xmlns:xlink="http://www.w3.org/1999/xlink"><defs /><rect fill="#1a1a1a" height="200" width="200" x="0" y="0" /><text alignment-baseline="middle" fill="#e1ed5e" style="dominant-baseline: central; font-size:9.0px; font-family:Arial;" text-anchor="middle" x="100.0" y="100.0">2025</text><line stroke="#e1ed5e" stroke-width="0.3" x1="100.0" x2="100.0" y1="15.0" y2="10.0" /><path d="M 100.0 14.0 a86.0,86.0 0 0,1 42.46469731375804,11.215312516191453" fill="none" id="id37" stroke="none" /><text fill="#e1ed5e" style="font-size:6.75px; font-family:Arial;" text-anchor="middle"><textPath startOffset="22.20632615414155" xlink:href="#id37">January</textPath></text><path d="M 100.0 79.0 l 0.0 -21.967188038679488 a42.96718803867949,42.96718803867949 0 0,0 0.73960951072451,0.0063660525618618 l -0.3781290314519816 21.963933362726184" fill="#e8ff1a" stroke="none" /><path d="M 100.72285384407766 79.0124445844662 l 0.3630062435971281 -10.539632203797167 a31.545881685483145,31.545881685483145 0 0,0 0.5425278271939868,0.02336238947657284 l -0.5443749031804465 10.5318220877964" fill="#ff860c" stroke="none" /><path d="M 101.08401301168833 79.027996857942 l 0.4535730347186247 -8.775111559275937 a29.78682601259192,29.78682601259192 0 0,0 0.5118198699978391,0.03087437227770664 l -0.6045549535560757 8.766003917617926" fill="#ff6e0a" stroke="none" /><path d="M 101.44485096284872 79.0497635885617 l 1.6117675126343747 -23.370514536246723 a44.4260270682782,44.4260270682782 0 0,0 0.762456000145793,0.059181259963964804 l -2.013813702142509 23.339308014094293" fill="#d7ff1c" stroke="none" /><path d="M 102.16513564639614 79.11191278185805 l 1.0872448562235506 -10.489165157885276 a31.545363297998747,31.545363297998747 0 0,0 0.5396259450725436,0.060633262473677264 l -1.2676375048058195 10.468895941940998" fill="#ff860c" stroke="none" /><path d="M 102.52436894288641 79.15227682838746 l 1.2792638831237897 -10.564913410918548 a31.6420821018667,31.6420821018667 0 0,0 0.5401533520411765,0.07012740759994925 l -1.4609319636728124 10.541327680154462" fill="#ff870c" stroke="none" /><path d="M 102.88285421437855 79.19881850522331 l 1.809360997858936 -13.055410959845265 a34.18019508774513,34.18019508774513 0 0,0 0.5820903818275116,0.08578499112277725 l -2.0338203601151035 13.02233148456152" fill="#ffa90f" stroke="none" /><path d="M 103.2404852339499 79.25152402106235 l 1.3567741593082492 -8.687277991060805 a29.792589778520096,29.792589778520096 0 0,0 0.5060069832135046,0.08349548786536416 l -1.5061103486606289 8.662636240255816" fill="#ff6e0a" stroke="none" /><path d="M 103.95276090670814 79.375362276772 l 4.961651784180803 -25.888808600558537 a47.35997722274847,47.35997722274847 0 0,0 0.7993317511720905,0.16033842956242564 l -5.406549944820019 25.7995662149189" fill="#b5ff20" stroke="none" /><path d="M 104.66035177308747 79.52364482259891 l 2.924992233800069 -12.851643563968755 a34.18030052248773,34.18030052248773 0 0,0 0.5725628617292221,0.1355071306071765 l -3.145778782491815 12.79939052122071" fill="#ffa90f" stroke="none" /><path d="M 105.36241919743992 79.69619591428918 l 3.365420027759735 -12.742537722970814 a34.17946583077556,34.17946583077556 0 0,0 0.5675453276379757,0.15513157719241516 l -3.5842632446214213 12.682719604952107" fill="#ffa90f" stroke="none" /><path d="M 105.71112130821622 79.79150937346287 l 2.389512812225161 -8.455160495080555 a29.786325197564626,29.786325197564626 0 0,0 0.49219743912505226,0.14368592942305838 l -2.5347004690736408 8.412776236738793" fill="#ff6e0a" stroke="none" /><path d="M 106.40334571778207 80.00007090966166 l 8.037494170744099 -25.103956675724916 a47.3592479657789,47.3592479657789 0 0,0 0.7742496834444164,0.2552579475776122 l -8.468426676430932 24.961885003888067" fill="#b5ff20" stroke="none" /><path d="M 107.08798089147638 80.2323363322302 l 3.558838971293405 -9.925242873732751 a31.543992646345096,31.543992646345096 0 0,0 0.5095371343495302,0.18766682674169904 l -3.7291584314155113 9.862512779184728" fill="#ff860c" stroke="none" /><path d="M 107.4271985657038 80.35727306442388 l 3.7315760502656192 -9.868906660604063 a31.550828332156257,31.550828332156257 0 0,0 0.5063409669591493,0.19645242870125146 l -3.9009001822244356 9.803211528012264" fill="#ff860c" stroke="none" /><path d="M 108.09893153111575 80.62456947434976 l 4.070955802715394 -9.739126824997173 a31.55572226145808,31.55572226145808 0 0,0 0.4993561448638211,0.21379824089692026 l -4.2379957053695305 9.667609056137463" fill="#ff860c" stroke="none" /><path d="M 108.76106565485865 80.91482961587045 l 4.402207273904115 -9.589800966977235 a31.551952969410536,31.551952969410536 0 0,0 0.49164221369721317,0.23083261153319995 l -4.566627698900927 9.512603372804033" fill="#ff860c" stroke="none" /><path d="M 109.08828744355905 81.06846463323043 l 3.8035603765956623 -7.923081024488973 a29.78875898287271,29.78875898287271 0 0,0 0.4603480100020619,0.22589076923855478 l -3.939379653608156 7.856435095115586" fill="#ff6e0a" stroke="none" /><path d="M 109.73455568895987 81.39251694778311 l 9.482490541571286 -18.12566363405825 a41.45622910132781,41.45622910132781 0 0,0 0.6294535238674072,0.3362322730939616 l -9.793089111967005 17.959752634462536" fill="#faff18" stroke="none" /><path d="M 110.36928655335952 81.73862282372117 l 2.6056926636833198 -4.588892041137323 a26.277079156388176,26.277079156388176 0 0,0 0.39140743911359216,0.2267284523366725 l -2.6842968352622405 4.543359431410601" fill="#ff3e05" stroke="none" /><line stroke="#e1ed5e" stroke-width="0.3" x1="143.23703022742887" x2="145.7803849466894" y1="26.81831364943548" y2="22.513508569990506" /><path d="M 143.74570117128098 25.957352633546492 a86.0,86.0 0 0,1 28.547481713284135,27.462654790039103" fill="none" id="id38" stroke="none" /><text fill="#e1ed5e" style="font-size:6.75px; font-family:Arial;" text-anchor="middle"><textPath startOffset="19.985693538727396" xlink:href="#id38">February</textPath></text><path d="M 110.99172775467656 82.1063720568725 l 5.520072219276794 -8.986223159403533 a31.5462507070822,31.5462507070822 0 0,0 0.46024604910061595,0.28820603372375203 l -5.673937420749674 8.889872784356836" fill="#ff860c" stroke="none" /><path d="M 111.2981086023043 82.29822771554956 l 5.678305202381154 -8.896716184305472 a31.554369182261524,31.554369182261524 0 0,0 0.4553340163238839,0.2961619101567229 l -5.830606244489319 8.79765534998922" fill="#ff860c" stroke="none" /><path d="M 111.90073688211348 82.69761687909136 l 5.984117263110907 -8.700258694266704 a31.559553057105465,31.559553057105465 0 0,0 0.44494290042221524,0.31171093617330703 l -6.132991303116773 8.595962915329462" fill="#ff860c" stroke="none" /><path d="M 112.19680574252982 82.90503203632743 l 6.123953812292098 -8.583296023736601 a31.543992646345096,31.543992646345096 0 0,0 0.43929468525358434,0.3191662711634565 l -6.270793813899471 8.47661051775647" fill="#ff860c" stroke="none" /><path d="M 112.48926042617603 83.11751280151076 l 7.839282609819461 -10.596831500785543 a34.18131972499941,34.18131972499941 0 0,0 0.4699994066765729,0.3539938089992345 l -8.020528170254417 10.46032110228046" fill="#ffa90f" stroke="none" /><path d="M 112.77801427241765 83.33499621200491 l 5.347120358289719 -6.9736798790493095 a29.787713421675377,29.787713421675377 0 0,0 0.4042156467341893,0.3154967238383821 l -5.466368560183338 6.880604765987703" fill="#ff6e0a" stroke="none" /><path d="M 113.06298171725822 83.55741782278167 l 16.398198416696612 -20.640672310567822 a47.361681751086984,47.361681751086984 0 0,0 0.6339622751667006,0.5126200707304196 l -16.751064090427803 20.35534614257327" fill="#b5ff20" stroke="none" /><path d="M 114.16331599549186 84.49514656593476 l 8.0808216477929 -8.846230311865567 a32.98146356811252,32.98146356811252 0 0,0 0.41586816827350837,0.3865041394599435 l -8.231897699861257 8.705821586330982" fill="#ff990e" stroke="none" /><path d="M 114.42810811169701 84.74124197986012 l 7.244605301799851 -7.661689141486785 a31.544467102686745,31.544467102686745 0 0,0 0.39132677388413,0.3764560464287364 l -7.375415319296399 7.535850008295746" fill="#ff860c" stroke="none" /><path d="M 114.68862486808459 84.99185889309783 l 6.14760418784772 -6.2813307541860235 a29.789092859557577,29.789092859557577 0 0,0 0.3633761493385663,0.3618156966727465 l -6.254816137353609 6.174579206863158" fill="#ff6e0a" stroke="none" /><path d="M 114.94478906791727 85.2469230424477 l 16.500486420370088 -16.28881778728857 a44.18602244923234,44.18602244923234 0 0,0 0.529676233108974,0.5458779180741571 l -16.77842691718217 16.002375673664297" fill="#d9ff1c" stroke="none" /><path d="M 115.4437574822437 85.77008943001954 l 7.755181528809531 -7.145640543488474 a31.545284221941806,31.545284221941806 0 0,0 0.36450780119184817,0.40249861819329424 l -7.877032970617415 7.011089138025631" fill="#ff860c" stroke="none" /><path d="M 115.68641384162765 86.03803664274999 l 10.44486593839038 -9.296633186879095 a34.9829400729006,34.9829400729006 0 0,0 0.39648687491994694,0.45325303772003656 l -10.603344676888176 9.115464592956112" fill="#ffb310" stroke="none" /><path d="M 116.15771136456269 86.58626213691792 l 10.140449379590883 -8.418353733562112 a34.17943068586137,34.17943068586137 0 0,0 0.3719072119851993,0.45591426709011507 l -10.283855083652492 8.242555296863896" fill="#ffa90f" stroke="none" /><path d="M 116.60985879189232 87.15038557335679 l 20.849837653168045 -16.12972018955944 a47.360644976118195,47.360644976118195 0 0,0 0.49328154965623877,0.6491006975342981 l -21.124395143048396 15.768434716144107" fill="#b5ff20" stroke="none" /><path d="M 117.04232023915458 87.72973835380427 l 8.558180988410486 -6.161785394809832 a31.545618098626672,31.545618098626672 0 0,0 0.3134843998890294,0.44340145206515996 l -8.662978008103398 6.013557442412879" fill="#ff860c" stroke="none" /><path d="M 117.45458315368197 88.32363383020206 l 9.496815325871541 -6.3529614093610505 a32.42583126089911,32.42583126089911 0 0,0 0.30635209635612204,0.4665952603596073 l -9.604764057585587 6.188548085023769" fill="#ff920d" stroke="none" /><line stroke="#e1ed5e" stroke-width="0.3" x1="172.23445277983987" x2="176.4835382374775" y1="55.19839476539836" y2="52.563006222186495" /><path d="M 173.08426987136738 54.67131705675599 a86.0,86.0 0 0,1 12.851231095245387,41.99856678651699" fill="none" id="id39" stroke="none" /><text fill="#e1ed5e" style="font-size:6.75px; font-family:Arial;" text-anchor="middle"><textPath startOffset="22.20632615414155" xlink:href="#id39">March</textPath></text><path d="M 117.84615892207809 88.93136811851018 l 7.466888791604457 -4.631150248922481 a29.78646577722141,29.78646577722141 0 0,0 0.266495540210855,0.4380485978223976 l -7.545500130101535 4.501933877893001" fill="#ff6e0a" stroke="none" /><path d="M 118.03404312379186 89.2402003453031 l 20.22177163584446 -12.06508213222957 a44.54753182288302,44.54753182288302 0 0,0 0.387224807642501,0.6618927170266433 l -20.426456117957287 11.715210002849032" fill="#d5ff1c" stroke="none" /><path d="M 118.3937258080291 89.86733742301442 l 9.235418785389681 -5.087570799204754 a31.544019005030744,31.544019005030744 0 0,0 0.25789774196488563,0.47784534798202927 l -9.321624626573032 4.927844467890266" fill="#ff860c" stroke="none" /><path d="M 118.56541770881063 90.18545643968196 l 13.208432525158582 -6.982591957528083 a35.94052476377597,35.94052476377597 0 0,0 0.2844274372864192,0.5494232774023649 l -13.326669395605117 6.754195957865373" fill="#ffc011" stroke="none" /><path d="M 119.04729006885535 91.15688171328212 l 9.5645750030791 -4.440561770659084 a31.545126069827923,31.545126069827923 0 0,0 0.22441755933006724,0.4944743443090396 l -9.639594879372513 4.275265417507982" fill="#ff860c" stroke="none" /><path d="M 119.196687751892 91.48605970444005 l 21.025747284469098 -9.32514813821766 a44.00087904124675,44.00087904124675 0 0,0 0.3011111949197922,0.695006153186808 l -21.183149189231568 8.96184284044425" fill="#dcff1b" stroke="none" /><path d="M 119.7369772167798 92.82701384747503 l 10.164340455316049 -3.69401416107156 a31.814784210226836,31.814784210226836 0 0,0 0.18262734386874102,0.5163120939795415 l -10.226420879994599 3.5185044406654042" fill="#ff8a0c" stroke="none" /><path d="M 119.85752413597 93.16781622104841 l 13.80361896405595 -4.749275938495277 a35.5977915605346,35.5977915605346 0 0,0 0.19436852933711152,0.5811371630245864 l -13.883324787164833 4.510965672548377" fill="#ffbb11" stroke="none" /><path d="M 120.28053869075195 94.5502522615342 l 10.184731855266566 -2.7368217502245042 a31.546039837597025,31.546039837597025 0 0,0 0.13640457772473194,0.5256224809025506 l -10.230332764861602 2.5611028437731034" fill="#ff860c" stroke="none" /><path d="M 120.37134235888165 94.90015583598534 l 12.787592074350671 -3.201297472856247 a34.18221592031142,34.18221592031142 0 0,0 0.1379776535449922,0.5720064518573523 l -12.840802528156484 2.9807057893394884" fill="#ffa90f" stroke="none" /><path d="M 120.45610955862082 95.25157060432595 l 10.27231165789295 -2.384487944693662 a31.54543358782714,31.54543358782714 0 0,0 0.11822869941983086,0.5299960771808201 l -10.311834744314817 2.207313697962878" fill="#ff860c" stroke="none" /><path d="M 120.6074358757038 95.95851677861258 l 8.623008940436488 -1.6911248037285305 a29.787274110247925,29.787274110247925 0 0,0 0.0943466178162729,0.50400340495252 l -8.65084128216262 1.5424433213134476" fill="#ff6e0a" stroke="none" /><path d="M 120.67395015179393 96.31383870115 l 23.186625376656316 -4.134170803683939 a44.552302744985155,44.552302744985155 0 0,0 0.12811574417891006,0.7561463743603818 l -23.25435298235545 3.7344386410077197" fill="#d5ff1c" stroke="none" /><path d="M 120.78858239683441 97.02765380044208 l 10.4397892497647 -1.4926783995357402 a31.545960761540087,31.545960761540087 0 0,0 0.07223123842758838,0.5382066248956012 l -10.463936487250125 1.3127534325754746" fill="#ff860c" stroke="none" /><path d="M 120.83666639777658 97.38593545837742 l 10.483220462370822 -1.3151727041912993 a31.565395899090586,31.565395899090586 0 0,0 0.06299498092537374,0.5397025261820709 l -10.504305796299784 1.1345264396843755" fill="#ff860c" stroke="none" /><path d="M 120.87857604477298 97.74499172005257 l 10.48466855919686 -1.1324055032676668 a31.54564445731232,31.54564445731232 0 0,0 0.05366195677246036,0.5403685814758694 l -10.502607641651549 0.9517613910873624" fill="#ff860c" stroke="none" /><path d="M 120.91429891909075 98.10471618934814 l 8.76421500486203 -0.7942257532058503 a29.800128362615183,29.800128362615183 0 0,0 0.041898293911977524,0.5112653102129663 l -8.776587782593504 0.6432465257851153" fill="#ff6f0a" stroke="none" /><path d="M 120.96714384426684 98.82574320788733 l 1.1549235466445238 -0.06468104712263949 a22.156733347168156,22.156733347168156 0 0,0 0.018048655281076735,0.38097858691324893 l -1.155865810159097 0.04479135358639076" fill="#ff0300" stroke="none" /><path d="M 120.98425023603335 99.18683210126433 l 7.026898190063012 -0.2723017487673238 a28.032172240203774,28.032172240203774 0 0,0 0.014534421734443968,0.48232669823380303 l -7.030544306253101 0.15130490310852174" fill="#ff5608" stroke="none" /><line stroke="#e1ed5e" stroke-width="0.3" x1="184.98032266829074" x2="189.97916517819016" y1="98.17113171792111" y2="98.06355123074" /><path d="M 185.9800911702706 98.14961562048488 a86.0,86.0 0 0,1 -9.607161424134198,41.387399972396054" fill="none" id="id40" stroke="none" /><text fill="#e1ed5e" style="font-size:6.75px; font-family:Arial;" text-anchor="middle"><textPath startOffset="21.466115282336823" xlink:href="#id40">April</textPath></text><path d="M 120.99513854157772 99.54816195383933 l 8.786759539347178 -0.1891005508003611 a29.788794127786907,29.788794127786907 0 0,0 0.006620194769819918,0.5127413806331604 l -8.788712741234713 0.037822912106737876" fill="#ff6e0a" stroke="none" /><path d="M 120.99980553446 99.90962569577887 l 11.422149492782577 -0.049156112966191025 a32.42225526587964,32.42225526587964 0 0,0 -0.0024018757332168648,0.558111332089341 l -11.421303319759856 -0.14746469732683476" fill="#ff920d" stroke="none" /><path d="M 120.99824983174949 100.27111621757518 l 13.18012453562198 0.1701734925481648 a34.181223076485374,34.181223076485374 0 0,0 -0.01265997192565142,0.5882591489805599 l -13.17524250101132 -0.3970224573188395" fill="#ffa90f" stroke="none" /><path d="M 120.95626037817324 101.35467743843564 l 22.79826181630654 1.473750104301358 a43.84584603849875,43.84584603849875 0 0,0 -0.05516943526717876,0.7527431119002602 l -22.769515822375023 -1.8659663526983885" fill="#ddff1b" stroke="none" /><path d="M 120.92983693683757 101.71520430193887 l 5.254377687068727 0.43059729705823624 a26.271991930058274,26.271991930058274 0 0,0 -0.040815921110646185,0.45040028832013046 l -5.246187169681005 -0.5209789739269373" fill="#ff3e05" stroke="none" /><path d="M 120.89721153311464 102.0752229133903 l 13.115446066145783 1.3024452641765332 a34.179957859574316,34.179957859574316 0 0,0 -0.06318034756665275,0.5849715510739925 l -13.091083417078078 -1.528013137135317" fill="#ffa90f" stroke="none" /><path d="M 120.8583938346157 102.4346265915055 l 8.72970450385929 1.0189457006900364 a29.78896985235789,29.78896985235789 0 0,0 -0.06383136592605936,0.5087987906718485 l -8.710871628686382 -1.1690622456492799" fill="#ff6e0a" stroke="none" /><path d="M 120.81339534386255 102.79330883721812 l 13.0636079150774 1.753231072214201 a34.18073104768663,34.18073104768663 0 0,0 -0.0832804543333907,0.5824633036397365 l -13.031493409727407 -1.977839847834347" fill="#ffa90f" stroke="none" /><path d="M 120.76222939487914 103.15116336523771 l 8.686747269105926 1.3184210248749444 a29.786228549050584,29.786228549050584 0 0,0 -0.08129973164882309,0.5062535065838755 l -8.662765783095812 -1.4677537611520248" fill="#ff6e0a" stroke="none" /><path d="M 120.70491114924044 103.5080841355445 l 8.664714905397013 1.4680840057482845 a29.788205450474123,29.788205450474123 0 0,0 -0.09000798153160729,0.5048125604347755 l -8.638160481526217 -1.6170153169162782" fill="#ff6e0a" stroke="none" /><path d="M 120.64145759157962 103.86396538481128 l 23.147921039375785 4.333161320108501 a44.55000075310531,44.55000075310531 0 0,0 -0.14758793039655954,0.7525476774417535 l -23.069903176003564 -4.730972724618199" fill="#d5ff1c" stroke="none" /><path d="M 120.5718875245553 104.21870165774334 l 5.164334727624141 1.0590563189966893 a26.271807419258742,26.271807419258742 0 0,0 -0.09466102680116766,0.44222480293655836 l -5.14533966209853 -1.1477949413494166" fill="#ff3e05" stroke="none" /><path d="M 120.49622156327973 104.57218783832717 l 8.576240705702995 1.9131420555792937 a29.787036882077096,29.787036882077096 0 0,0 -0.11594169225460628,0.49947377575683927 l -8.542038447517836 -2.060484488684698" fill="#ff6e0a" stroke="none" /><path d="M 120.41448212921028 104.9243191809786 l 12.814774463059866 3.0911408523102994 a34.18232135505401,34.18232135505401 0 0,0 -0.14289624124305075,0.5707994516185391 l -12.759666907521753 -3.3112681433262345" fill="#ffa90f" stroke="none" /><path d="M 120.32669344350535 105.2749913415812 l 12.757345172856619 3.310665628692456 a34.179922714660115,34.179922714660115 0 0,0 -0.15268972858817378,0.5682152820498512 l -12.698467367926668 -3.5297718439178554" fill="#ffa90f" stroke="none" /><path d="M 120.23288151984713 105.62410040840565 l 8.467143265172982 2.353597724030383 a29.788170305559923,29.788170305559923 0 0,0 -0.14157517762789193,0.49284176624110415 l -8.425375450658992 -2.498996965776069" fill="#ff6e0a" stroke="none" /><path d="M 119.9155931802556 106.66101706037122 l 12.50130713773 4.1812171682596775 a34.18200505082624,34.18200505082624 0 0,0 -0.19143415289152202,0.5563972566434198 l -12.427482153895248 -4.395787127992398" fill="#ffa90f" stroke="none" /><path d="M 119.79798401119884 107.00284435728193 l 8.28348882260482 2.9299944341390276 a29.786413059850116,29.786413059850116 0 0,0 -0.17513806497945517,0.4819047360175916 l -8.231826496620139 -3.0721469671627504" fill="#ff6e0a" stroke="none" /><path d="M 119.67450827220406 107.3425965602758 l 12.350410916533752 4.609217341500262 a34.182470720939335,34.182470720939335 0 0,0 -0.21047566675452015,0.5494855496573903 l -12.269240970185725 -4.821126457990796" fill="#ffa90f" stroke="none" /><path d="M 119.54520255179757 107.68017299344265 l 8.1783709294879 3.213643009150226 a29.78710717190549,29.78710717190549 0 0,0 -0.1916266813218718,0.4756017078511321 l -8.121841633908636 -3.3539440848441715" fill="#ff6e0a" stroke="none" /><path d="M 119.26925614724726 108.34839909993367 l 21.494460092636018 9.312468001861994 a44.425069369366355,44.425069369366355 0 0,0 -0.3100423798815375,0.6990637178349932 l -21.33097662802321 -9.681080056189677" fill="#d7ff1c" stroke="none" /><path d="M 118.97047184881838 109.00673069616215 l 7.9390192533369435 3.769258296593505 a29.788363602588007,29.788363602588007 0 0,0 -0.2239045802592997,0.4613097536801731 l -7.872961416462929 -3.9053570062389533" fill="#ff6e0a" stroke="none" /><path d="M 118.81262510543309 109.33194174019688 l 11.807903334663449 5.857272197548478 a34.180827696200666,34.180827696200666 0 0,0 -0.26599411094854525,0.5248316157693239 l -11.705330553928635 -6.0596580250204966" fill="#ffa90f" stroke="none" /><path d="M 118.64920377521936 109.65438752849418 l 7.811109292524662 4.043683421898161 a29.795726462112107,29.795726462112107 0 0,0 -0.23971015482814387,0.45344127580436977 l -7.740346629471626 -4.177539712788666" fill="#ff6e0a" stroke="none" /><line stroke="#e1ed5e" stroke-width="0.3" x1="174.80103733775053" x2="179.2010983576182" y1="140.37084112569926" y2="142.7455964860345" /><path d="M 175.68104954172406 140.8457921977663 a86.0,86.0 0 0,1 -30.038265399797805,32.042727171017184" fill="none" id="id41" stroke="none" /><text fill="#e1ed5e" style="font-size:6.75px; font-family:Arial;" text-anchor="middle"><textPath startOffset="22.206326154141568" xlink:href="#id41">May</textPath></text><path d="M 118.12598468904814 110.60418214915192 l 4.124748573491266 2.41308739597379 a25.77875941800022,25.77875941800022 0 0,0 -0.22736758309467042,0.38108114742561244 l -4.082600114698368 -2.483730637285507" fill="#ff3705" stroke="none" /><path d="M 117.55443506779139 111.5257021239791 l 7.345535701921223 4.822852806965869 a29.78730925516212,29.78730925516212 0 0,0 -0.28510269802181304,0.42618985030056855 l -7.261429898488689 -4.948579571472244" fill="#ff6e0a" stroke="none" /><path d="M 117.14729908036423 112.12312394758627 l 12.91535762830653 9.131145413720633 a36.81721464840024,36.81721464840024 0 0,0 -0.37031141534224266,0.5143301675587132 l -12.756266420588686 -9.352109186730477" fill="#ffcb12" stroke="none" /><path d="M 116.93607887273984 112.41649034213515 l 8.503986293963315 6.234599193949273 a31.54457253742933,31.54457253742933 0 0,0 -0.3248170670542145,0.4351455421655926 l -8.39540796021401 -6.380057615624181" fill="#ff860c" stroke="none" /><path d="M 116.71984013943494 112.70617746262583 l 2.565012678982364 1.949271405781316 a24.221637635851827,24.221637635851827 0 0,0 -0.25512672004117554,0.32978567708117557 l -2.53107914172312 -1.9931350769757443" fill="#ff2103" stroke="none" /><path d="M 116.27256486870786 113.27417163493432 l 6.8084512609368035 5.553921667232328 a29.786413059850116,29.786413059850116 0 0,0 -0.3275143773496472,0.39451216588365146 l -6.711840883693613 -5.67029509022975" fill="#ff6e0a" stroke="none" /><path d="M 116.0416608686014 113.55231037782055 l 8.055019833784845 6.805039065538497 a31.544757048228863,31.544757048228863 0 0,0 -0.353988489627862,0.41176858610977773 l -7.936688834586204 -6.942684750809803" fill="#ff860c" stroke="none" /><path d="M 115.80600337817218 113.82643327865902 l 9.098597764715645 7.959074277873828 a33.088479831839955,33.088479831839955 0 0,0 -0.3786915860081987,0.42546401136215134 l -8.960247329059108 -8.114512458976845" fill="#ff9b0e" stroke="none" /><path d="M 115.56566222782051 114.09645910891815 l 7.816227449761861 7.078473695429735 a31.54505577999953,31.54505577999953 0 0,0 -0.36795593920410463,0.3993434998254655 l -7.693225102562034 -7.211968450056536" fill="#ff860c" stroke="none" /><path d="M 115.32070863581623 114.36230785411682 l 9.615262186439388 9.013770766245862 a34.179580051746704,34.179580051746704 0 0,0 -0.4060752999775732,0.4257683285588305 l -9.45868033508285 -9.1779462113872" fill="#ffa90f" stroke="none" /><path d="M 115.07121518719521 114.62390073753431 l 0.6893046864020328 0.6688460875022862 a21.960466573839465,21.960466573839465 0 0,0 -0.26557458878957496,0.26902565632095554 l -0.6776894725569222 -0.6806122378039065" fill="#ff0000" stroke="none" /><path d="M 114.55890576462653 115.13401014063108 l 6.097059247192191 6.337904645226071 a29.794496390115242,29.794496390115242 0 0,0 -0.3726641206693197,0.35237718661444306 l -5.987059292132064 -6.441916468586435" fill="#ff6e0a" stroke="none" /><path d="M 114.29624159901734 115.38237550388516 l 7.178344969168163 7.723708154159859 a31.544396812858352,31.544396812858352 0 0,0 -0.40091493910228165,0.3662262912684764 l -7.044330480599017 -7.846127212014919" fill="#ff860c" stroke="none" /><path d="M 114.0293411484842 115.62618273729858 l 8.008027972322449 8.91951426203855 a32.98691981604148,32.98691981604148 0 0,0 -0.42577889858072665,0.3757003735338204 l -7.853306720835134 -9.05603777734466" fill="#ff990e" stroke="none" /><path d="M 113.75828350139079 115.86535959552629 l 5.756842779849084 6.638501149360828 a29.78697537847726,29.78697537847726 0 0,0 -0.3902583464270747,0.3325866292991678 l -5.641718956844962 -6.736612168882942" fill="#ff6e0a" stroke="none" /><path d="M 113.48314897796784 116.09983520530334 l 8.46191558963189 10.104126768670762 a34.17943068586137,34.17943068586137 0 0,0 -0.4543095282742916,0.3738658125345284 l -8.286735932812906 -10.24828770006247" fill="#ffa90f" stroke="none" /><path d="M 113.20401910651253 116.32954008644616 l 5.525796234454825 6.833806463939298 a29.788363602588007,29.788363602588007 0 0,0 -0.4014939581868433,0.31897108245267286 l -5.407344783550631 -6.927911460397096" fill="#ff6e0a" stroke="none" /><path d="M 112.92097659922987 116.55440617244103 l 8.11802609467042 10.400847045699262 a34.193936749195856,34.193936749195856 0 0,0 -0.4671075291930889,0.3581581348983977 l -7.937789836983837 -10.53904452242503" fill="#ffa90f" stroke="none" /><path d="M 112.04921762599082 117.19931262002967 l 6.637746147323073 9.474861739898168 a32.56860747482118,32.56860747482118 0 0,0 -0.4619207387521519,0.3177132961319029 l -6.473668523948037 -9.587715825395165" fill="#ff940d" stroke="none" /><path d="M 111.7513745106137 117.40417183066458 l 3.993754559258875 5.9148817473277475 a28.13693922942265,28.13693922942265 0 0,0 -0.40373198523052867,0.26757154497852464 l -3.891347875288382 -5.98275131339759" fill="#ff5808" stroke="none" /><path d="M 111.45004920935366 117.60387380957326 l 7.186562183370674 11.048977300233798 a34.18053775065855,34.18053775065855 0 0,0 -0.49597294611654946,0.3165534003593425 l -6.995307435207194 -11.17104512941695" fill="#ffa90f" stroke="none" /><path d="M 111.1453310114006 117.79835938074945 l 4.664104081485584 7.448266951119355 a29.788091229502985,29.788091229502985 0 0,0 -0.4369215091905184,0.2683928767519239 l -4.535203372362757 -7.527448294699657" fill="#ff6e0a" stroke="none" /><line stroke="#e1ed5e" stroke-width="0.3" x1="143.8653032363475" x2="146.44561519142675" y1="172.8068346515853" y2="177.08958963109032" /><path d="M 144.38136562736335 173.6633856474863 a86.0,86.0 0 0,1 -40.68145358897372,12.25698825130547" fill="none" id="id42" stroke="none" /><text fill="#e1ed5e" style="font-size:6.75px; font-family:Arial;" text-anchor="middle"><textPath startOffset="21.466115282336833" xlink:href="#id42">June</textPath></text><path d="M 110.5260780823613 118.17145234162733 l 7.927337720823049 13.68517680210918 a36.81539589909058,36.81539589909058 0 0,0 -0.5510935760553979,0.3129253151430994 l -7.690595377846452 -13.819605283046908" fill="#ffcb12" stroke="none" /><path d="M 109.89434966115114 118.52300852407294 l 5.38283844953924 10.077101163708287 a32.42466269250208,32.42466269250208 0 0,0 -0.49456735442467387,0.2587342651382923 l -5.20858019258807 -10.168264847791296" fill="#ff920d" stroke="none" /><path d="M 109.2508944713604 118.85261126421891 l 5.8090263915954425 11.838348899491047 a34.18678475915692,34.18678475915692 0 0,0 -0.5305257178481884,0.2546845845619104 l -5.604388005747022 -11.936587760552518" fill="#ffa90f" stroke="none" /><path d="M 108.59647513512805 119.15986991738527 l 5.431854691553216 12.106546888621729 a34.26926987277541,34.26926987277541 0 0,0 -0.5402784166404689,0.2368421805361024 l -5.222655600254993 -12.198253622452286" fill="#ffaa0f" stroke="none" /><path d="M 107.93186726928326 119.44442032107085 l 3.321051105889049 8.141325543953414 a29.792642495891393,29.792642495891393 0 0,0 -0.47651050968520803,0.1896133658598922 l -3.180419520161975 -8.197285754219374" fill="#ff6e0a" stroke="none" /><path d="M 107.59598834532513 119.57807347666477 l 4.13402734599084 10.65513629759076 a32.42900308940531,32.42900308940531 0 0,0 -0.5221529359802374,0.1974335615370449 l -3.950004189250328 -10.724718109234436" fill="#ff920d" stroke="none" /><path d="M 106.91757812671514 119.82793768551818 l 3.4790864961900536 9.972147619493718 a31.56161782081449,31.56161782081449 0 0,0 -0.5144998598825048,0.17454628677963646 l -3.306916903370322 -10.030556893171479" fill="#ff860c" stroke="none" /><path d="M 106.2309692047433 120.05430185196036 l 4.696830560628362 15.1166944844873 a36.8295505132831,36.8295505132831 0 0,0 -0.6070299577506844,0.18289314672760779 l -4.435925628437432 -15.195303000320635" fill="#ffcb12" stroke="none" /><path d="M 105.88484417918355 120.15858648285463 l 1.9988370032017901 6.8470340704524 a28.132827274461697,28.132827274461697 0 0,0 -0.4660254172324704,0.13170343791196915 l -1.880680417864714 -6.880426301702888" fill="#ff5808" stroke="none" /><path d="M 104.83641907484287 120.43548508189849 l 2.6306607425099258 11.115419802789573 a32.42247492159337,32.42247492159337 0 0,0 -0.544203291270329,0.12385889731932527 l -2.438937301846735 -11.159055433686582" fill="#ff920d" stroke="none" /><path d="M 103.7750983002368 120.6578951692458 l 3.0349632524748427 16.607766931050694 a37.88279966060054,37.88279966060054 0 0,0 -0.6424760982210076,0.11170270498039667 l -2.748638182781785 -16.657548214552097" fill="#ffd814" stroke="none" /><path d="M 102.34483914955558 120.86867818915974 l 0.544614739532043 4.846980543855775 a25.87748148197735,25.87748148197735 0 0,0 -0.4430808963267237,0.04592714655274823 l -0.46110124659971663 -4.855637058864282" fill="#ff3805" stroke="none" /><path d="M 101.98527174616119 120.90594882070398 l 0.8332628665170985 8.774693376503205 a29.814168755836565,29.814168755836565 0 0,0 -0.511321061391768,0.044118932703701555 l -0.6820974873837887 -8.78773656148557" fill="#ff6f0a" stroke="none" /><path d="M 101.26447882468166 120.96189622390904 l 0.6352116018510209 10.530219580052107 a31.549361031988568,31.549361031988568 0 0,0 -0.5423664650704138,0.02803415111361734 l -0.45385706836712747 -10.539593537927926" fill="#ff860c" stroke="none" /><line stroke="#e1ed5e" stroke-width="0.3" x1="102.19456741930631" x2="102.32365962044197" y1="184.97166512339345" y2="189.96999836594603" /><path d="M 102.22038585953345 185.97133177190398 a86.0,86.0 0 0,1 -42.740103519485714,-10.115201625700543" fill="none" id="id43" stroke="none" /><text fill="#e1ed5e" style="font-size:6.75px; font-family:Arial;" text-anchor="middle"><textPath startOffset="22.20632615414155" xlink:href="#id43">July</textPath></text><path d="M 100.54218724476979 120.99299961872073 l 0.22938739984168743 8.88167260271955 a29.884634308799953,29.884634308799953 0 0,0 -0.5143576900960414,0.008855134094786308 l -0.07647001985297805 -8.884305214093498" fill="#ff700a" stroke="none" /><path d="M 100.18074693466247 120.99922214144158 l 0.11350950511188822 13.18756147904214 a34.18804997606799,34.18804997606799 0 0,0 -0.5885128795486783,0.0 l 0.11350950511187913 -13.18756147904214" fill="#ffa90f" stroke="none" /><path d="M 99.81925306533755 120.99922214144158 l -0.07583282010289166 8.810275194578114 a29.81060154704565,29.81060154704565 0 0,0 -0.5130834794119187,-0.008833197402305227 l 0.2274759894074783 -8.807664519896651" fill="#ff6f0a" stroke="none" /><path d="M 99.45781275523022 120.99299961872073 l -0.27256926027647455 10.553635173562002 a31.557154416711576,31.557154416711576 0 0,0 -0.5429027452294545,-0.01869866826219176 l 0.45419235718057205 -10.547379706873716" fill="#ff860c" stroke="none" /><path d="M 99.09653310690486 120.98055641714683 l -0.3936940835325644 9.14247217444203 a30.150944896121675,30.150944896121675 0 0,0 -0.5183262312432069,-0.026791545622087288 l 0.5510083831892602 -9.134340822057741" fill="#ff730a" stroke="none" /><path d="M 98.37488393609728 120.93702456842531 l -0.6809932724677046 8.773510516133936 a29.799899920672907,29.799899920672907 0 0,0 -0.5110763470077966,-0.04409781771694807 l 0.8319139372170429 -8.760488446138323" fill="#ff6f0a" stroke="none" /><path d="M 98.01472825383883 120.90594882070398 l -0.49963543877206645 5.2614222371201675 a26.28509219682491,26.28509219682491 0 0,0 -0.4500601118664244,-0.04665057077972475 l 0.5901281472440842 -5.252042297884682" fill="#ff3e05" stroke="none" /><path d="M 97.65516085044442 120.86867818915974 l -1.4735848702174144 13.114660102297558 a34.197187653759,34.197187653759 0 0,0 -0.5844015646523669,-0.07076289088448258 l 1.6991138579211706 -13.087351682687727" fill="#ffa90f" stroke="none" /><path d="M 96.58105272829116 120.7198165907248 l -0.1825295090776771 1.1061820057242977 a22.121140335315953,22.121140335315953 0 0,0 -0.3751650896492333,-0.06522725972852714 l 0.2015435701989603 -1.1028761674747645" fill="#ff0200" stroke="none" /><path d="M 95.51606077576429 120.51570834832081 l -1.879161547458351 8.597870827209078 a29.80083126089911,29.80083126089911 0 0,0 -0.5001996452766775,-0.11384381075473861 l 2.0268813421278913 -8.564250282876653" fill="#ff6f0a" stroke="none" /><path d="M 95.16358092515715 120.4354850818985 l -2.025762336532993 8.559522110692393 a29.795972476511484,29.795972476511484 0 0,0 -0.4980846793219554,-0.1224170958372956 l 2.172800300598159 -8.523383756541067" fill="#ff6e0a" stroke="none" /><path d="M 94.81253420990036 120.34920634021253 l -3.259030075020488 12.784407290380685 a34.193268995826124,34.193268995826124 0 0,0 -0.5690892526456581,-0.15030164399544693 l 3.478609770477636 -12.726414297081657" fill="#ffa90f" stroke="none" /><path d="M 94.11515582081647 120.15858648285463 l -2.4710370356573517 8.464559514054368 a29.81786775805572,29.81786775805572 0 0,0 -0.49146239237592404,-0.14807358729538697 l 2.6163744024735216 -8.420770557653256" fill="#ff6f0a" stroke="none" /><path d="M 93.08242187328487 119.8279376855182 l -1.776805375430234 5.092878695112606 a26.393927209862,26.393927209862 0 0,0 -0.4276827213180407,-0.15335180764226802 l 1.8642076573780013 -5.06153934643038" fill="#ff3f06" stroke="none" /><path d="M 92.7421414339146 119.70592522655815 l -3.6465478031574845 9.900798932604296 a31.550977698041592,31.550977698041592 0 0,0 -0.5080154820874304,-0.1920879861686289 l 3.8164335060051977 -9.836562696329034" fill="#ff860c" stroke="none" /><path d="M 92.06813273071674 119.44442032107085 l -2.7318518448567413 6.696944581006243 a28.232709120607304,28.232709120607304 0 0,0 -0.4484006794013733,-0.18743152035614657 l 2.846723983755577 -6.648928017630124" fill="#ff5908" stroke="none" /><path d="M 91.7346041902142 119.30500536409082 l -24.796187429357385 57.91501609227247 a84.0,84.0 0 0,0 -1.3243173013690268,-0.5805417868221912 l 25.789425405384158 -57.479609752155824" fill="#4dd2ff" stroke="none" /><line stroke="#e1ed5e" stroke-width="0.3" x1="58.666819895761336" x2="56.23545636021788" y1="174.27360380694188" y2="178.64263932499728" /><path d="M 58.180547188652646 175.14741091055294 a86.0,86.0 0 0,1 -31.652253787137756,-30.449443065178592" fill="none" id="id44" stroke="none" /><text fill="#e1ed5e" style="font-size:6.75px; font-family:Arial;" text-anchor="middle"><textPath startOffset="22.20632615414155" xlink:href="#id44">August</textPath></text><path d="M 89.7882731507175 118.34994917583269 l -4.283192944683329 7.696677947349 a29.808211692880313,29.808211692880313 0 0,0 -0.4462022905490769,-0.253365305738216 l 4.415044002153613 -7.621809475816152" fill="#ff6f0a" stroke="none" /><path d="M 89.1626897886671 117.98757091392108 l -3.673715507854596 6.097566363469323 a28.11874295009757,28.11874295009757 0 0,0 -0.41243608097080037,-0.25335192687841407 l 3.7781307887577054 -6.03342596976253" fill="#ff5808" stroke="none" /><line stroke="#e1ed5e" stroke-width="0.3" x1="26.63291911575756" x2="22.317208475507996" y1="142.92168965132927" y2="145.44649492493687" /><path d="M 25.769776987707644 143.4266507060508 a86.0,86.0 0 0,1 -11.730757126820373,-40.83630448921669" fill="none" id="id45" stroke="none" /><text fill="#e1ed5e" style="font-size:6.75px; font-family:Arial;" text-anchor="middle"><textPath startOffset="21.46611528233685" xlink:href="#id45">September</textPath></text><line stroke="#e1ed5e" stroke-width="0.3" x1="15.007084014347285" x2="10.007500721073583" y1="101.09737516637583" y2="101.16192664675087" /><path d="M 14.007167355692545 101.11028546245083 a86.0,86.0 0 0,1 10.666146001902534,-42.60595125391555" fill="none" id="id46" stroke="none" /><text fill="#e1ed5e" style="font-size:6.75px; font-family:Arial;" text-anchor="middle"><textPath startOffset="22.20632615414155" xlink:href="#id46">October</textPath></text><line stroke="#e1ed5e" stroke-width="0.3" x1="26.266209847984243" x2="21.928928074336255" y1="57.711370442889674" y2="55.22380399835377" /><path d="M 25.398753493254645 57.213857153982495 a86.0,86.0 0 0,1 29.58750427330803,-30.492523968695096" fill="none" id="id47" stroke="none" /><text fill="#e1ed5e" style="font-size:6.75px; font-family:Arial;" text-anchor="middle"><textPath startOffset="21.46611528233685" xlink:href="#id47">November</textPath></text><line stroke="#e1ed5e" stroke-width="0.3" x1="56.762969772571076" x2="54.21961505331055" y1="26.818313649435495" y2="22.513508569990535" /><path d="M 56.25429882871897 25.957352633546506 a86.0,86.0 0 0,1 42.265352541879196,-11.944610805530505" fill="none" id="id48" stroke="none" /><text fill="#e1ed5e" style="font-size:6.75px; font-family:Arial;" text-anchor="middle"><textPath startOffset="22.20632615414155" xlink:href="#id48">December</textPath></text></svg>