<?xml version="1.0" encoding="utf-8" ?>
<svg baseProfile="full" height="200mm" version="1.1" viewBox="0,0,200,200" width="200mm" xmlns="http://www.w3.org/2000/svg" xmlns:ev="http://www.w3.org/2001/xml-events" xmlns:xlink="http://www.w3.org/1999/xlink"><defs /><rect fill="#1a1a1a" height="200" width="200" x="0" y="0" /><text alignment-baseline="middle" fill="#e1ed5e" style="dominant-baseline: central; font-size:9.0px; font-family:Arial;" text-anchor="middle" x="100.0" y="100.0">2025</text><line stroke="#e1ed5e" stroke-width="0.3" x1="100.0" x2="100.0" y1="15.0" y2="10.0" /><path d="M 100.0 14.0 a86.0,86.0 0 0,1 42.46469731375804,11.215312516191453" fill="none" id="id37" stroke="none" /><text fill="#e1ed5e" style="font-size:6.75px; font-family:Arial;" text-anchor="middle"><textPath startOffset="22.20632615414155" xlink:href="#id37">January</textPath></text><path d="M 100.0 79.0 l 0.0 -52.497896739070654 a73.49789673907065,73.49789673907065 0 0,0 1.2651454732743839,0.010889506509153315 l -0.9036649940018555 52.49011860917006" fill="#3dffad" stroke="none" /><path d="M 100.72285384407766 79.0124445844662 l 0.8675240662776031 -25.187954058046486 a46.20288927158613,46.20288927158613 0 0,0 0.7945998585968539,0.03421714139638358 l -1.3009647572637886 25.16928919012591" fill="#ffd313" stroke="none" /><path d="M 101.08401301168833 79.027996857942 l 1.083963514053693 -20.97104552942981 a41.99904110899394,41.99904110899394 0 0,0 0.7216594259271566,0.04353246733833362 l -1.4447849888204616 20.94927979271117" fill="#ff900d" stroke="none" /><path d="M 101.44485096284872 79.0497635885617 l 3.851854151595571 -55.85161180859919 a76.98427745379608,76.98427745379608 0 0,0 1.32123280281903,0.10255309416097369 l -4.812677143776942 55.777033452249746" fill="#42ffd9" stroke="none" /><path d="M 102.16513564639614 79.11191278185805 l 2.5983329359956087 -25.06734627882854 a46.201650412403126,46.201650412403126 0 0,0 0.7903414848066113,0.08880407461815593 l -3.029441124311945 25.018906250739782" fill="#ffd313" stroke="none" /><path d="M 102.52436894288641 79.15227682838746 l 3.057226219396097 -25.248371904816874 a46.4327921392935,46.4327921392935 0 0,0 0.7926415283901609,0.10290761934922912 l -3.491382476294104 25.192005962303508" fill="#ffd614" stroke="none" /><path d="M 102.88285421437855 79.19881850522331 l 4.3240694558651525 -31.200243529088876 a52.49845667542456,52.49845667542456 0 0,0 0.8940512660359109,0.13175991618244165 l -4.860489702329719 31.121189128745467" fill="#cdff1d" stroke="none" /><path d="M 103.2404852339499 79.25152402106235 l 3.2424627853226853 -20.761138026190753 a42.01281554329991,42.01281554329991 0 0,0 0.713559251055704,0.11774339043578202 l -3.5993512425172645 20.702248372815347" fill="#ff900d" stroke="none" /><path d="M 103.95276090670814 79.375362276772 l 11.857515971662226 -61.8699124447148 a83.99592646302537,83.99592646302537 0 0,0 1.4176656098297802,0.28437038462623004 l -12.920747990959132 61.656638104011364" fill="#4dd2ff" stroke="none" /><path d="M 104.66035177308747 79.52364482259891 l 6.990241080571655 -30.713273613381922 a52.49870864678382,52.49870864678382 0 0,0 0.8794191508092523,0.20813010010334662 l -7.517883918343431 30.588397601137707" fill="#cdff1d" stroke="none" /><path d="M 105.36241919743992 79.69619591428918 l 8.04278967293583 -30.452528944366765 a52.49671387352304,52.49671387352304 0 0,0 0.8717007112626851,0.23826873307322777 l -8.565788273422227 30.30957367046724" fill="#cdff1d" stroke="none" /><path d="M 105.71112130821622 79.79150937346287 l 5.710535033068515 -20.206416123967927 a41.997844245037484,41.997844245037484 0 0,0 0.6939839422645655,0.202592943039729 l -6.057509193056508 20.105124852009492" fill="#ff900d" stroke="none" /><path d="M 106.40334571778207 80.00007090966166 l 19.208263628173082 -59.994247920296544 a83.99418366112386,83.99418366112386 0 0,0 1.373173622980433,0.4527137539280153 l -20.238120073395933 59.654720442109294" fill="#4dd2ff" stroke="none" /><path d="M 107.08798089147638 80.2323363322302 l 8.505028522402208 -23.71966655804805 a46.198374784732806,46.198374784732806 0 0,0 0.7462526308363767,0.27485114182205733 l -8.912063479011161 23.569752148419667" fill="#ffd313" stroke="none" /><path d="M 107.4271985657038 80.35727306442388 l 8.917841182762949 -23.58503245311424 a46.214710927857865,46.214710927857865 0 0,0 0.7416731241600933,0.2877576495907949 l -9.32249747192271 23.4280320996329" fill="#ffd313" stroke="none" /><path d="M 108.09893153111575 80.62456947434976 l 9.728901896044427 -23.274880402860592 a46.226406598449984,46.226406598449984 0 0,0 0.7315136062692321,0.3131959500672107 l -10.128099260103973 23.103964924830592" fill="#ffd313" stroke="none" /><path d="M 108.76106565485865 80.91482961587045 l 10.52053737977182 -22.918016635818553 a46.21739862235659,46.21739862235659 0 0,0 0.7201590402993819,0.3381243256990314 l -10.9134746313708 22.733527327479518" fill="#ffd313" stroke="none" /><path d="M 109.08828744355905 81.06846463323043 l 9.089871654931356 -18.93483538933261 a42.00366058391363,42.00366058391363 0 0,0 0.6491140357248265,0.31851743825886647 l -9.414456957666614 18.77556279093891" fill="#ff900d" stroke="none" /><path d="M 109.73455568895987 81.39251694778311 l 22.6615627090771 -43.31729742161024 a69.88695818241993,69.88695818241993 0 0,0 1.0611334666444463,0.5668207485023057 l -23.403841222249856 42.92079794660618" fill="#37ff7c" stroke="none" /><path d="M 110.36928655335952 81.73862282372117 l 6.227168636738448 -10.966682676826213 a33.61133451164385,33.61133451164385 0 0,0 0.5006540600687178,0.29001114657534355 l -6.415019429272494 10.85786737286082" fill="#ff0000" stroke="none" /><line stroke="#e1ed5e" stroke-width="0.3" x1="143.23703022742887" x2="145.7803849466894" y1="26.81831364943548" y2="22.513508569990506" /><path d="M 143.74570117128098 25.957352633546492 a86.0,86.0 0 0,1 28.547481713284135,27.462654790039103" fill="none" id="id38" stroke="none" /><text fill="#e1ed5e" style="font-size:6.75px; font-family:Arial;" text-anchor="middle"><textPath startOffset="19.985693538727396" xlink:href="#id38">February</textPath></text><path d="M 110.99172775467656 82.1063720568725 l 13.192047195551114 -21.475566862083028 a46.20377117134352,46.20377117134352 0 0,0 0.6740928845273436,0.42211690244962247 l -13.559759232450721 21.24530561831046" fill="#ffd313" stroke="none" /><path d="M 111.2981086023043 82.29822771554956 l 13.570197498316364 -21.261660196930862 a46.223172966006196,46.223172966006196 0 0,0 0.6670069324560245,0.4338398628742877 l -13.93417145655667 21.024921409897043" fill="#ffd313" stroke="none" /><path d="M 111.90073688211348 82.69761687909136 l 14.30103705581842 -20.792159730712235 a46.235561557836256,46.235561557836256 0 0,0 0.6518528581494542,0.4566645843055401 l -14.656821053551523 20.54291030364276" fill="#ffd313" stroke="none" /><path d="M 112.19680574252982 82.90503203632743 l 14.635222965564175 -20.512638556267717 a46.198374784732806,46.198374784732806 0 0,0 0.643377670601816,0.467441239261241 l -14.98614595251978 20.257678082189802" fill="#ffd313" stroke="none" /><path d="M 112.48926042617603 83.11751280151076 l 18.734571226597176 -25.32465078871388 a52.50114436992328,52.50114436992328 0 0,0 0.7219003509000841,0.5437203777341332 l -19.167717731255642 24.998413821473896" fill="#cdff1d" stroke="none" /><path d="M 112.77801427241765 83.33499621200491 l 12.778721242181824 -16.66592581340114 a42.00116186793434,42.00116186793434 0 0,0 0.569950656087639,0.4448555274839074 l -13.063704453428892 16.44349189669401" fill="#ff900d" stroke="none" /><path d="M 113.06298171725822 83.55741782278167 l 39.188945151774654 -49.32774653165496 a84.0,84.0 0 0,0 1.1243864057420354,0.9091756109434814 l -40.032234956081176 48.64586482344735" fill="#4dd2ff" stroke="none" /><path d="M 114.16331599549186 84.49514656593476 l 19.311809034716127 -21.141007425467112 a49.63368930398245,49.63368930398245 0 0,0 0.6258385536128852,0.5816487292336309 l -19.67285547212386 20.80545411015884" fill="#f7ff18" stroke="none" /><path d="M 114.42810811169701 84.74124197986012 l 17.313392154678116 -18.31015260981081 a46.19950865584945,46.19950865584945 0 0,0 0.573130768653424,0.5513513453536811 l -17.626006166943956 18.00941817769483" fill="#ffd313" stroke="none" /><path d="M 114.68862486808459 84.99185889309783 l 14.69174339829198 -15.011327473346894 a42.00445849321794,42.00445849321794 0 0,0 0.5123827856819089,0.5101824511654777 l -14.947961984141212 14.756209171531298" fill="#ff900d" stroke="none" /><path d="M 114.94478906791727 85.2469230424477 l 39.433396332555745 -38.92754378452604 a76.41070664967748,76.41070664967748 0 0,0 0.9159669285439191,0.9439844356306336 l -40.097627524802775 38.242995153345284" fill="#41ffd2" stroke="none" /><path d="M 115.4437574822437 85.77008943001954 l 18.533583742048428 -17.076882973189356 a46.20146143388368,46.20146143388368 0 0,0 0.5338608776078498,0.5895025150134551 l -18.824788260272314 16.75532767090635" fill="#ffd313" stroke="none" /><path d="M 115.68641384162765 86.03803664274999 l 24.96147857074639 -22.217394789284754 a54.41688261434284,54.41688261434284 0 0,0 0.6167457533782252,0.7050470113949024 l -25.340216187702463 21.784432221686906" fill="#b2ff20" stroke="none" /><path d="M 116.15771136456269 86.58626213691792 l 24.233974028909735 -20.118454134381796 a52.49662988306996,52.49662988306996 0 0,0 0.5712170994851495,0.7002446224986822 l -24.576689620471292 19.698325342275012" fill="#cdff1d" stroke="none" /><path d="M 116.60985879189232 87.15038557335679 l 49.8276166350967 -38.547327197755294 a83.99752228163399,83.99752228163399 0 0,0 0.8748704325978319,1.1512269381393507 l -50.48376300791865 37.683915483734914" fill="#4dd2ff" stroke="none" /><path d="M 117.04232023915458 87.72973835380427 l 20.452617832230253 -14.725634105533226 a46.20225934318799,46.20225934318799 0 0,0 0.4591346886414988,0.6494134563289002 l -20.703065140675633 14.371394148872534" fill="#ffd313" stroke="none" /><path d="M 117.45458315368197 88.32363383020206 l 22.695796542086583 -15.182512730745751 a48.30582123831924,48.30582123831924 0 0,0 0.4563827364514832,0.6951022182354144 l -22.95377591389599 14.789592448532662" fill="#fff316" stroke="none" /><line stroke="#e1ed5e" stroke-width="0.3" x1="172.23445277983987" x2="176.4835382374775" y1="55.19839476539836" y2="52.563006222186495" /><path d="M 173.08426987136738 54.67131705675599 a86.0,86.0 0 0,1 12.851231095245387,41.99856678651699" fill="none" id="id39" stroke="none" /><text fill="#e1ed5e" style="font-size:6.75px; font-family:Arial;" text-anchor="middle"><textPath startOffset="22.20632615414155" xlink:href="#id39">March</textPath></text><path d="M 117.84615892207809 88.93136811851018 l 17.84461243075602 -11.06767270908602 a41.998180206849824,41.998180206849824 0 0,0 0.3757521219807281,0.6176376911681766 l -18.032480351022972 10.75886724471076" fill="#ff900d" stroke="none" /><path d="M 118.03404312379186 89.2402003453031 l 48.32664414536718 -28.833523654048413 a77.27465344772477,77.27465344772477 0 0,0 0.6717019235971583,1.148156322805151 l -48.815805743434666 27.997387918889366" fill="#43ffdd" stroke="none" /><path d="M 118.3937258080291 89.86733742301442 l 22.07110263196919 -12.158441307967143 a46.19843777757262,46.19843777757262 0 0,0 0.37770940929375835,0.699838171303714 l -22.27712014048141 11.776722153330969" fill="#ffd313" stroke="none" /><path d="M 118.56541770881063 90.18545643968196 l 31.565939416997896 -16.68722418690646 a56.705349491941085,56.705349491941085 0 0,0 0.4487568654723522,0.8668554276511231 l -31.848505715630367 16.14139603699499" fill="#93ff23" stroke="none" /><path d="M 119.04729006885535 91.15688171328212 l 22.857730811090512 -10.612198197104291 a46.2010834768448,46.2010834768448 0 0,0 0.32868261072493365,0.7242085642013304 l -23.03701573877879 10.217167624060897" fill="#ffd313" stroke="none" /><line stroke="#e1ed5e" stroke-width="0.3" x1="184.98032266829074" x2="189.97916517819016" y1="98.17113171792111" y2="98.06355123074" /><path d="M 185.9800911702706 98.14961562048488 a86.0,86.0 0 0,1 -9.607161424134198,41.387399972396054" fill="none" id="id40" stroke="none" /><text fill="#e1ed5e" style="font-size:6.75px; font-family:Arial;" text-anchor="middle"><textPath startOffset="21.466115282336823" xlink:href="#id40">April</textPath></text><line stroke="#e1ed5e" stroke-width="0.3" x1="174.80103733775053" x2="179.2010983576182" y1="140.37084112569926" y2="142.7455964860345" /><path d="M 175.68104954172406 140.8457921977663 a86.0,86.0 0 0,1 -30.038265399797805,32.042727171017184" fill="none" id="id41" stroke="none" /><text fill="#e1ed5e" style="font-size:6.75px; font-family:Arial;" text-anchor="middle"><textPath startOffset="22.206326154141568" xlink:href="#id41">May</textPath></text><line stroke="#e1ed5e" stroke-width="0.3" x1="143.8653032363475" x2="146.44561519142675" y1="172.8068346515853" y2="177.08958963109032" /><path d="M 144.38136562736335 173.6633856474863 a86.0,86.0 0 0,1 -40.68145358897372,12.25698825130547" fill="none" id="id42" stroke="none" /><text fill="#e1ed5e" style="font-size:6.75px; font-family:Arial;" text-anchor="middle"><textPath startOffset="21.466115282336833" xlink:href="#id42">June</textPath></text><line stroke="#e1ed5e" stroke-width="0.3" x1="102.19456741930631" x2="102.32365962044197" y1="184.97166512339345" y2="189.96999836594603" /><path d="M 102.22038585953345 185.97133177190398 a86.0,86.0 0 0,1 -42.740103519485714,-10.115201625700543" fill="none" id="id43" stroke="none" /><text fill="#e1ed5e" style="font-size:6.75px; font-family:Arial;" text-anchor="middle"><textPath startOffset="22.20632615414155" xlink:href="#id43">July</textPath></text><line stroke="#e1ed5e" stroke-width="0.3" x1="58.666819895761336" x2="56.23545636021788" y1="174.27360380694188" y2="178.64263932499728" /><path d="M 58.180547188652646 175.14741091055294 a86.0,86.0 0 0,1 -31.652253787137756,-30.449443065178592" fill="none" id="id44" stroke="none" /><text fill="#e1ed5e" style="font-size:6.75px; font-family:Arial;" text-anchor="middle"><textPath startOffset="22.20632615414155" xlink:href="#id44">August</textPath></text><line stroke="#e1ed5e" stroke-width="0.3" x1="26.63291911575756" x2="22.317208475507996" y1="142.92168965132927" y2="145.44649492493687" /><path d="M 25.769776987707644 143.4266507060508 a86.0,86.0 0 0,1 -11.730757126820373,-40.83630448921669" fill="none" id="id45" stroke="none" /><text fill="#e1ed5e" style="font-size:6.75px; font-family:Arial;" text-anchor="middle"><textPath startOffset="21.46611528233685" xlink:href="#id45">September</textPath></text><line stroke="#e1ed5e" stroke-width="0.3" x1="15.007084014347285" x2="10.007500721073583" y1="101.09737516637583" y2="101.16192664675087" /><path d="M 14.007167355692545 101.11028546245083 a86.0,86.0 0 0,1 10.666146001902534,-42.60595125391555" fill="none" id="id46" stroke="none" /><text fill="#e1ed5e" style="font-size:6.75px; font-family:Arial;" text-anchor="middle"><textPath startOffset="22.20632615414155" xlink:href="#id46">October</textPath></text><line stroke="#e1ed5e" stroke-width="0.3" x1="26.266209847984243" x2="21.928928074336255" y1="57.711370442889674" y2="55.22380399835377" /><path d="M 25.398753493254645 57.213857153982495 a86.0,86.0 0 0,1 29.58750427330803,-30.492523968695096" fill="none" id="id47" stroke="none" /><text fill="#e1ed5e" style="font-size:6.75px; font-family:Arial;" text-anchor="middle"><textPath startOffset="21.46611528233685" xlink:href="#id47">November</textPath></text><line stroke="#e1ed5e" stroke-width="0.3" x1="56.762969772571076" x2="54.21961505331055" y1="26.818313649435495" y2="22.513508569990535" /><path d="M 56.25429882871897 25.957352633546506 a86.0,86.0 0 0,1 42.265352541879196,-11.944610805530505" fill="none" id="id48" stroke="none" /><text fill="#e1ed5e" style="font-size:6.75px; font-family:Arial;" text-anchor="middle"><textPath startOffset="22.20632615414155" xlink:href="#id48">December</textPath></text></svg>