<?xml version="1.0" encoding="utf-8" ?>
<svg baseProfile="full" height="200mm" version="1.1" viewBox="0,0,200,200" width="200mm" xmlns="http://www.w3.org/2000/svg" xmlns:ev="http://www.w3.org/2001/xml-events" xmlns:xlink="http://www.w3.org/1999/xlink"><defs /><rect fill="#1a1a1a" height="200" width="200" x="0" y="0" /><text alignment-baseline="middle" fill="#e1ed5e" style="dominant-baseline: central; font-size:9.0px; font-family:Arial;" text-anchor="middle" x="100.0" y="100.0">2022</text><line stroke="#e1ed5e" stroke-width="0.3" x1="100.0" x2="100.0" y1="15.0" y2="10.0" /><path d="M 100.0 14.0 a86.0,86.0 0 0,1 42.46469731375804,11.215312516191453" fill="none" id="id1" stroke="none" /><text fill="#e1ed5e" style="font-size:6.75px; font-family:Arial;" text-anchor="middle"><textPath startOffset="22.20632615414155" xlink:href="#id1">January</textPath></text><line stroke="#e1ed5e" stroke-width="0.3" x1="143.23703022742887" x2="145.7803849466894" y1="26.81831364943548" y2="22.513508569990506" /><path d="M 143.74570117128098 25.957352633546492 a86.0,86.0 0 0,1 28.547481713284135,27.462654790039103" fill="none" id="id2" stroke="none" /><text fill="#e1ed5e" style="font-size:6.75px; font-family:Arial;" text-anchor="middle"><textPath startOffset="19.985693538727396" xlink:href="#id2">February</textPath></text><line stroke="#e1ed5e" stroke-width="0.3" x1="172.23445277983987" x2="176.4835382374775" y1="55.19839476539836" y2="52.563006222186495" /><path d="M 173.08426987136738 54.67131705675599 a86.0,86.0 0 0,1 12.851231095245387,41.99856678651699" fill="none" id="id3" stroke="none" /><text fill="#e1ed5e" style="font-size:6.75px; font-family:Arial;" text-anchor="middle"><textPath startOffset="22.20632615414155" xlink:href="#id3">March</textPath></text><line stroke="#e1ed5e" stroke-width="0.3" x1="184.98032266829074" x2="189.97916517819016" y1="98.17113171792111" y2="98.06355123074" /><path d="M 185.9800911702706 98.14961562048488 a86.0,86.0 0 0,1 -9.607161424134198,41.387399972396054" fill="none" id="id4" stroke="none" /><text fill="#e1ed5e" style="font-size:6.75px; font-family:Arial;" text-anchor="middle"><textPath startOffset="21.466115282336823" xlink:href="#id4">April</textPath></text><line stroke="#e1ed5e" stroke-width="0.3" x1="174.80103733775053" x2="179.2010983576182" y1="140.37084112569926" y2="142.7455964860345" /><path d="M 175.68104954172406 140.8457921977663 a86.0,86.0 0 0,1 -30.038265399797805,32.042727171017184" fill="none" id="id5" stroke="none" /><text fill="#e1ed5e" style="font-size:6.75px; font-family:Arial;" text-anchor="middle"><textPath startOffset="22.206326154141568" xlink:href="#id5">May</textPath></text><line stroke="#e1ed5e" stroke-width="0.3" x1="143.8653032363475" x2="146.44561519142675" y1="172.8068346515853" y2="177.08958963109032" /><path d="M 144.38136562736335 173.6633856474863 a86.0,86.0 0 0,1 -40.68145358897372,12.25698825130547" fill="none" id="id6" stroke="none" /><text fill="#e1ed5e" style="font-size:6.75px; font-family:Arial;" text-anchor="middle"><textPath startOffset="21.466115282336833" xlink:href="#id6">June</textPath></text><line stroke="#e1ed5e" stroke-width="0.3" x1="102.19456741930631" x2="102.32365962044197" y1="184.97166512339345" y2="189.96999836594603" /><path d="M 102.22038585953345 185.97133177190398 a86.0,86.0 0 0,1 -42.740103519485714,-10.115201625700543" fill="none" id="id7" stroke="none" /><text fill="#e1ed5e" style="font-size:6.75px; font-family:Arial;" text-anchor="middle"><textPath startOffset="22.20632615414155" xlink:href="#id7">July</textPath></text><line stroke="#e1ed5e" stroke-width="0.3" x1="58.666819895761336" x2="56.23545636021788" y1="174.27360380694188" y2="178.64263932499728" /><path d="M 58.180547188652646 175.14741091055294 a86.0,86.0 0 0,1 -31.652253787137756,-30.449443065178592" fill="none" id="id8" stroke="none" /><text fill="#e1ed5e" style="font-size:6.75px; font-family:Arial;" text-anchor="middle"><textPath startOffset="22.20632615414155" xlink:href="#id8">August</textPath></text><line stroke="#e1ed5e" stroke-width="0.3" x1="26.63291911575756" x2="22.317208475507996" y1="142.92168965132927" y2="145.44649492493687" /><path d="M 25.769776987707644 143.4266507060508 a86.0,86.0 0 0,1 -11.730757126820373,-40.83630448921669" fill="none" id="id9" stroke="none" /><text fill="#e1ed5e" style="font-size:6.75px; font-family:Arial;" text-anchor="middle"><textPath startOffset="21.46611528233685" xlink:href="#id9">September</textPath></text><line stroke="#e1ed5e" stroke-width="0.3" x1="15.007084014347285" x2="10.007500721073583" y1="101.09737516637583" y2="101.16192664675087" /><path d="M 14.007167355692545 101.11028546245083 a86.0,86.0 0 0,1 10.666146001902534,-42.60595125391555" fill="none" id="id10" stroke="none" /><text fill="#e1ed5e" style="font-size:6.75px; font-family:Arial;" text-anchor="middle"><textPath startOffset="22.20632615414155" xlink:href="#id10">October</textPath></text><line stroke="#e1ed5e" stroke-width="0.3" x1="26.266209847984243" x2="21.928928074336255" y1="57.711370442889674" y2="55.22380399835377" /><path d="M 25.398753493254645 57.213857153982495 a86.0,86.0 0 0,1 29.58750427330803,-30.492523968695096" fill="none" id="id11" stroke="none" /><text fill="#e1ed5e" style="font-size:6.75px; font-family:Arial;" text-anchor="middle"><textPath startOffset="21.46611528233685" xlink:href="#id11">November</textPath></text><path d="M 84.07557802195018 86.31012108654704 l -27.843866094516567 -23.93676554425314 a57.71851881285401,57.71851881285401 0 0,0 0.6541655761759314,-0.7478243375231117 l 27.427708654762792 24.412505437979195" fill="red" stroke="none" /><path d="M 84.31358615837235 86.03803664274999 l -42.240476643995436 -37.596865226848095 a77.54893581666859,77.54893581666859 0 0,0 0.8960829733034664,-0.9894772001089736 l 41.58705003007592 38.318395214226626" fill="red" stroke="none" /><path d="M 85.05521093208273 85.24692304244772 l -27.530366715135834 -27.177206514741233 a59.68490203444688,59.68490203444688 0 0,0 0.7280540557974469,-0.7249275603070358 l 27.058476859171073 27.64706992569838" fill="red" stroke="none" /><path d="M 85.31137513191541 84.99185889309783 l -27.295208048887027 -27.888950641665303 a60.02335134666512,60.02335134666512 0 0,0 0.7446232762068965,-0.7163270017467782 l 26.811101529067702 28.354660730174395" fill="red" stroke="none" /><path d="M 85.83668400450813 84.49514656593479 l -26.938091662850976 -29.48964516211187 a60.94120621893422,60.94120621893422 0 0,0 0.7805959464543506,-0.7008267480318289 l 26.426484728800656 29.94897091891298" fill="red" stroke="none" /><path d="M 86.10567301691215 84.25364557470407 l -40.22563051285541 -45.58745708283693 a81.79734857241937,81.79734857241937 0 0,0 1.0637791975894866,-0.9224988374953154 l 39.43495751661915 46.273120913751924" fill="red" stroke="none" /><path d="M 86.65592168130627 83.78471172551755 l -26.946330849454426 -32.7443014218052 a63.406296959889026,63.406296959889026 0 0,0 0.8487283135730881,-0.6862792711448777 l 26.378699137316836 33.20328679021421" fill="red" stroke="none" /><path d="M 86.93701828274178 83.55741782278169 l -26.348914451803843 -33.16579633437724 a63.3584152121142,63.3584152121142 0 0,0 0.8597659853402077,-0.6710609889401129 l 25.774115911304207 33.614435712540576" fill="red" stroke="none" /><path d="M 87.80319425747018 82.90503203632743 l -36.59041722758948 -51.284903891017706 a84.0,84.0 0 0,0 1.184275441665359,-0.8296606289442297 l 35.70221064634046 51.907149362725875" fill="red" stroke="none" /><path d="M 88.09926311788651 82.69761687909137 l -22.97937750479378 -33.40952727603879 a61.549331724656106,61.549331724656106 0 0,0 0.8780900403391246,-0.5928903149464652 l 22.400882770048117 33.80012950328391" fill="red" stroke="none" /><path d="M 88.70189139769569 82.29822771554957 l -20.24569866774268 -31.720773818981318 a58.631048433707086,58.631048433707086 0 0,0 0.8554014436392046,-0.535652305532193 l 19.696678071731235 32.06457046583644" fill="red" stroke="none" /><path d="M 89.00827224532344 82.1063720568725 l -20.347529134305855 -33.12410241750296 a59.874517396832736,59.874517396832736 0 0,0 0.8828296120462241,-0.5318949632099064 l 19.774337456041984 33.469443990171484" fill="red" stroke="none" /><line stroke="#e1ed5e" stroke-width="0.3" x1="56.762969772571076" x2="54.21961505331055" y1="26.818313649435495" y2="22.513508569990535" /><path d="M 56.25429882871897 25.957352633546506 a86.0,86.0 0 0,1 42.265352541879196,-11.944610805530505" fill="none" id="id12" stroke="none" /><text fill="#e1ed5e" style="font-size:6.75px; font-family:Arial;" text-anchor="middle"><textPath startOffset="22.20632615414155" xlink:href="#id12">December</textPath></text><path d="M 89.3179101791058 81.91981866633112 l -19.713146343605654 -33.36587376866916 a59.7542213327939,59.7542213327939 0 0,0 0.8900626515184954,-0.5155817373284385 l 19.13588695962184 33.70025966338765" fill="red" stroke="none" /><path d="M 89.94658935756843 81.56283822128135 l -18.41017023843105 -33.76279942521157 a59.45596173852734,59.45596173852734 0 0,0 0.9027537101787141,-0.48221976763663027 l 17.82627148172403 34.074697919349944" fill="red" stroke="none" /><path d="M 90.26544431104013 81.39251694778311 l -27.431774823489636 -52.435499002713385 a80.17756184256154,80.17756184256154 0 0,0 1.2283947454070234,-0.6292314997082386 l 26.525119590493848 52.89992302773413" fill="red" stroke="none" /><path d="M 90.58718382345135 81.22770947309562 l -18.05019844157008 -35.99810756504891 a61.27000635764651,61.27000635764651 0 0,0 0.9468513111195317,-0.4646158262362565 l 17.427875863440118 36.30347855141999" fill="red" stroke="none" /><path d="M 91.23893434514133 80.91482961587045 l -16.840037130409904 -36.68446175046106 a61.36504161368628,61.36504161368628 0 0,0 0.9637756202487734,-0.43241802742060687 l 16.206079391694356 36.9689001083982" fill="red" stroke="none" /><path d="M 91.56875222667455 80.76684994638697 l -16.22420691551633 -37.01025215914346 a61.41019246329905,61.41019246329905 0 0,0 0.9717906853703558,-0.41607005578925427 l 15.584732472355665 37.2840417428955" fill="red" stroke="none" /><path d="M 92.57280143429618 80.3572730644239 l -20.929722787445346 -55.35287981251592 a80.17765287250029,80.17765287250029 0 0,0 1.2951274729725626,-0.47700637832615317 l 19.973812988700214 55.70494945864839" fill="red" stroke="none" /><path d="M 93.25333710446033 80.11325718540243 l -13.599276122948735 -40.085789213001156 a63.329786296381926,63.329786296381926 0 0,0 1.0353430237745327,-0.34133631687362265 l 12.907250276931794 40.31393925413401" fill="red" stroke="none" /><path d="M 93.59665428221793 80.00007090966166 l -12.399478321861947 -38.72798660640208 a61.66453011212577,61.66453011212577 0 0,0 1.013690370458359,-0.3149585324932891 l 11.73100257869286 38.93568527377789" fill="red" stroke="none" /><path d="M 94.63758080256005 79.69619591428918 l -10.116250925421282 -38.303304778877205 a60.6166844873425,60.6166844873425 0 0,0 1.0111183701572364,-0.25775658604271595 l 9.455423666579046 38.47176436108878" fill="red" stroke="none" /><path d="M 94.98787191387505 79.60689891045804 l -14.122660156579947 -57.461587429033145 a80.17164489654374,80.17164489654374 0 0,0 1.3429755072311969,-0.31783891276322596 l 13.131460962386218 57.69617225393724" fill="red" stroke="none" /><path d="M 95.33964822691252 79.52364482259891 l -8.82841988428135 -38.78974592641372 a60.7817217662698,60.7817217662698 0 0,0 1.022167013344499,-0.22340611823088535 l 8.159410146783332 38.935965542740476" fill="red" stroke="none" /></svg>